<?xml version="1.0" encoding="UTF-8" standalone="no"?>
<!-- Created with Inkscape (http://www.inkscape.org/) -->

<svg
   width="146"
   height="184"
   version="1.1"
   viewBox="0 0 2666.7 2666.7"
   id="svg16"
   sodipodi:docname="b_border SE.svg"
   inkscape:version="1.4.2 (1:1.4.2+202505120738+ebf0e940d0)"
   xmlns:inkscape="http://www.inkscape.org/namespaces/inkscape"
   xmlns:sodipodi="http://sodipodi.sourceforge.net/DTD/sodipodi-0.dtd"
   xmlns="http://www.w3.org/2000/svg"
   xmlns:svg="http://www.w3.org/2000/svg">
  <defs
     id="defs16" />
  <sodipodi:namedview
     id="namedview16"
     pagecolor="#ffffff"
     bordercolor="#000000"
     borderopacity="0.25"
     inkscape:showpageshadow="2"
     inkscape:pageopacity="0.0"
     inkscape:pagecheckerboard="0"
     inkscape:deskcolor="#d1d1d1"
     inkscape:zoom="2.4565217"
     inkscape:cx="77.548674"
     inkscape:cy="92.000001"
     inkscape:window-width="1366"
     inkscape:window-height="657"
     inkscape:window-x="0"
     inkscape:window-y="27"
     inkscape:window-maximized="1"
     inkscape:current-layer="svg16" />
  <g
     id="g16"
     transform="matrix(16.759304,0,0,16.759304,110.02326,-208.37946)"
     style="fill:#e4aca8;fill-opacity:1">
    <path
       fill-rule="evenodd"
       clip-rule="evenodd"
       d="m 49.1118,103.344 c -1.1302,0.757 -2.2884,1.496 -3.4093,2.299 -0.6351,0.459 -1.2889,0.823 -2.0455,1.029 -0.6445,0.177 -1.289,0.346 -1.9241,0.542 -1.5692,0.486 -3.1384,0.308 -4.7169,0.075 -0.6445,-0.094 -1.1302,-0.477 -1.5692,-0.907 -1.8588,-1.804 -2.8582,-3.973 -2.6807,-6.5998 0.0654,-0.9162 0.1868,-1.8323 0.3269,-2.7484 0.2428,-1.6172 1.1769,-2.6923 2.6713,-3.2812 1.4011,-0.5609 2.8862,-0.6357 4.3714,-0.6637 2.5125,-0.0468 4.5114,1.1404 6.3795,2.6548 0.1961,0.159 0.3456,0.374 0.523,0.5609 0.822,0.8975 1.6439,1.8042 2.4566,2.7017 1.7093,-1.6734 2.9702,-3.356 3.4466,-4.6835 1.2983,-3.6458 2.0549,-7.3944 1.9054,-11.2926 -0.0187,-0.4113 0,-0.8226 0.028,-1.2246 0.2429,-2.8886 -0.0747,-5.721 -0.6818,-8.5442 -0.1121,-0.5048 -0.2802,-0.9909 -0.3643,-1.4957 -0.495,-2.8792 -1.7373,-5.4593 -3.2598,-7.8992 -0.7379,-1.1779 -1.8214,-2.0659 -3.0356,-2.7577 -2.4566,-1.3835 -5.1186,-1.7294 -7.874,-1.4303 -1.0181,0.1122 -1.9895,0.4394 -2.8675,1.0844 -0.2802,1.3087 -0.4203,2.6362 -0.1495,3.9543 0.3643,1.8322 0.9995,2.4305 2.6527,2.2248 0.4017,-0.4206 0.3456,-0.8787 0.2055,-1.4115 -0.2148,-0.8694 0.1868,-1.3649 1.0648,-1.449 1.0648,-0.1122 1.7093,0.3739 1.8027,1.4022 0.1028,1.1218 -0.3269,2.1221 -0.906,3.0195 -0.467,0.7198 -1.2143,1.0844 -2.1203,0.9815 C 38.7346,69.41 38.1181,69.3913 37.511,69.3165 36.4836,69.1856 35.7363,68.6434 35.1572,67.774 34.2699,66.4372 33.971,64.9509 34.0084,63.3897 c 0.0186,-0.9722 0.1587,-1.935 0.2802,-2.9072 0.112,-0.8694 0.5978,-1.5238 1.345,-1.9538 1.1582,-0.6731 2.4098,-1.1779 3.7455,-1.2994 3.0543,-0.2898 6.0246,0 8.808,1.4583 2.0829,1.0937 3.8389,2.524 4.9131,4.6741 0.6911,1.3742 1.5598,2.6736 2.0548,4.1132 1.5786,4.6273 2.6154,9.3668 2.2791,14.312 -0.028,0.3553 -0.028,0.7198 0,1.0751 0.2429,3.8888 -0.467,7.6468 -1.6065,11.3487 -0.5511,1.8041 -1.4198,3.3746 -2.6434,4.7956 -0.6912,0.8039 -1.2516,1.7197 -1.8961,2.6267 0.4484,0.711 0.878,1.346 1.2516,2.01 0.3736,0.664 0.7192,1.355 1.0088,2.057 0.6912,1.654 1.3637,3.309 2.0082,4.982 0.1775,0.468 0.2895,0.982 0.3362,1.486 0.0654,0.608 0.0841,1.234 0.0281,1.842 -0.2989,3.113 -0.5231,6.235 -0.9808,9.32 -0.3549,2.403 -1.373,4.599 -2.7461,6.609 -0.1961,0.29 -0.4576,0.552 -0.7192,0.795 -1.812,1.655 -3.6427,3.272 -5.6696,4.683 -1.9522,1.347 -4.1191,2.281 -6.1927,3.384 -1.289,0.683 -2.7181,1.132 -4.2779,0.954 -1.345,-0.15 -2.4939,-0.617 -3.4093,-1.571 -0.878,-0.925 -1.6439,-1.953 -2.4565,-2.944 -0.0934,-0.112 -0.1681,-0.262 -0.2242,-0.402 -0.8219,-2.16 -1.1862,-4.338 -0.1681,-6.544 0.3643,-0.785 0.7286,-1.58 1.0835,-2.374 0.7005,-1.571 2.0175,-2.412 3.5494,-2.926 0.7192,-0.234 1.5038,-0.271 2.2697,-0.337 2.195,-0.206 3.484,1.159 4.6328,2.739 0.3456,1.617 1.0648,3.235 -0.1307,4.833 -0.8967,1.197 -2.6154,1.711 -3.9884,1.141 -0.4577,-0.197 -0.7379,-0.543 -0.8593,-1.01 -0.0747,-0.29 -0.0094,-0.561 0.2709,-1.346 0.7005,-0.29 1.5131,0.224 2.2417,-0.243 0.4857,-0.916 0.1307,-1.776 -0.327,-2.59 -0.2522,-0.458 -0.7472,-0.747 -1.2703,-0.766 -1.1395,-0.047 -2.2697,0.037 -3.157,0.879 -0.2522,0.243 -0.5044,0.514 -0.6538,0.832 -0.411,0.822 -0.7379,1.682 -1.1396,2.514 -0.2335,0.486 -0.2055,0.972 -0.2148,1.487 -0.056,2.234 1.261,3.711 2.7274,5.104 0.6818,0.645 1.5505,0.804 2.4378,0.561 0.7846,-0.206 1.5599,-0.505 2.2978,-0.842 1.0181,-0.467 2.0362,-0.963 3.0076,-1.524 1.6813,-0.972 3.3532,-1.963 4.8103,-3.281 0.8687,-0.794 1.8121,-1.505 2.6901,-2.29 0.4109,-0.374 0.7845,-0.813 1.0741,-1.29 1.0368,-1.664 1.7747,-3.478 2.0455,-5.422 0.4204,-3.048 0.878,-6.086 0.878,-9.171 0,-0.514 -0.028,-1.009 -0.2241,-1.495 -0.6912,-1.711 -1.3544,-3.431 -2.0269,-5.142 -0.5137,-1.318 -0.9807,-2.028 -1.9708,-2.954 z m -1.4197,-2.449 c -0.411,-0.515 -0.6539,-0.9072 -0.9808,-1.2157 -0.6071,-0.5515 -1.1022,-1.2059 -1.6719,-1.7761 -0.9341,-0.9255 -1.9989,-1.7481 -3.3159,-2.094 -1.5785,-0.4113 -3.1383,-0.1589 -4.6889,0.187 -0.8873,0.1963 -1.401,0.8132 -1.4757,1.7387 -0.0654,0.86 -0.0934,1.7294 -0.1308,2.5891 -0.0654,1.421 0.6538,2.534 1.4664,3.599 0.327,0.43 0.7379,0.673 1.289,0.73 0.9714,0.093 1.9241,0.149 2.8862,-0.113 1.3824,-0.383 2.7461,-0.757 3.895,-1.692 0.3923,-0.317 0.8686,-0.532 1.2796,-0.832 0.4483,-0.317 0.878,-0.673 1.4571,-1.131 z"
       fill=""
       id="path1"
       style="fill:#e4aca8;fill-opacity:1" />
    <path
       fill-rule="evenodd"
       clip-rule="evenodd"
       d="m 53.4364,134.006 c 0.0373,0.449 0.1307,0.673 0.0654,0.804 -0.878,1.729 -1.7747,3.44 -2.6714,5.16 -0.0934,0.178 -0.2055,0.355 -0.3363,0.514 -1.373,1.655 -2.662,3.375 -4.418,4.665 -0.1214,0.093 -0.2428,0.187 -0.3549,0.29 -3.512,3.337 -7.9207,4.767 -12.4788,5.87 -0.5978,0.141 -1.2143,0.197 -1.8027,-0.084 -0.4764,-0.234 -0.5698,-0.879 -0.1027,-1.103 0.8686,-0.421 1.7746,-0.785 2.6713,-1.131 1.7093,-0.673 3.4373,-1.309 5.1466,-1.982 0.523,-0.206 1.0368,-0.449 1.4944,-0.766 2.2231,-1.552 4.4181,-3.141 6.2301,-5.189 1.9241,-2.187 3.8856,-4.347 5.8378,-6.506 0.1307,-0.14 0.3175,-0.234 0.7192,-0.523 z"
       fill=""
       id="path2"
       style="fill:#e4aca8;fill-opacity:1" />
    <path
       fill-rule="evenodd"
       clip-rule="evenodd"
       d="m 46.5431,48.3394 c 0.1962,0.0654 0.6912,0.187 1.1395,0.4207 0.4951,0.2524 0.9808,0.5609 1.4011,0.9254 1.317,1.1312 2.6153,2.2903 3.8856,3.4776 0.411,0.3739 0.7472,0.8506 1.0461,1.3181 1.5879,2.4585 2.9329,5.0386 3.7082,7.8805 0.3082,1.1217 0.439,2.2996 0.6445,3.4588 0.056,0.3272 0,0.6263 -0.355,0.7478 -0.3549,0.1216 -0.5977,-0.0747 -0.7379,-0.3739 -0.6538,-1.4396 -1.3543,-2.8605 -1.9334,-4.3375 -0.6725,-1.7201 -1.4665,-3.3747 -2.3631,-4.9826 -0.6259,-1.1218 -1.3731,-2.1407 -2.3258,-3.0195 -1.4291,-1.3181 -2.8115,-2.6829 -4.446,-3.7486 -0.2149,-0.1402 -0.411,-0.3085 -0.5978,-0.4767 -0.4764,-0.402 -0.6445,-0.7572 -0.4951,-1.0096 0.1495,-0.2618 0.5138,-0.3553 1.4291,-0.2618 z"
       fill=""
       id="path3"
       style="fill:#e4aca8;fill-opacity:1" />
    <path
       fill-rule="evenodd"
       clip-rule="evenodd"
       d="m 63.2719,50.7605 c 0.028,-0.2898 0.0467,-0.4393 0.0653,-0.5889 0.1868,-1.8603 1.5038,-2.2903 2.7088,-2.2716 0.2522,0 0.5043,0.0374 0.7565,0.0748 2.0362,0.2617 3.0637,1.8509 2.5033,3.8421 -0.0281,0.0935 -0.0841,0.1869 -0.0934,0.2898 -0.1588,1.7294 -1.4665,2.2342 -2.8395,2.524 -1.5225,0.3272 -2.9142,-0.9162 -3.101,-2.6362 -0.0467,-0.4487 0,-0.9161 0,-1.234 z"
       fill=""
       id="path4"
       style="fill:#e4aca8;fill-opacity:1" />
    <path
       fill-rule="evenodd"
       clip-rule="evenodd"
       d="m 57.9851,142.307 c -0.0467,-1.327 -1.3076,-2.29 -2.5686,-2.197 -1.3076,0.084 -2.223,1.384 -2.5312,2.543 -0.355,1.355 0.1401,2.636 1.373,3.319 1.0928,0.598 2.4098,-0.028 3.073,-0.954 0.4577,-0.636 0.6912,-1.449 0.6258,-2.225 0.0187,-0.159 0.028,-0.327 0.028,-0.486 z"
       fill=""
       id="path5"
       style="fill:#e4aca8;fill-opacity:1" />
    <path
       d="m 30.6925,81.4788 c -4.007,-2.496 -3.2878,-30.5218 -10.3492,-27.0349 -5.4361,2.6829 -2.5593,12.1246 -1.1489,16.3125 1.0462,3.113 4.6235,12.1433 9.2564,12.2835 0.5231,0.402 1.1395,0.6544 1.8774,0.6544 1.3077,0 1.2143,-1.692 0.3643,-2.2155 z"
       fill=""
       id="path6"
       style="fill:#e4aca8;fill-opacity:1" />
    <path
       d="m 25.8447,90.3969 c 1.5692,-0.3085 1.3077,-2.3744 -0.2428,-2.4212 -0.1401,0 -0.2896,-0.0093 -0.439,-0.0187 C 18.5032,84.3673 14.7577,78.6649 9.58309,73.3645 6.33263,70.0272 1.69044,67.9426 0.270698,73.8693 -2.54077,85.5732 17.3917,92.0515 25.8447,90.3969 Z"
       fill=""
       id="path7"
       style="fill:#e4aca8;fill-opacity:1" />
    <path
       d="m 27.6007,94.5942 c -0.3549,-0.0374 -0.7098,-0.0187 -1.0554,0.0374 -0.028,0 -0.0561,-0.0281 -0.0934,-0.0374 -5.8938,-0.5703 -12.3574,3.0568 -16.86881,6.6838 -2.59664,2.094 -6.66906,7.656 -2.15764,10.218 3.17575,1.804 6.93995,-2.739 8.84535,-4.665 3.3159,-3.365 6.7625,-8.7406 11.5354,-10.04 1.0929,-0.2992 0.8687,-2.0847 -0.2241,-2.1968 z"
       fill=""
       id="path8"
       style="fill:#e4aca8;fill-opacity:1" />
    <path
       d="m 145.822,11.4606 c -2.054,-5.35648 -9.611,-4.12252 -13.637,-2.32767 -1.074,0.47675 -9.097,4.66477 -11.329,7.60937 -0.486,0.2337 -0.944,0.5703 -1.374,1.019 -1.812,0.2337 -3.614,0.4487 -5.426,0.5983 2.148,-1.0003 4.063,-2.5053 5.697,-4.3189 1.28,-1.4116 4.773,-5.07604 3.008,-7.17003 -2.083,-2.46792 -6.65,0.43936 -8.35,1.97246 -3.494,3.13167 -5.296,7.78707 -9.836,9.56317 -1.625,-0.1402 -3.232,-0.3646 -4.8288,-0.6263 2.9328,-1.9725 5.5018,-5.2069 5.8008,-7.4131 0.448,-3.33731 -3.494,-3.60841 -5.6981,-2.48663 -3.7641,1.90703 -5.2679,7.11393 -9.5645,8.07683 -1.1115,-0.215 -2.2137,-0.43 -3.3346,-0.6076 -0.7659,-0.1309 -1.5411,-0.2337 -2.3164,-0.3366 1.8494,-0.7385 3.54,-1.7855 4.9317,-3.3279 1.0088,-1.1218 3.2505,-4.25344 0.8967,-5.27239 -2.4939,-1.07504 -5.0345,1.22461 -6.6223,2.83249 -1.1582,1.1685 -2.2884,2.3557 -3.456,3.5243 -0.439,0.4393 -1.0555,1.1591 -1.728,1.5985 -0.1868,0.0467 -0.3736,0.1028 -0.5697,0.1589 -3.0543,-0.0561 -6.1273,0.1309 -9.1536,0.5422 1.2889,-1.1311 2.5779,-2.2716 3.7642,-3.5056 1.3543,-1.4115 4.0724,-4.98252 0.7659,-6.01082 -3.3719,-1.047 -9.0602,6.51562 -9.2097,10.30172 -0.1027,0.0093 -0.2055,0.056 -0.2895,0.1215 -2.2044,0.5048 -4.3807,1.1311 -6.4916,1.9164 -0.0747,0.028 -0.1401,0.056 -0.2148,0.0841 2.1109,-2.6455 3.4933,-5.5341 1.7653,-9.11447 -0.1868,-0.38328 -0.6725,-0.5235 -1.0555,-0.43002 -3.5306,0.89743 -8.7986,8.53489 -7.2948,12.71349 -3.017,1.7668 -5.8658,3.9076 -8.4531,6.282 0.8219,-1.9538 1.2609,-3.9823 1.1862,-6.3474 -0.056,-1.7575 -0.8967,-4.7582 -3.2878,-3.7112 -2.9329,1.29 -3.3065,4.5993 -3.456,7.4224 -0.0934,1.692 0,4.7021 1.1396,6.5437 -0.0094,0.1029 0,0.215 0.028,0.3272 0.028,0.0841 0.0654,0.1589 0.0934,0.2337 -0.7005,0.8227 -1.3917,1.664 -2.0269,2.5147 -0.8032,1.075 -1.5692,2.1874 -2.279,3.3186 0.0093,-2.5053 -0.1962,-4.9919 -1.2516,-7.3103 -0.8687,-1.8977 -3.7082,-3.8982 -4.7823,-1.0096 -1.0929,2.9634 0.6818,9.5725 4.035,11.6011 0,0.0561 0,0.1122 0,0.1589 0,0.0374 0.0094,0.0748 0.0187,0.1122 -0.8126,1.7013 -1.4664,3.4775 -1.8681,5.3565 -0.6164,2.8886 -1.0087,7.9085 1.1489,10.311 0.4764,0.5329 1.2796,0.0841 1.317,-0.5422 0,-0.1122 0.0093,-0.2337 0.0187,-0.3459 0.0186,-0.3178 -0.1215,-0.5141 -0.3269,-0.6076 -1.4104,-4.1599 -0.4577,-8.5349 1.5224,-12.6107 0.6819,0.7479 1.9896,1.1031 2.8489,1.3088 2.5219,0.5982 6.0993,0.6356 8.1728,-1.1686 0.7473,-0.645 0.9808,-1.8696 0.5418,-2.739 -0.6072,-1.2246 -1.9428,-1.5518 -3.1851,-1.7013 -1.9522,-0.2337 -5.5669,0.3739 -7.0333,2.2248 0,-0.0374 -0.0187,-0.0654 -0.0281,-0.1028 0,-0.0654 -0.0186,-0.1309 -0.0373,-0.1963 1.4571,-2.4586 3.2131,-4.7676 4.9597,-6.7681 2.0176,1.0564 5.0812,1.234 6.7251,1.3835 2.4752,0.215 7.9207,0.5422 8.6119,-2.7764 0.8873,-4.2534 -7.1081,-3.4494 -12.0491,-2.0566 2.2417,-2.1594 4.6795,-4.0664 7.2668,-5.7117 1.0088,1.4303 3.2785,2.6175 4.3433,3.1223 2.5873,1.2433 5.6883,1.7948 8.4998,1.0657 0.4016,-0.1028 0.6912,-0.4955 0.6912,-0.9068 -0.0187,-5.048 -5.4829,-5.8893 -9.8262,-5.3845 3.1478,-1.6079 6.473,-2.8699 9.9382,-3.7486 0.8127,1.72 2.2978,3.3092 3.5587,4.5338 1.2984,1.262 3.6802,3.2532 5.5669,2.0099 2.0456,-1.3462 1.2236,-4.5713 -0.3269,-5.9081 -0.8406,-0.7198 -2.1576,-1.3274 -3.54,-1.6639 2.8955,-0.3833 5.7537,-0.4768 8.5932,-0.3646 0.2802,2.2529 1.784,4.6928 2.8114,6.4409 0.9901,1.6826 3.1197,5.2536 5.5669,4.6554 2.9703,-0.7199 2.0923,-4.992 0.7286,-6.7214 -1.2329,-1.5705 -3.2505,-3.169 -5.3708,-4.1132 3.0637,0.2898 6.1087,0.7666 9.1817,1.3088 0.5511,3.1129 3.129,6.1978 4.9784,8.5348 1.3824,1.7482 4.8946,6.1137 7.5656,4.188 4.073,-2.9353 -1.466,-8.3666 -6.6222,-11.6384 0.1308,0.028 0.2709,0.0467 0.4016,0.0747 3.4096,0.6264 6.9776,1.1405 10.5546,1.3088 0.523,3.6925 4.044,6.9083 7.005,8.6844 3.746,2.2529 8.491,2.7951 12.423,0.7853 0.43,-0.2244 0.589,-0.7572 0.486,-1.1966 -0.841,-3.6271 -4.315,-5.5715 -7.407,-7.1046 -1.13,-0.5609 -2.354,-1.1966 -3.577,-1.5892 2.344,-0.3739 4.642,-0.9909 6.837,-1.9257 2.568,-0.0654 5.081,0.2898 7.743,0.3833 1.859,0.0654 4.147,-0.8601 5.912,-1.3275 2.233,-0.5983 10.34,-2.6642 8.846,-6.5717 z"
       fill=""
       id="path9"
       style="fill:#e4aca8;fill-opacity:1" />
    <path
       d="m 139.845,23.4172 c -1,-0.6918 -2.326,-0.5422 -3.335,0.0468 -1.102,0.645 -1.747,1.8602 -1.55,3.1222 0.224,1.5051 1.597,2.3277 3.026,2.309 0.187,0 0.364,-0.0187 0.551,-0.0561 1.13,-0.0747 2.204,-0.7945 2.503,-1.9818 0.318,-1.262 -0.121,-2.6922 -1.195,-3.4401 z"
       fill=""
       id="path10"
       style="fill:#e4aca8;fill-opacity:1" />
    <path
       d="m 94.6557,3.18759 c 0.0467,0.51415 0.4296,1.06569 1.0088,1.0096 0.2054,-0.0187 0.4109,-0.03739 0.6071,-0.05609 0.2989,0.05609 0.5978,0.07479 0.8873,0 C 98.149,3.89805 98.616,2.84171 98.7468,1.92559 98.8215,1.43948 98.6347,0.934681 98.2424,0.700977 98.2237,0.654236 98.1957,0.598147 98.177,0.551406 98.0089,0.205524 97.5699,-0.0188324 97.2056,-0.00948428 96.2903,0.00921206 95.1974,0.252264 94.7398,1.14034 94.4876,1.63579 94.4782,2.14059 94.637,2.608 c 0,0.18697 0,0.37393 0.0187,0.56089 z"
       fill=""
       id="path11"
       style="fill:#e4aca8;fill-opacity:1" />
    <path
       d="m 60.9274,34.9339 c 0,0 -0.0281,-0.0187 -0.0374,-0.028 -1.2983,-0.7759 -3.2785,-0.5142 -3.8856,0.9815 -0.8593,2.122 2.4845,4.5339 4.2779,3.2158 0.4297,-0.3179 1.0181,-0.6824 1.2983,-1.2714 0.2802,-0.5983 0.2709,-1.2526 -0.0747,-1.8229 -0.3456,-0.5609 -0.934,-0.9348 -1.5785,-1.0844 z"
       fill=""
       id="path12"
       style="fill:#e4aca8;fill-opacity:1" />
    <path
       d="m 26.4893,43.4408 c -0.0373,-0.2056 -0.1401,-0.43 -0.2895,-0.645 -0.2989,-0.645 -0.7286,-1.1872 -1.2797,-1.5238 -0.8873,-0.5422 -1.8027,-0.243 -2.5219,0.215 -0.1214,0.0374 -0.2335,0.0748 -0.3456,0.1309 -0.7098,0.3459 -1.1395,1.0844 -1.3263,1.8323 -0.4203,1.7013 0.383,3.5803 2.0455,4.216 1.205,0.4674 2.5033,0.243 3.2879,-0.832 0.5791,-0.8039 0.7098,-1.9444 0.4857,-3.0195 -0.0094,-0.1308 -0.028,-0.2524 -0.0467,-0.3645 z"
       fill=""
       id="path13"
       style="fill:#e4aca8;fill-opacity:1" />
    <path
       fill-rule="evenodd"
       clip-rule="evenodd"
       d="m 47.5519,176.961 c -0.0187,-1.758 -0.0467,-3.786 -0.0373,-5.815 0,-0.421 0.112,-0.841 0.2148,-1.253 0.6351,-2.589 1.2329,-5.188 1.4944,-7.852 0.0561,-0.58 0.2616,-1.14 0.439,-1.701 0.3456,-1.066 0.7099,-2.122 1.0742,-3.188 0.1027,-0.299 0.1681,-0.654 0.3643,-0.869 0.3829,-0.43 0.4109,-0.973 0.6258,-1.449 0.3736,-0.823 0.8033,-1.618 1.2423,-2.403 0.1401,-0.262 0.6818,-0.224 0.8219,0.047 0.1214,0.234 0.2335,0.486 0.2802,0.738 0.3456,1.767 0.7379,3.534 0.9901,5.319 0.3363,2.375 0.5978,4.768 0.7939,7.161 0.1308,1.533 0.0841,3.085 0.1495,4.637 0.0373,1.009 0.0841,2.028 0.2242,3.029 0.1774,1.29 0.1214,2.552 -0.1215,3.814 -0.1681,0.888 -0.3456,1.785 -0.4576,2.683 -0.1775,1.402 -0.9341,2.486 -1.8868,3.44 -0.8967,0.897 -2.5126,0.925 -3.5213,0.093 -1.0182,-0.841 -1.728,-1.897 -2.0363,-3.178 -0.2335,-0.982 -0.4016,-1.982 -0.6631,-3.253 z"
       fill=""
       id="path14"
       style="fill:#e4aca8;fill-opacity:1" />
    <path
       fill-rule="evenodd"
       clip-rule="evenodd"
       d="m 60.7406,165.547 c 0.7379,-0.047 1.0181,0.29 1.2796,0.617 0.6725,0.86 1.5505,1.439 2.5033,1.954 0.934,0.514 1.8307,1.103 2.7647,1.617 0.6539,0.355 1.3264,0.71 2.0362,0.935 0.5885,0.177 0.9901,0.561 1.4665,0.906 1.5785,1.141 1.8587,2.777 1.8867,4.534 0.0094,0.823 -0.3736,1.318 -1.1675,1.477 -1.3357,0.271 -2.634,0.253 -3.895,-0.392 -1.5038,-0.767 -2.8208,-1.73 -3.7081,-3.197 -0.6071,-1.001 -1.2983,-1.982 -1.728,-3.057 -0.523,-1.318 -0.8313,-2.721 -1.2983,-4.067 -0.1308,-0.383 -0.0841,-0.822 -0.1214,-1.318 z"
       fill=""
       id="path15"
       style="fill:#e4aca8;fill-opacity:1" />
    <path
       fill-rule="evenodd"
       clip-rule="evenodd"
       d="m 44.1707,169.968 c 0.5324,0.15 0.6632,0.514 0.6351,0.888 -0.028,0.365 -0.112,0.748 -0.2708,1.066 -1.0275,1.982 -2.0736,3.964 -3.1384,5.927 -0.6445,1.196 -1.5692,2.131 -2.7274,2.851 -1.3824,0.851 -2.8115,0.897 -4.2873,0.318 -0.3455,-0.131 -0.6725,-0.337 -0.9527,-0.57 -0.6818,-0.58 -0.8967,-1.337 -0.5511,-2.151 0.2055,-0.476 0.5044,-0.953 0.8687,-1.318 1.5412,-1.561 3.2598,-2.888 5.3427,-3.673 0.5418,-0.206 1.0555,-0.515 1.5318,-0.851 0.6539,-0.449 1.2517,-0.954 2.0456,-1.206 0.3736,-0.112 0.6445,-0.524 0.9621,-0.804 0.1961,-0.168 0.3829,-0.346 0.5324,-0.477 z"
       fill=""
       id="path16"
       style="fill:#e4aca8;fill-opacity:1" />
  </g>
</svg>
