<?xml version="1.0" encoding="UTF-8" standalone="no"?>
<svg
   viewBox="0 0 500 500"
   width="500"
   height="500"
   preserveAspectRatio="xMidYMid meet"
   style="width: 100%; height: 100%; transform: translate3d(0px, 0px, 0px);"
   version="1.1"
   id="svg3"
   sodipodi:docname="coracao.svg"
   inkscape:version="1.4.2 (1:1.4.2+202505120738+ebf0e940d0)"
   xmlns:inkscape="http://www.inkscape.org/namespaces/inkscape"
   xmlns:sodipodi="http://sodipodi.sourceforge.net/DTD/sodipodi-0.dtd"
   xmlns="http://www.w3.org/2000/svg"
   xmlns:svg="http://www.w3.org/2000/svg">
  <sodipodi:namedview
     id="namedview3"
     pagecolor="#ffffff"
     bordercolor="#000000"
     borderopacity="0.25"
     inkscape:showpageshadow="2"
     inkscape:pageopacity="0.0"
     inkscape:pagecheckerboard="0"
     inkscape:deskcolor="#d1d1d1"
     inkscape:zoom="0.904"
     inkscape:cx="249.4469"
     inkscape:cy="250"
     inkscape:window-width="1366"
     inkscape:window-height="657"
     inkscape:window-x="0"
     inkscape:window-y="27"
     inkscape:window-maximized="1"
     inkscape:current-layer="svg3" />
  <defs
     id="defs1">
    <clipPath
       id="__lottie_element_282">
      <rect
         width="500"
         height="500"
         x="0"
         y="0"
         id="rect1" />
    </clipPath>
  </defs>
  <g
     clip-path="url(#__lottie_element_282)"
     id="g3"
     style="fill:#e4aca8;fill-opacity:1">
    <g
       transform="matrix(0.9201714992523193,0,0,0.9201714992523193,19.957122802734375,19.957122802734375)"
       opacity="1"
       style="display:block;fill:#e4aca8;fill-opacity:1"
       id="g2">
      <g
         opacity="1"
         transform="matrix(1,0,0,1,244.0449981689453,264.90899658203125)"
         id="g1"
         style="fill:#e4aca8;fill-opacity:1">
        <path
           fill="rgb(232,139,26)"
           fill-opacity="1"
           d=" M3.9609999656677246,159.66200256347656 C-2.7139999866485596,148.53500366210938 -9.232999801635742,137.66099548339844 -15.76200008392334,126.79299926757812 C-17.67300033569336,123.60900115966797 -19.868999481201172,120.58699798583984 -21.45599937438965,117.25199890136719 C-52.9109992980957,51.428001403808594 -91.58100128173828,-10.857999801635742 -117.7490005493164,-79.32099914550781 C-125.51899719238281,-99.66000366210938 -128.99400329589844,-120.197998046875 -127.40799713134766,-141.76800537109375 C-126.4520034790039,-154.94000244140625 -121.60099792480469,-160.08799743652344 -108.49800109863281,-160.60699462890625 C-92.47100067138672,-161.24899291992188 -77.41000366210938,-158.04800415039062 -63.47100067138672,-149.35499572753906 C-34.790000915527344,-131.4759979248047 -10.447999954223633,-109.26599884033203 7.484000205993652,-80.62200164794922 C16.566999435424805,-79.7040023803711 17.975000381469727,-87.51799774169922 20.85099983215332,-92.5199966430664 C31.218000411987305,-110.57599639892578 45.2859992980957,-124.66100311279297 62.20399856567383,-136.6840057373047 C76.05599975585938,-146.5279998779297 91.02100372314453,-148.38299560546875 107.03199768066406,-147.38499450683594 C115.30500030517578,-146.86700439453125 120.58799743652344,-142.6739959716797 123.24199676513672,-134.6490020751953 C128.9949951171875,-117.27899932861328 128.42300415039062,-99.90799713134766 122.63099670410156,-82.86100006103516 C115.49199676513672,-61.85300064086914 108.20800018310547,-40.87200164794922 99.89099884033203,-20.316999435424805 C84.64700317382812,17.381999969482422 68.94999694824219,54.77899932861328 46.70000076293945,89.28800201416016 C34.77399826049805,107.78199768066406 27.014999389648438,128.95700073242188 17.350000381469727,148.92300415039062 C14.543999671936035,154.72000122070312 12.26099967956543,161.24899291992188 3.9609999656677246,159.66200256347656z"
           id="path1"
           style="fill:#e4aca8;fill-opacity:1" />
      </g>
    </g>
  </g>
</svg>
