<?xml version="1.0" encoding="UTF-8" standalone="no"?>
<!-- Created with Inkscape (http://www.inkscape.org/) -->

<svg
   viewBox="0 0 180 50"
   width="180"
   height="50"
   preserveAspectRatio="xMidYMid meet"
   style="width: 100%;height: 100%;transform: translate3d(0px, 0px, 0px);"
   version="1.1"
   id="svg15"
   sodipodi:docname="coroa baixa.svg"
   inkscape:version="1.4.2 (1:1.4.2+202505120738+ebf0e940d0)"
   xmlns:inkscape="http://www.inkscape.org/namespaces/inkscape"
   xmlns:sodipodi="http://sodipodi.sourceforge.net/DTD/sodipodi-0.dtd"
   xmlns:xlink="http://www.w3.org/1999/xlink"
   xmlns="http://www.w3.org/2000/svg"
   xmlns:svg="http://www.w3.org/2000/svg">
  <sodipodi:namedview
     id="namedview15"
     pagecolor="#ffffff"
     bordercolor="#000000"
     borderopacity="0.25"
     inkscape:showpageshadow="2"
     inkscape:pageopacity="0.0"
     inkscape:pagecheckerboard="0"
     inkscape:deskcolor="#d1d1d1"
     inkscape:zoom="3.3861111"
     inkscape:cx="69.401149"
     inkscape:cy="19.196062"
     inkscape:window-width="1366"
     inkscape:window-height="657"
     inkscape:window-x="0"
     inkscape:window-y="27"
     inkscape:window-maximized="1"
     inkscape:current-layer="svg15" />
  <defs
     id="defs1">
    <pattern
       inkscape:collect="always"
       xlink:href="#pattern6-7"
       preserveAspectRatio="xMidYMid"
       id="pattern5"
       patternTransform="translate(190,350)" />
    <pattern
       patternUnits="userSpaceOnUse"
       width="29"
       height="20"
       patternTransform="translate(190,350)"
       preserveAspectRatio="xMidYMid"
       style="fill:#000000"
       id="pattern6-7"
       inkscape:label=""
       inkscape:collect="always"
       inkscape:isstock="true">
      <path
         style="fill:none;stroke:#000000;stroke-width:10;stroke-linecap:butt;stroke-dasharray:none;paint-order:stroke markers fill;stop-color:#000000"
         d="M 0,5 C 19,5 10,15 29,15"
         id="path4-2"
         sodipodi:nodetypes="cc" />
    </pattern>
    <linearGradient
       id="swatch1"
       inkscape:swatch="solid">
      <stop
         style="stop-color:#000000;stop-opacity:1;"
         offset="0"
         id="stop1" />
    </linearGradient>
    <clipPath
       id="__lottie_element_47">
      <rect
         width="180"
         height="50"
         x="0"
         y="0"
         id="rect1" />
    </clipPath>
    <linearGradient
       inkscape:collect="always"
       xlink:href="#swatch1"
       id="linearGradient1"
       x1="-29.677736"
       y1="1.0071341"
       x2="30.721001"
       y2="1.0071341"
       gradientUnits="userSpaceOnUse" />
  </defs>
  <g
     opacity="1"
     style="display:inline;fill:none;fill-opacity:1;stroke:#e4aca8;stroke-opacity:1"
     id="g2"
     transform="translate(0.1985,0.08050017)">
    <g
       opacity="1"
       transform="translate(147.603,9.8389997)"
       id="g1"
       style="fill:none;fill-opacity:1;stroke:#e4aca8;stroke-opacity:1">
      <path
         stroke-linecap="round"
         stroke-linejoin="miter"
         fill-opacity="0"
         stroke-miterlimit="10"
         stroke="#ea9333"
         stroke-opacity="1"
         stroke-width="3"
         d="m -30.721001,-2.9820001 c 0,0 21.2200006,2.53800009 41.554001,-2.9069998 0,0 17.555,-4.3330001 18.777001,5.6669999 0,0 1.111,7.5550002 -5.666001,8.7779998 0,0 -7.889,1.6660002 -8.778,-3.112 0,0 -0.111,-3.9999998 4.667,-2.1109999"
         id="path1"
         style="fill:none;fill-opacity:1;stroke:#e4aca8;stroke-opacity:1" />
    </g>
  </g>
  <g
     opacity="1"
     style="display:inline;fill-opacity:1;stroke:#e4aca8;stroke-opacity:1;fill:none"
     id="g4"
     transform="translate(32.1985,9.9194999)"><g
   opacity="1"
   id="g3"
   style="fill-opacity:1;stroke:#e4aca8;stroke-opacity:1;fill:none" />

transform=&quot;matrix(1,0,0,1,32.499000549316406,9.83899974822998)&quot;&gt;

<path
   stroke-linecap="round"
   stroke-linejoin="miter"
   fill-opacity="0"
   stroke-miterlimit="10"
   stroke-opacity="1"
   stroke-width="3"
   d="m 30.721001,-2.9820001 c 0,0 -21.2200006,2.53800009 -41.554001,-2.9069998 0,0 -17.555,-4.3330001 -18.777001,5.6669999 0,0 -1.111,7.5550002 5.666001,8.7779998 0,0 7.889,1.6660002 8.778,-3.112 0,0 0.09,-3.2609997 -3.409001,-2.5039997"
   id="path3"
   style="fill-opacity:1;stroke:#e4aca8;stroke-opacity:1;fill:none" />
</g>
  <g
     opacity="1"
     style="display:block;fill:#e4aca8;fill-opacity:1"
     id="g7">
    <g
       opacity="1"
       transform="translate(109.053,32.754002)"
       id="g6"
       style="fill:#e4aca8;fill-opacity:1">
      <path
         fill="#ea9333"
         fill-opacity="1"
         d="m -6.5209999,-10.837 c 0.27,0 0.3340001,-0.019 0.3689999,0.004 3.3380001,2.2350004 6.372,4.7840002 8.5249999,8.2449999 C 2.928,-1.697 3.527,-0.833 4.0749998,0.061 c 1.1400004,1.855 1.8320003,3.893 2.27,6.005 0.177,0.8590002 0.1590004,1.782 0.089,2.6639995 C 6.3169999,10.206 5.1880002,10.856 3.8629999,10.217 2.527,9.5719995 1.33,8.7209997 0.53799999,7.415 -1.313,4.3610001 -3.0739999,1.281 -3.984,-2.2320001 c -0.5379998,-2.076 -1.3690002,-4.076 -2.0579998,-6.1119998 -0.1500001,-0.4460001 -0.2820001,-0.9000005 -0.375,-1.3600006 -0.072,-0.3499995 -0.069,-0.7149995 -0.1040001,-1.1329995 z m 11.059,19.0599996 C 4.4699998,7.4759998 4.4720001,7.0029998 4.3769999,6.5510001 3.9990001,4.7459998 3.484,2.973 2.5209999,1.3890001 1.568,-0.17900001 0.542,-1.709 -0.514,-3.211 -1.046,-3.9679999 -1.6390001,-4.7080002 -2.652,-5.3369999 -2.322,-4.243 -2.006,-3.3610001 -1.794,-2.454 c 0.7519999,3.22600001 2.46900001,6 4.083,8.8239999 0.4530001,0.7930002 1.145,1.3239999 2.2490001,1.8529997 z"
         id="path5"
         style="fill:#e4aca8;fill-opacity:1" />
    </g>
  </g>
  <g
     transform="translate(1)"
     opacity="1"
     style="display:block;fill:#e4aca8;fill-opacity:1"
     id="g9">
    <g
       opacity="1"
       transform="translate(70.946999,32.754002)"
       id="g8"
       style="fill:#e4aca8;fill-opacity:1">
      <path
         fill="#ea9333"
         fill-opacity="1"
         d="m 6.4180002,-9.7030001 c -0.093,0.4589997 -0.2260003,0.9140005 -0.3760004,1.3590002 C 5.3530002,-6.3070002 4.5229998,-4.3080001 3.9849999,-2.233 3.0739999,1.281 1.313,4.3610001 -0.537,7.415 c -0.793,1.3070001 -1.989,2.158 -3.325,2.802 -1.3249998,0.64 -2.4549999,-0.011 -2.5710001,-1.4870005 -0.07,-0.8829994 -0.089,-1.8039994 0.089,-2.6629996 C -5.9060001,3.954 -5.2140002,1.915 -4.0749998,0.061 -3.526,-0.833 -2.927,-1.697 -2.3729999,-2.5880001 -0.219,-6.0489998 2.8139999,-8.5979996 6.151,-10.833 c 0.036,-0.024 0.1009999,-0.004 0.3709998,-0.004 -0.035,0.419 -0.033,0.784 -0.1039996,1.1339999 z m -8.7060003,16.073 C -0.67500001,3.5469999 1.0420001,0.77200001 1.794,-2.454 2.006,-3.3610001 2.323,-4.243 2.652,-5.3369999 1.6390001,-4.7080002 1.046,-3.9679999 0.51300001,-3.21 -0.54299998,-1.7079999 -1.567,-0.17900001 -2.5209999,1.39 c -0.9630001,1.584 -1.477,3.3549999 -1.856,5.1600002 -0.094,0.4529996 -0.092,0.9259996 -0.1600003,1.6719999 C -3.434,7.6929998 -2.7420001,7.164 -2.2880001,6.3699999 Z"
         id="path7"
         style="fill:#e4aca8;fill-opacity:1" />
    </g>
  </g>
  <g
     opacity="1"
     style="display:block;fill:#e4aca8;fill-opacity:1"
     id="g11">
    <g
       opacity="1"
       transform="translate(124.423,18.445)"
       id="g10"
       style="fill:#e4aca8;fill-opacity:1">
      <path
         fill="#ea9333"
         fill-opacity="1"
         d="m -22.684,-8.4809999 c 0.198,-0.6739998 0.684,-0.9010001 1.218,-0.9029999 0.779999,-0.003 1.573,0.04 2.338999,0.1809997 3.820001,0.705 7.628001,1.4850002 11.4530012,2.1610003 1.4449997,0.2549996 2.9229999,0.3279996 4.3899999,0.4389996 2.30499993,0.1740003 4.6169998,0.263 6.918,0.4720002 3.3469998,0.3039999 6.7139999,0.48 10.0119999,1.1760001 2.064,0.4349999 4,1.2809999 5.882,2.2089998 0.735,0.362 1.392,0.9470001 1.974001,1.5370001 0.896999,0.91099999 1.181999,2.03700001 1.007,3.3349999 -0.336001,2.5030003 -1.808001,4.119 -4,5.0679999 C 16.289,8.1540003 13.948,8.7119999 11.518,8.9790001 7.8049998,9.3870001 4.1750002,8.9560003 0.56099999,8.2019997 -0.77399999,7.9239998 -2.0780001,7.5040002 -3.405,7.1820002 -5.4229999,6.6919999 -7.2449999,5.7779999 -8.9899998,4.6820002 -11.982,2.803 -14.669,0.52200001 -17.367001,-1.74 c -1.008998,-0.846 -1.795,-1.891 -2.507,-3.0140002 -0.699998,-1.105 -1.569999,-2.1019997 -2.366998,-3.145 C -22.396,-8.1040001 -22.552,-8.3079996 -22.684,-8.4809999 Z"
         id="path9"
         style="fill:#e4aca8;fill-opacity:1" />
    </g>
  </g>
  <g
     opacity="1"
     style="display:block;fill:#e4aca8;fill-opacity:1"
     id="g13">
    <g
       opacity="1"
       transform="translate(89.694,28.767)"
       id="g12"
       style="fill:#e4aca8;fill-opacity:1">
      <path
         fill="#ea9333"
         fill-opacity="1"
         d="m 1.763,-20.171 c -0.1929999,0.075 -0.332,0.083 -0.3689999,0.149001 C 0.602,-18.601 -0.184,-17.177 -0.95899999,-15.747 -1.26,-15.193 -1.508,-14.61 -1.8200001,-14.062 -2.891,-12.18 -3.7249999,-10.2 -4.3899999,-8.1429996 -4.4219999,-8.0430002 -4.454,-7.941 -4.494,-7.8439999 -6.2930002,-3.4330001 -7.2010002,1.21 -8.0360003,5.868 -8.4280005,8.0530005 -8.427,10.27 -8.1750002,12.473 c 0.178,1.55 0.7640004,2.955 1.8990002,4.069 0.783,0.769001 1.4520001,1.674 2.483,2.163999 C -0.70499998,20.171 2.723,19.834 5.1900001,16.563999 6.4650002,14.873 7.3610001,13.001 7.75,10.867 8.4280005,7.1529999 8.3999996,3.4349999 8.0109997,-0.28799999 7.7540002,-2.743 7.4330001,-5.197 7.0009999,-7.6279998 6.5380001,-10.236 5.4439998,-12.618 4.1339998,-14.924 3.335,-16.330999 2.7720001,-17.874001 2.1059999,-19.357 1.985,-19.625999 1.876,-19.900999 1.763,-20.171 Z"
         id="path11"
         style="fill:#e4aca8;fill-opacity:1" />
    </g>
  </g>
  <g
     opacity="1"
     style="display:block;fill:#e4aca8;fill-opacity:1"
     id="g15">
    <g
       opacity="1"
       transform="translate(55.577,18.445)"
       id="g14"
       style="fill:#e4aca8;fill-opacity:1">
      <path
         fill="#ea9333"
         fill-opacity="1"
         d="M 22.684,-8.4809999 C 22.486,-9.1549997 22,-9.382 21.466,-9.3839998 c -0.779999,-0.003 -1.573,0.04 -2.338999,0.1809997 -3.820001,0.705 -7.628001,1.4850002 -11.4530012,2.1610003 -1.4449997,0.2549996 -2.9229999,0.3279996 -4.3899999,0.4389996 -2.30499993,0.1740003 -4.6169998,0.263 -6.918,0.4720002 -3.3469998,0.3039999 -6.7139999,0.48 -10.0119999,1.1760001 -2.064,0.4349999 -4,1.2809999 -5.882,2.2089998 -0.735,0.362 -1.392,0.9470001 -1.974001,1.5370001 -0.896999,0.91099999 -1.181999,2.03700001 -1.007,3.3349999 0.336001,2.5030003 1.808001,4.119 4,5.0679999 2.220001,0.9600005 4.561001,1.5180001 6.991001,1.7850003 3.7130002,0.408 7.3429998,-0.023 10.95700001,-0.7770004 C 0.77399999,7.9239998 2.0780001,7.5040002 3.405,7.1820002 5.4229999,6.6919999 7.2449999,5.7779999 8.9899998,4.6820002 11.982,2.803 14.669,0.52200001 17.367001,-1.74 c 1.008998,-0.846 1.795,-1.891 2.507,-3.0140002 0.699998,-1.105 1.569999,-2.1019997 2.366998,-3.145 C 22.396,-8.1040001 22.552,-8.3079996 22.684,-8.4809999 Z"
         id="path13"
         style="fill:#e4aca8;fill-opacity:1" />
    </g>
  </g>
</svg>
