<?xml version="1.0" encoding="UTF-8" standalone="no"?>
<svg
   viewBox="0 0 300 65"
   width="300"
   height="65"
   preserveAspectRatio="xMidYMid meet"
   style="width: 100%; height: 100%; transform: translate3d(0px, 0px, 0px);"
   version="1.1"
   id="svg6"
   sodipodi:docname="rodape.svg"
   inkscape:version="1.4.2 (1:1.4.2+202505120738+ebf0e940d0)"
   xmlns:inkscape="http://www.inkscape.org/namespaces/inkscape"
   xmlns:sodipodi="http://sodipodi.sourceforge.net/DTD/sodipodi-0.dtd"
   xmlns="http://www.w3.org/2000/svg"
   xmlns:svg="http://www.w3.org/2000/svg">
  <sodipodi:namedview
     id="namedview6"
     pagecolor="#ffffff"
     bordercolor="#000000"
     borderopacity="0.25"
     inkscape:showpageshadow="2"
     inkscape:pageopacity="0.0"
     inkscape:pagecheckerboard="0"
     inkscape:deskcolor="#d1d1d1"
     inkscape:zoom="4.0633333"
     inkscape:cx="150"
     inkscape:cy="32.485644"
     inkscape:window-width="1366"
     inkscape:window-height="657"
     inkscape:window-x="0"
     inkscape:window-y="27"
     inkscape:window-maximized="1"
     inkscape:current-layer="svg6" />
  <defs
     id="defs1">
    <clipPath
       id="__lottie_element_69">
      <rect
         width="300"
         height="65"
         x="0"
         y="0"
         id="rect1" />
    </clipPath>
  </defs>
  <g
     clip-path="url(#__lottie_element_69)"
     id="g6"
     style="fill:#e4aca8;fill-opacity:1">
    <g
       transform="matrix(1,0,0,1,0,0)"
       opacity="1"
       style="display:block;fill:#e4aca8;fill-opacity:1"
       id="g3">
      <g
         opacity="1"
         transform="matrix(1,0,0,1,64.3499984741211,35.20000076293945)"
         id="g1"
         style="fill:#e4aca8;fill-opacity:1">
        <path
           fill="rgb(233,139,25)"
           fill-opacity="1"
           d=" M29.350000381469727,-1.2999999523162842 C28.850000381469727,-1.600000023841858 28.350000381469727,-2 27.950000762939453,-2.299999952316284 C26.549999237060547,-3.4000000953674316 25.049999237060547,-4.400000095367432 23.649999618530273,-5.599999904632568 C20.350000381469727,-8.399999618530273 18.450000762939453,-12.100000381469727 17.25,-16.200000762939453 C16.649999618530273,-18.399999618530273 17.25,-20.399999618530273 18.350000381469727,-22.200000762939453 C19.25,-23.600000381469727 20.649999618530273,-24.100000381469727 22.149999618530273,-24.200000762939453 C23.350000381469727,-24.200000762939453 24.350000381469727,-23.600000381469727 25.049999237060547,-22.600000381469727 C25.950000762939453,-21.200000762939453 26.850000381469727,-19.799999237060547 27.649999618530273,-18.299999237060547 C28.950000762939453,-15.899999618530273 30.25,-13.399999618530273 31.549999237060547,-11 C31.950000762939453,-10.300000190734863 32.349998474121094,-9.5 32.54999923706055,-8.699999809265137 C32.75,-7.900000095367432 33.150001525878906,-7.099999904632568 33.650001525878906,-6.5 C34.95000076293945,-4.800000190734863 36.349998474121094,-3.200000047683716 38.04999923706055,-1.7999999523162842 C38.45000076293945,-1.399999976158142 38.95000076293945,-1.2000000476837158 39.45000076293945,-1.2000000476837158 C40.349998474121094,-1.100000023841858 41.25,-1.100000023841858 42.150001525878906,-1 C43.04999923706055,-0.8999999761581421 43.849998474121094,-1 44.650001525878906,-1.2999999523162842 C45.75,-1.600000023841858 46.849998474121094,-1.7999999523162842 48.04999923706055,-2.299999952316284 C47.54999923706055,-3 47.04999923706055,-3.299999952316284 46.54999923706055,-3.700000047683716 C44.45000076293945,-5.300000190734863 43.650001525878906,-7.699999809265137 43.45000076293945,-10.100000381469727 C43.25,-11.899999618530273 44.75,-12.899999618530273 46.45000076293945,-12.199999809265137 C47.04999923706055,-11.899999618530273 47.54999923706055,-11.5 48.04999923706055,-11.100000381469727 C49.650001525878906,-9.899999618530273 51.150001525878906,-8.699999809265137 52.75,-7.5 C53.349998474121094,-7 54.04999923706055,-6.800000190734863 54.75,-6.400000095367432 C56.45000076293945,-7.099999904632568 57.849998474121094,-7.900000095367432 58.95000076293945,-9.199999809265137 C59.25,-9.600000381469727 59.650001525878906,-9.899999618530273 59.95000076293945,-10.199999809265137 C60.45000076293945,-10.600000381469727 61.04999923706055,-10.5 61.45000076293945,-10.199999809265137 C61.95000076293945,-9.800000190734863 62.04999923706055,-9.100000381469727 61.75,-8.600000381469727 C61.54999923706055,-8.199999809265137 61.25,-7.900000095367432 60.95000076293945,-7.599999904632568 C59.95000076293945,-6.5 59.04999923706055,-5.5 58.04999923706055,-4.400000095367432 C56.150001525878906,-2.4000000953674316 53.849998474121094,-1 51.45000076293945,0.10000000149011612 C51.150001525878906,0.30000001192092896 50.75,0.4000000059604645 50.45000076293945,0.5 C50.25,1 50.150001525878906,1.5 49.849998474121094,2 C49.04999923706055,3.200000047683716 48.95000076293945,4.5 48.95000076293945,5.800000190734863 C49.04999923706055,9.100000381469727 47.75,11.899999618530273 46.04999923706055,14.600000381469727 C45.150001525878906,16 42.650001525878906,17.100000381469727 41.04999923706055,16.799999237060547 C40.04999923706055,16.600000381469727 39.45000076293945,16 39.150001525878906,15.100000381469727 C38.45000076293945,13 38.349998474121094,11 39.45000076293945,9 C40.54999923706055,7.099999904632568 41.75,5.199999809265137 42.95000076293945,3.299999952316284 C43.04999923706055,3.200000047683716 43.04999923706055,3.0999999046325684 43.150001525878906,2.9000000953674316 C42.849998474121094,2.5 42.349998474121094,2.700000047683716 42.04999923706055,2.799999952316284 C40.650001525878906,3 39.349998474121094,3.0999999046325684 37.95000076293945,3.299999952316284 C35.04999923706055,3.700000047683716 32.25,3.5 29.350000381469727,3.5 C28.850000381469727,3.5 28.25,3.4000000953674316 27.75,3.299999952316284 C26.450000762939453,3 25.149999618530273,2.9000000953674316 23.850000381469727,2.700000047683716 C22.649999618530273,2.5 21.649999618530273,2.799999952316284 20.649999618530273,3.5 C20.049999237060547,3.9000000953674316 19.350000381469727,4.300000190734863 18.75,4.800000190734863 C18.25,5.199999809265137 17.75,5.599999904632568 17.25,6.099999904632568 C16.649999618530273,6.699999809265137 16.149999618530273,7.400000095367432 15.75,8.100000381469727 C14.350000381469727,10.199999809265137 12.649999618530273,12 10.850000381469727,13.600000381469727 C7.75,16.299999237060547 4.050000190734863,17.5 -0.05000000074505806,17.5 C-1.850000023841858,17.5 -2.450000047683716,16.899999618530273 -3.049999952316284,15.199999809265137 C-3.549999952316284,13.600000381469727 -3.549999952316284,12.100000381469727 -2.8499999046325684,10.5 C-1.850000023841858,8.100000381469727 -0.15000000596046448,6.300000190734863 2.049999952316284,4.900000095367432 C4.349999904632568,3.5 6.650000095367432,2.0999999046325684 9.25,1.5 C9.25,1.100000023841858 8.949999809265137,1.100000023841858 8.75,1 C5.75,0.5 2.75,0 -0.25,-0.6000000238418579 C-1.25,-0.800000011920929 -2.1500000953674316,-0.699999988079071 -3.049999952316284,-0.4000000059604645 C-4.949999809265137,0.10000000149011612 -6.75,0.6000000238418579 -8.350000381469727,1.7000000476837158 C-8.350000381469727,1.7000000476837158 -8.449999809265137,1.7999999523162842 -8.550000190734863,1.7999999523162842 C-11.649999618530273,2.9000000953674316 -14.149999618530273,5 -16.950000762939453,6.5 C-18.549999237060547,7.400000095367432 -20.149999618530273,8.300000190734863 -21.75,9.300000190734863 C-23.149999618530273,10.199999809265137 -24.549999237060547,11.100000381469727 -25.950000762939453,12.100000381469727 C-26.850000381469727,12.699999809265137 -27.75,13.100000381469727 -28.75,13.300000190734863 C-30.350000381469727,13.600000381469727 -31.549999237060547,12.600000381469727 -31.450000762939453,11 C-31.350000381469727,8.199999809265137 -30.75,5.699999809265137 -28.649999618530273,3.5999999046325684 C-26.049999237060547,0.8999999761581421 -23.149999618530273,-0.8999999761581421 -19.549999237060547,-2 C-18.850000381469727,-2.200000047683716 -18.149999618530273,-2.4000000953674316 -17.450000762939453,-2.5999999046325684 C-17.450000762939453,-3.0999999046325684 -17.75,-3.0999999046325684 -18.049999237060547,-3.0999999046325684 C-18.850000381469727,-3.200000047683716 -19.649999618530273,-3.200000047683716 -20.350000381469727,-3.200000047683716 C-22.149999618530273,-3.299999952316284 -23.950000762939453,-3.299999952316284 -25.75,-3.4000000953674316 C-29.450000762939453,-3.700000047683716 -33.04999923706055,-3.299999952316284 -36.650001525878906,-2.9000000953674316 C-39.75,-2.5999999046325684 -42.650001525878906,-1.7999999523162842 -45.45000076293945,-0.6000000238418579 C-45.75,-0.5 -46.150001525878906,-0.30000001192092896 -46.45000076293945,-0.30000001192092896 C-49.25,0.5 -51.650001525878906,2 -53.849998474121094,3.700000047683716 C-55.349998474121094,4.900000095367432 -56.650001525878906,6.5 -57.45000076293945,8.300000190734863 C-57.849998474121094,9.100000381469727 -58.04999923706055,10 -58.150001525878906,10.899999618530273 C-58.349998474121094,13.100000381469727 -58.150001525878906,15.300000190734863 -57.95000076293945,17.5 C-57.75,19.899999618530273 -56.349998474121094,21.5 -54.650001525878906,22.799999237060547 C-53.650001525878906,23.5 -52.349998474121094,23.5 -51.150001525878906,23.299999237060547 C-49.95000076293945,23.100000381469727 -48.849998474121094,22.700000762939453 -47.650001525878906,22.399999618530273 C-46.849998474121094,22.200000762939453 -46.349998474121094,21.600000381469727 -45.95000076293945,20.899999618530273 C-45.25,19.799999237060547 -44.54999923706055,18.600000381469727 -43.95000076293945,17.5 C-43.25,16.200000762939453 -43.349998474121094,14.699999809265137 -43.54999923706055,13.300000190734863 C-43.650001525878906,12.699999809265137 -44.04999923706055,12.199999809265137 -44.650001525878906,12 C-46.04999923706055,11.399999618530273 -47.45000076293945,11.399999618530273 -48.849998474121094,12.5 C-48.849998474121094,12.800000190734863 -48.95000076293945,13.100000381469727 -48.95000076293945,13.5 C-48.849998474121094,14.100000381469727 -49.150001525878906,14.600000381469727 -49.45000076293945,15 C-49.95000076293945,15.800000190734863 -50.95000076293945,16.100000381469727 -51.75,15.699999809265137 C-52.54999923706055,15.300000190734863 -53.04999923706055,14.699999809265137 -53.349998474121094,13.800000190734863 C-53.95000076293945,11.699999809265137 -53.25,9.899999618530273 -51.45000076293945,8.600000381469727 C-48.54999923706055,6.599999904632568 -45.54999923706055,6.599999904632568 -42.45000076293945,8.100000381469727 C-40.349998474121094,9.100000381469727 -39.45000076293945,10.899999618530273 -39.25,13.199999809265137 C-39.04999923706055,15.899999618530273 -39.349998474121094,18.5 -40.95000076293945,20.799999237060547 C-41.54999923706055,21.700000762939453 -41.95000076293945,22.600000381469727 -42.54999923706055,23.399999618530273 C-43.650001525878906,25 -45.04999923706055,26.100000381469727 -46.849998474121094,26.799999237060547 C-49.04999923706055,27.600000381469727 -51.349998474121094,28 -53.75,27.799999237060547 C-57.150001525878906,27.5 -59.45000076293945,25.600000381469727 -60.54999923706055,22.399999618530273 C-61.650001525878906,19.399999618530273 -62.04999923706055,16.200000762939453 -61.75,13 C-61.650001525878906,12 -61.54999923706055,11 -61.349998474121094,10 C-61.150001525878906,8.399999618530273 -60.54999923706055,6.900000095367432 -59.849998474121094,5.400000095367432 C-57.650001525878906,1.100000023841858 -54.04999923706055,-1.5 -49.75,-3.299999952316284 C-47.849998474121094,-4.099999904632568 -45.95000076293945,-4.800000190734863 -44.04999923706055,-5.400000095367432 C-41.95000076293945,-6.099999904632568 -39.75,-6.5 -37.54999923706055,-6.800000190734863 C-35.95000076293945,-7 -34.349998474121094,-7.199999809265137 -32.75,-7.400000095367432 C-30.649999618530273,-7.599999904632568 -28.549999237060547,-7.699999809265137 -26.450000762939453,-7.599999904632568 C-24.75,-7.5 -23.049999237060547,-7.400000095367432 -21.450000762939453,-7.400000095367432 C-17.350000381469727,-7.400000095367432 -13.350000381469727,-6.599999904632568 -9.25,-6.300000190734863 C-8.75,-6.300000190734863 -8.350000381469727,-6.099999904632568 -7.75,-6.300000190734863 C-8.050000190734863,-6.599999904632568 -8.350000381469727,-6.800000190734863 -8.550000190734863,-7 C-10.350000381469727,-8.199999809265137 -12.149999618530273,-9.399999618530273 -13.949999809265137,-10.5 C-16.25,-11.899999618530273 -18.049999237060547,-13.899999618530273 -19.450000762939453,-16.100000381469727 C-19.950000762939453,-16.899999618530273 -20.350000381469727,-17.799999237060547 -20.649999618530273,-18.700000762939453 C-21.75,-21.700000762939453 -20.75,-24.100000381469727 -18.549999237060547,-26.200000762939453 C-16.649999618530273,-28 -17.350000381469727,-27.799999237060547 -14.550000190734863,-27.299999237060547 C-14.050000190734863,-27 -13.350000381469727,-26.600000381469727 -12.850000381469727,-26.200000762939453 C-11.949999809265137,-25.5 -11.050000190734863,-24.799999237060547 -10.350000381469727,-23.899999618530273 C-8.550000190734863,-21.899999618530273 -6.849999904632568,-19.799999237060547 -5.050000190734863,-17.799999237060547 C-4.550000190734863,-17.299999237060547 -4.150000095367432,-16.700000762939453 -3.75,-16.100000381469727 C-0.8500000238418579,-11.600000381469727 2.8499999046325684,-7.900000095367432 6.849999904632568,-4.400000095367432 C7.449999809265137,-3.9000000953674316 8.050000190734863,-3.5999999046325684 8.75,-3.5 C13.649999618530273,-2.799999952316284 18.549999237060547,-1.7000000476837158 23.450000762939453,-1.2000000476837158 C25.450000762939453,-1 27.350000381469727,-0.8999999761581421 29.350000381469727,-1.2999999523162842z"
           id="path1"
           style="fill:#e4aca8;fill-opacity:1" />
      </g>
      <g
         opacity="1"
         transform="matrix(1,0,0,1,235.64999389648438,35.20000076293945)"
         id="g2"
         style="fill:#e4aca8;fill-opacity:1">
        <path
           fill="rgb(233,139,25)"
           fill-opacity="1"
           d=" M-29.350000381469727,-1.2999999523162842 C-28.850000381469727,-1.600000023841858 -28.350000381469727,-2 -27.950000762939453,-2.299999952316284 C-26.549999237060547,-3.4000000953674316 -25.049999237060547,-4.400000095367432 -23.649999618530273,-5.599999904632568 C-20.350000381469727,-8.399999618530273 -18.450000762939453,-12.100000381469727 -17.25,-16.200000762939453 C-16.649999618530273,-18.399999618530273 -17.25,-20.399999618530273 -18.350000381469727,-22.200000762939453 C-19.25,-23.600000381469727 -20.649999618530273,-24.100000381469727 -22.149999618530273,-24.200000762939453 C-23.350000381469727,-24.200000762939453 -24.350000381469727,-23.600000381469727 -25.049999237060547,-22.600000381469727 C-25.950000762939453,-21.200000762939453 -26.850000381469727,-19.799999237060547 -27.649999618530273,-18.299999237060547 C-28.950000762939453,-15.899999618530273 -30.25,-13.399999618530273 -31.549999237060547,-11 C-31.950000762939453,-10.300000190734863 -32.349998474121094,-9.5 -32.54999923706055,-8.699999809265137 C-32.75,-7.900000095367432 -33.150001525878906,-7.099999904632568 -33.650001525878906,-6.5 C-34.95000076293945,-4.800000190734863 -36.349998474121094,-3.200000047683716 -38.04999923706055,-1.7999999523162842 C-38.45000076293945,-1.399999976158142 -38.95000076293945,-1.2000000476837158 -39.45000076293945,-1.2000000476837158 C-40.349998474121094,-1.100000023841858 -41.25,-1.100000023841858 -42.150001525878906,-1 C-43.04999923706055,-0.8999999761581421 -43.849998474121094,-1 -44.650001525878906,-1.2999999523162842 C-45.75,-1.600000023841858 -46.849998474121094,-1.7999999523162842 -48.04999923706055,-2.299999952316284 C-47.54999923706055,-3 -47.04999923706055,-3.299999952316284 -46.54999923706055,-3.700000047683716 C-44.45000076293945,-5.300000190734863 -43.650001525878906,-7.699999809265137 -43.45000076293945,-10.100000381469727 C-43.25,-11.899999618530273 -44.75,-12.899999618530273 -46.45000076293945,-12.199999809265137 C-47.04999923706055,-11.899999618530273 -47.54999923706055,-11.5 -48.04999923706055,-11.100000381469727 C-49.650001525878906,-9.899999618530273 -51.150001525878906,-8.699999809265137 -52.75,-7.5 C-53.349998474121094,-7 -54.04999923706055,-6.800000190734863 -54.75,-6.400000095367432 C-56.45000076293945,-7.099999904632568 -57.849998474121094,-7.900000095367432 -58.95000076293945,-9.199999809265137 C-59.25,-9.600000381469727 -59.650001525878906,-9.899999618530273 -59.95000076293945,-10.199999809265137 C-60.45000076293945,-10.600000381469727 -61.04999923706055,-10.5 -61.45000076293945,-10.199999809265137 C-61.95000076293945,-9.800000190734863 -62.04999923706055,-9.100000381469727 -61.75,-8.600000381469727 C-61.54999923706055,-8.199999809265137 -61.25,-7.900000095367432 -60.95000076293945,-7.599999904632568 C-59.95000076293945,-6.5 -59.04999923706055,-5.5 -58.04999923706055,-4.400000095367432 C-56.150001525878906,-2.4000000953674316 -53.849998474121094,-1 -51.45000076293945,0.10000000149011612 C-51.150001525878906,0.30000001192092896 -50.75,0.4000000059604645 -50.45000076293945,0.5 C-50.25,1 -50.150001525878906,1.5 -49.849998474121094,2 C-49.04999923706055,3.200000047683716 -48.95000076293945,4.5 -48.95000076293945,5.800000190734863 C-49.04999923706055,9.100000381469727 -47.75,11.899999618530273 -46.04999923706055,14.600000381469727 C-45.150001525878906,16 -42.650001525878906,17.100000381469727 -41.04999923706055,16.799999237060547 C-40.04999923706055,16.600000381469727 -39.45000076293945,16 -39.150001525878906,15.100000381469727 C-38.45000076293945,13 -38.349998474121094,11 -39.45000076293945,9 C-40.54999923706055,7.099999904632568 -41.75,5.199999809265137 -42.95000076293945,3.299999952316284 C-43.04999923706055,3.200000047683716 -43.04999923706055,3.0999999046325684 -43.150001525878906,2.9000000953674316 C-42.849998474121094,2.5 -42.349998474121094,2.700000047683716 -42.04999923706055,2.799999952316284 C-40.650001525878906,3 -39.349998474121094,3.0999999046325684 -37.95000076293945,3.299999952316284 C-35.04999923706055,3.700000047683716 -32.25,3.5 -29.350000381469727,3.5 C-28.850000381469727,3.5 -28.25,3.4000000953674316 -27.75,3.299999952316284 C-26.450000762939453,3 -25.149999618530273,2.9000000953674316 -23.850000381469727,2.700000047683716 C-22.649999618530273,2.5 -21.649999618530273,2.799999952316284 -20.649999618530273,3.5 C-20.049999237060547,3.9000000953674316 -19.350000381469727,4.300000190734863 -18.75,4.800000190734863 C-18.25,5.199999809265137 -17.75,5.599999904632568 -17.25,6.099999904632568 C-16.649999618530273,6.699999809265137 -16.149999618530273,7.400000095367432 -15.75,8.100000381469727 C-14.350000381469727,10.199999809265137 -12.649999618530273,12 -10.850000381469727,13.600000381469727 C-7.75,16.299999237060547 -4.050000190734863,17.5 0.05000000074505806,17.5 C1.850000023841858,17.5 2.450000047683716,16.899999618530273 3.049999952316284,15.199999809265137 C3.549999952316284,13.600000381469727 3.549999952316284,12.100000381469727 2.8499999046325684,10.5 C1.850000023841858,8.100000381469727 0.15000000596046448,6.300000190734863 -2.049999952316284,4.900000095367432 C-4.349999904632568,3.5 -6.650000095367432,2.0999999046325684 -9.25,1.5 C-9.25,1.100000023841858 -8.949999809265137,1.100000023841858 -8.75,1 C-5.75,0.5 -2.75,0 0.25,-0.6000000238418579 C1.25,-0.800000011920929 2.1500000953674316,-0.699999988079071 3.049999952316284,-0.4000000059604645 C4.949999809265137,0.10000000149011612 6.75,0.6000000238418579 8.350000381469727,1.7000000476837158 C8.350000381469727,1.7000000476837158 8.449999809265137,1.7999999523162842 8.550000190734863,1.7999999523162842 C11.649999618530273,2.9000000953674316 14.149999618530273,5 16.950000762939453,6.5 C18.549999237060547,7.400000095367432 20.149999618530273,8.300000190734863 21.75,9.300000190734863 C23.149999618530273,10.199999809265137 24.549999237060547,11.100000381469727 25.950000762939453,12.100000381469727 C26.850000381469727,12.699999809265137 27.75,13.100000381469727 28.75,13.300000190734863 C30.350000381469727,13.600000381469727 31.549999237060547,12.600000381469727 31.450000762939453,11 C31.350000381469727,8.199999809265137 30.75,5.699999809265137 28.649999618530273,3.5999999046325684 C26.049999237060547,0.8999999761581421 23.149999618530273,-0.8999999761581421 19.549999237060547,-2 C18.850000381469727,-2.200000047683716 18.149999618530273,-2.4000000953674316 17.450000762939453,-2.5999999046325684 C17.450000762939453,-3.0999999046325684 17.75,-3.0999999046325684 18.049999237060547,-3.0999999046325684 C18.850000381469727,-3.200000047683716 19.649999618530273,-3.200000047683716 20.350000381469727,-3.200000047683716 C22.149999618530273,-3.299999952316284 23.950000762939453,-3.299999952316284 25.75,-3.4000000953674316 C29.450000762939453,-3.700000047683716 33.04999923706055,-3.299999952316284 36.650001525878906,-2.9000000953674316 C39.75,-2.5999999046325684 42.650001525878906,-1.7999999523162842 45.45000076293945,-0.6000000238418579 C45.75,-0.5 46.150001525878906,-0.30000001192092896 46.45000076293945,-0.30000001192092896 C49.25,0.5 51.650001525878906,2 53.849998474121094,3.700000047683716 C55.349998474121094,4.900000095367432 56.650001525878906,6.5 57.45000076293945,8.300000190734863 C57.849998474121094,9.100000381469727 58.04999923706055,10 58.150001525878906,10.899999618530273 C58.349998474121094,13.100000381469727 58.150001525878906,15.300000190734863 57.95000076293945,17.5 C57.75,19.899999618530273 56.349998474121094,21.5 54.650001525878906,22.799999237060547 C53.650001525878906,23.5 52.349998474121094,23.5 51.150001525878906,23.299999237060547 C49.95000076293945,23.100000381469727 48.849998474121094,22.700000762939453 47.650001525878906,22.399999618530273 C46.849998474121094,22.200000762939453 46.349998474121094,21.600000381469727 45.95000076293945,20.899999618530273 C45.25,19.799999237060547 44.54999923706055,18.600000381469727 43.95000076293945,17.5 C43.25,16.200000762939453 43.349998474121094,14.699999809265137 43.54999923706055,13.300000190734863 C43.650001525878906,12.699999809265137 44.04999923706055,12.199999809265137 44.650001525878906,12 C46.04999923706055,11.399999618530273 47.45000076293945,11.399999618530273 48.849998474121094,12.5 C48.849998474121094,12.800000190734863 48.95000076293945,13.100000381469727 48.95000076293945,13.5 C48.849998474121094,14.100000381469727 49.150001525878906,14.600000381469727 49.45000076293945,15 C49.95000076293945,15.800000190734863 50.95000076293945,16.100000381469727 51.75,15.699999809265137 C52.54999923706055,15.300000190734863 53.04999923706055,14.699999809265137 53.349998474121094,13.800000190734863 C53.95000076293945,11.699999809265137 53.25,9.899999618530273 51.45000076293945,8.600000381469727 C48.54999923706055,6.599999904632568 45.54999923706055,6.599999904632568 42.45000076293945,8.100000381469727 C40.349998474121094,9.100000381469727 39.45000076293945,10.899999618530273 39.25,13.199999809265137 C39.04999923706055,15.899999618530273 39.349998474121094,18.5 40.95000076293945,20.799999237060547 C41.54999923706055,21.700000762939453 41.95000076293945,22.600000381469727 42.54999923706055,23.399999618530273 C43.650001525878906,25 45.04999923706055,26.100000381469727 46.849998474121094,26.799999237060547 C49.04999923706055,27.600000381469727 51.349998474121094,28 53.75,27.799999237060547 C57.150001525878906,27.5 59.45000076293945,25.600000381469727 60.54999923706055,22.399999618530273 C61.650001525878906,19.399999618530273 62.04999923706055,16.200000762939453 61.75,13 C61.650001525878906,12 61.54999923706055,11 61.349998474121094,10 C61.150001525878906,8.399999618530273 60.54999923706055,6.900000095367432 59.849998474121094,5.400000095367432 C57.650001525878906,1.100000023841858 54.04999923706055,-1.5 49.75,-3.299999952316284 C47.849998474121094,-4.099999904632568 45.95000076293945,-4.800000190734863 44.04999923706055,-5.400000095367432 C41.95000076293945,-6.099999904632568 39.75,-6.5 37.54999923706055,-6.800000190734863 C35.95000076293945,-7 34.349998474121094,-7.199999809265137 32.75,-7.400000095367432 C30.649999618530273,-7.599999904632568 28.549999237060547,-7.699999809265137 26.450000762939453,-7.599999904632568 C24.75,-7.5 23.049999237060547,-7.400000095367432 21.450000762939453,-7.400000095367432 C17.350000381469727,-7.400000095367432 13.350000381469727,-6.599999904632568 9.25,-6.300000190734863 C8.75,-6.300000190734863 8.350000381469727,-6.099999904632568 7.75,-6.300000190734863 C8.050000190734863,-6.599999904632568 8.350000381469727,-6.800000190734863 8.550000190734863,-7 C10.350000381469727,-8.199999809265137 12.149999618530273,-9.399999618530273 13.949999809265137,-10.5 C16.25,-11.899999618530273 18.049999237060547,-13.899999618530273 19.450000762939453,-16.100000381469727 C19.950000762939453,-16.899999618530273 20.350000381469727,-17.799999237060547 20.649999618530273,-18.700000762939453 C21.75,-21.700000762939453 20.75,-24.100000381469727 18.549999237060547,-26.200000762939453 C16.649999618530273,-28 17.350000381469727,-27.799999237060547 14.550000190734863,-27.299999237060547 C13.850000381469727,-27.200000762939453 13.149999618530273,-26.799999237060547 12.649999618530273,-26.399999618530273 C11.75,-25.700000762939453 10.850000381469727,-25 10.149999618530273,-24.100000381469727 C8.350000381469727,-22.100000381469727 6.650000095367432,-20 4.849999904632568,-18 C4.349999904632568,-17.5 3.950000047683716,-16.899999618530273 3.549999952316284,-16.299999237060547 C0.6499999761581421,-11.800000190734863 -3.049999952316284,-8.100000381469727 -7.050000190734863,-4.599999904632568 C-7.650000095367432,-4.099999904632568 -8.25,-3.799999952316284 -8.949999809265137,-3.700000047683716 C-13.850000381469727,-3 -18.75,-1.899999976158142 -23.649999618530273,-1.399999976158142 C-25.450000762939453,-1 -27.350000381469727,-0.8999999761581421 -29.350000381469727,-1.2999999523162842z"
           id="path2"
           style="fill:#e4aca8;fill-opacity:1" />
      </g>
    </g>
    <g
       transform="matrix(0.682305097579956,0,0,0.682305097579956,47.65423583984375,10.325084686279297)"
       opacity="1"
       style="display:block;fill:#e4aca8;fill-opacity:1"
       id="g5">
      <g
         opacity="1"
         transform="matrix(1,0,0,1,149.64999389648438,30)"
         id="g4"
         style="fill:#e4aca8;fill-opacity:1">
        <path
           fill="rgb(233,139,25)"
           fill-opacity="1"
           d=" M0.75,27.299999237060547 C-0.3499999940395355,25.399999618530273 -1.5499999523162842,23.5 -2.6500000953674316,21.700000762939453 C-2.950000047683716,21.200000762939453 -3.3499999046325684,20.600000381469727 -3.6500000953674316,20.100000381469727 C-9.050000190734863,8.800000190734863 -15.649999618530273,-1.7999999523162842 -20.149999618530273,-13.5 C-21.450000762939453,-17 -22.049999237060547,-20.5 -21.850000381469727,-24.200000762939453 C-21.649999618530273,-26.5 -20.850000381469727,-27.299999237060547 -18.649999618530273,-27.399999618530273 C-15.949999809265137,-27.5 -13.350000381469727,-27 -10.949999809265137,-25.5 C-6.050000190734863,-22.399999618530273 -1.850000023841858,-18.600000381469727 1.149999976158142,-13.699999809265137 C2.75,-13.5 2.950000047683716,-14.899999618530273 3.450000047683716,-15.699999809265137 C5.25,-18.799999237060547 7.650000095367432,-21.200000762939453 10.550000190734863,-23.299999237060547 C12.949999809265137,-25 15.449999809265137,-25.299999237060547 18.25,-25.100000381469727 C19.649999618530273,-25 20.549999237060547,-24.299999237060547 21.049999237060547,-22.899999618530273 C22.049999237060547,-19.899999618530273 21.950000762939453,-17 20.950000762939453,-14 C19.75,-10.399999618530273 18.450000762939453,-6.800000190734863 17.049999237060547,-3.299999952316284 C14.449999809265137,3.0999999046325684 11.75,9.5 7.949999809265137,15.399999618530273 C5.949999809265137,18.600000381469727 4.550000190734863,22.200000762939453 2.950000047683716,25.600000381469727 C2.549999952316284,26.399999618530273 2.25,27.5 0.75,27.299999237060547z"
           id="path3"
           style="fill:#e4aca8;fill-opacity:1" />
      </g>
    </g>
  </g>
</svg>
