<?xml version="1.0" encoding="UTF-8"?>
<!-- Created with Inkscape (http://www.inkscape.org/) -->
<svg width="2666.7" height="2666.7" version="1.1" viewBox="0 0 2666.7 2666.7" xmlns="http://www.w3.org/2000/svg">
 <g transform="matrix(1.0819 0 0 1.0819 -281.46 -121.9)" fill="#e4aca8">
  <path d="m449.54 343.27c-4e-3 0.0133-8e-3 0-0.012 0 0.0747-0.0533-4e-3 0.0133 0.012 0zm-4.2173-12.84c0.04-0.54667 0.0667-1.0667 0.124-1.4933 0.0147-0.10666 0.0253-0.21333 0.0307-0.33333-0.0147-0.0267 0.0293-0.14667 0.0827-0.26667l0.14-0.36 0.53466-1.4267c0.31867-0.96 0.88134-1.9333 1.284-2.92 0.48667-1 1.08-2 1.596-3.0133 1.1893-2.0667 2.596-4.1733 4.1747-6.3067-2.2613 4.5467-4.1133 8.7067-5.8267 12.36-0.75733 1.64-1.48 3.1867-2.1653 4.6 3e-3 -0.29334 9e-3 -0.57334 0.0253-0.84zm76.175 4.4667c0.19066 0.13333 0.38933 0.24 0.59733 0.33333 0.82267 0.49334 1.7373 1.16 2.6147 1.9333 1.7693 1.56 3.3347 3.5733 4.2707 5.28 0.23467 0.42666 0.44 0.82666 0.61334 1.2 0.0573 0.18666 0.192 0.37333 0.23333 0.53333 0.028 0.08 0.0613 0.17333 0.0973 0.24l0.06 0.13333 0.0613 0.26667c0.14533 0.77333 0.40266 1.4933 0.548 2.2933 0.1 0.81334 0.316 1.5867 0.40266 2.44 0.92 6.6667-0.04 15.493-2.5307 25.293-2.4493 9.8133-6.2707 20.493-10.131 31.747-15.22 44.427-27.637 84.973-37.428 119.29-19.581 68.64-28.659 112.37-28.659 112.37s24.981-37.027 60.468-98.96c17.743-30.96 38.112-68.16 59.297-110.07 5.1867-10.32 11.043-21.653 16.117-35.2 2.516-6.7867 4.8187-14.12 6.484-22.187 1.6573-8.0533 2.664-16.893 2.34-26.267-0.056-2.32-0.30933-4.72-0.50133-7.0933-0.24-2.3733-0.66934-4.7867-1.0453-7.1867l-0.15733-0.92-0.22667-1.04-0.47733-2.1067c-0.316-1.4133-0.732-2.7333-1.12-4.1067-0.81733-2.7067-1.7707-5.32-2.8387-7.8667-4.304-10.147-10.363-19.013-17.956-26.707-3.8093-3.84-8.0267-7.3867-12.729-10.56-1.192-0.78667-2.404-1.5467-3.624-2.3067l-1.9-1.08c-0.67867-0.37333-1.3133-0.74667-2.06-1.12-2.9507-1.52-5.9933-2.8667-9.1213-4-12.489-4.5467-26.357-5.6-39.332-2.2133-4.692 1.1467-9.1427 3.04-13.407 5.1067-1.3387 0.76-2.6653 1.5467-3.9787 2.3467l0.32533-0.46667c1.128-1.5733 2.1587-3.16 3.1347-4.76 1.948-3.2 3.648-6.4267 5.1107-9.68 2.9093-6.5333 5.0053-13.133 6.2187-19.853 0.60533-3.36 0.99866-6.7333 1.1547-10.107 0.068-1.6933 0.0867-3.3867 0.0293-5.08-4e-3 -0.85333-0.0893-1.6667-0.13467-2.5733-0.0427-0.89333-0.14133-1.8133-0.24667-2.7067-0.784-7.1867-2.9827-13.8-6.2467-19.36-3.272-5.5867-7.66-10.04-12.435-13.293-3.0387-2.0267-6.2013-3.6133-9.3493-4.84-0.78933-0.29333-1.572-0.58666-2.352-0.86666-0.70667-0.22667-1.4093-0.44-2.1067-0.66667-1.3693-0.4-2.6933-0.74667-3.972-1.0667-5.08-1.2267-9.5307-2.0133-13.213-2.9867-3.6187-0.93334-6.7093-2.2-8.992-3.7867-1.144-0.8-2.0747-1.6667-2.8173-2.6267-0.17334-0.25333-0.34667-0.49333-0.516-0.73333-0.148-0.26667-0.29467-0.52-0.43867-0.77333-0.216-0.45334-0.43867-0.85334-0.54533-1.3467-0.52267-1.9733-7e-3 -4.3067 0.896-5.9867 0.888-1.7467 2.1667-2.9467 3.392-3.5733 1.2347-0.69333 2.388-0.68 3.1573-0.68 0.77467 0.12 1.1747 0.18667 1.1747 0.18667s-0.36-0.21334-1.056-0.62667c-0.73734-0.29333-1.992-0.81333-3.752-0.58667-1.7453 0.17334-3.9013 1.0267-5.88 2.8267-1.9573 1.7733-3.9573 4.4267-4.5293 8.44-0.156 0.97333-0.11466 2.0933-8e-3 3.1733 0.0787 0.49334 0.16 1 0.24134 1.52 0.13066 0.50667 0.26133 1.0133 0.39466 1.5333 0.624 2.0533 1.652 4.1067 2.9813 5.9733 2.6707 3.7733 6.376 6.88 10.491 9.5467 4.0933 2.6267 8.336 4.8267 12.34 7.2133 0.992 0.6 1.9573 1.2 2.8947 1.8133 0.44667 0.32 0.89733 0.62667 1.3493 0.93334l1.0973 0.86666c1.44 1.1867 2.784 2.4933 3.9413 3.96 1.8293 2.3067 3.1507 5.0667 3.7667 8 0.61066 2.92 0.552 5.96-0.0773 8.8-0.0693 0.34667-0.13466 0.70667-0.24266 1.0667-0.10267 0.36-0.164 0.81333-0.29467 1.2267-0.216 0.85334-0.47467 1.72-0.756 2.5867-0.58533 1.7467-1.3013 3.52-2.14 5.3067-1.676 3.56-3.9173 7.12-6.516 10.44-1.3027 1.6533-2.7227 3.24-4.2013 4.7067-0.73867 0.73334-1.492 1.44-2.2667 2.0933-0.89733 0.77333-1.7987 1.5333-2.704 2.3067-3.8427 3.24-8.212 6.5467-13.029 10.12-4.8147 3.6-10.084 7.4533-15.661 12.013-5.5613 4.5733-11.473 9.8533-17.208 16.493-1.4067 1.7333-2.8373 3.44-4.2133 5.28-1.3387 1.9067-2.748 3.7333-4.0013 5.8l-1.8907 3.1067-0.468 0.77333c-0.15333 0.25333-0.31067 0.52-0.492 0.88l-1.0333 2.0267c-1.3507 2.72-2.4453 5.4667-3.4013 8.2533-3.6907 11.147-4.5547 22.387-3.132 33.76 0.73334 5.6933 2.1173 11.44 4.3773 17.267 2.2787 5.8133 5.3693 11.747 10.065 17.52 2.2667 2.88 5.104 5.68 8.2013 8.3067 3.244 2.5733 6.7787 5.0133 10.841 6.9333 7.9987 4 17.507 5.7333 26.049 5.3867 2.072-0.12 4.084-0.32 6.1267-0.56 2.0693-0.32 4.1907-0.77333 6.2693-1.2667 2.088-0.56 4.1773-1.2533 6.2347-2 1.996-0.82666 4.0253-1.7067 5.936-2.6933 7.676-4.0267 13.667-9.3467 18.157-14.333 4.5213-5.04 7.7787-9.84 10.524-14.253 2.7293-4.4267 4.9293-8.5067 6.9187-12.253 3.9267-7.4933 7.1267-13.773 9.9333-17.96 0.35066-0.57333 0.676-0.98667 0.99733-1.4533 0.32533-0.49334 0.624-0.84 0.912-1.2133 0.296-0.42666 0.55733-0.68 0.804-0.97333 0.12267-0.13333 0.252-0.33333 0.35733-0.41333l0.15867-0.14667c-9e-3 0.0267-0.044 0.0667-0.068 0.0933-0.0267 0.0267-0.0613 0.0533-0.0893 0.08h7e-3l0.0107 0.0133 0.0173 0.0133 0.02 0.0133 7e-3 0.0267c1e-3 0 4e-3 0.0133 3e-3 0-5e-3 -0.0133-0.0107-0.04 0.028-0.10667 4e-3 0.0133 0.0133 0 0.036-0.04 4e-3 -0.0133 0.08 0.0533 0.132 0.0667 0.092 0.04 0.184 0.0933 0.28 0.12"/>
  <path d="m429.19 1302.4c-0.74133-2.2133-1.5373-4.5733-2.384-7.0933-0.82-2.5467-1.6027-5.2934-2.4853-8.1734-1.776-5.7866-3.7333-12.173-5.8547-19.093-2.044-7-4.0573-14.667-6.3693-22.813-0.57467-2.04-1.1573-4.1067-1.748-6.2-0.604-2.1067-1.0773-4.2934-1.6387-6.48-1.0973-4.4-2.224-8.92-3.3787-13.547-2.48-9.2133-4.484-19.147-6.8307-29.44-0.58267-2.5733-1.172-5.1867-1.7653-7.8133-0.56533-2.64-1.0427-5.3334-1.5813-8.04-1.0693-5.44-2.156-10.973-3.26-16.587-0.28267-1.4-0.56533-2.8133-0.84933-4.24-0.27067-1.4267-0.48534-2.8667-0.73467-4.3067-0.48533-2.8933-0.976-5.8133-1.4693-8.7466-0.96934-5.88-2.088-11.827-3.0267-17.92-0.88-6.12-1.7707-12.32-2.6707-18.6-0.44133-3.1467-0.97466-6.2934-1.3627-9.4934-0.376-3.2133-0.75467-6.44-1.1347-9.6933-0.74-6.4933-1.6413-13.053-2.3373-19.733-0.636-6.7067-1.2773-13.48-1.924-20.307-0.77867-6.8267-1.0853-13.813-1.632-20.813-0.47467-7.0267-1.1453-14.093-1.3707-21.293-0.356-7.1866-0.716-14.427-1.0773-21.72-0.18-7.3467-0.36134-14.733-0.544-22.16-0.50267-29.8-0.12134-60.6 1.388-92.12 1.7027-31.507 4.4227-62.187 7.94-91.787 0.94-7.3733 1.8733-14.707 2.8013-21.987 1.0973-7.2133 2.1867-14.387 3.2693-21.507 0.96134-7.12 2.3107-14.093 3.5173-21.027 0.60133-3.4667 1.2013-6.9067 1.7987-10.347 0.304-1.7067 0.568-3.4267 0.89867-5.1333 0.34533-1.6933 0.68933-3.3733 1.0333-5.0667 1.3413-6.72 2.6707-13.387 3.988-20 0.59334-3.3067 1.4493-6.52 2.1507-9.76 0.72933-3.2267 1.4547-6.44 2.176-9.64 0.70933-3.1867 1.416-6.36 2.1173-9.52 0.684-3.1467 1.5587-6.2133 2.3133-9.3067 1.5373-6.1467 3.0573-12.227 4.5587-18.227 1.5293-5.9733 3.272-11.76 4.832-17.52 0.792-2.8667 1.5773-5.72 2.3573-8.5467 0.388-1.4 0.77466-2.8133 1.16-4.2133 0.428-1.3867 0.85333-2.76 1.2787-4.1333 1.6733-5.4667 3.3227-10.853 4.9427-16.147 0.80267-2.64 1.5987-5.2533 2.388-7.8533 0.86-2.5467 1.7133-5.08 2.5573-7.5867 3.3987-10 6.3933-19.667 9.8093-28.587 1.624-4.48 3.2093-8.8533 4.7533-13.12 0.78-2.12 1.4853-4.24 2.288-6.2667 0.804-2.04 1.5973-4.0267 2.3787-6 3.136-7.8667 5.9347-15.28 8.68-22.027 2.824-6.6667 5.4293-12.813 7.792-18.4 1.1747-2.7733 2.2387-5.4133 3.312-7.8667 1.1027-2.4133 2.1387-4.6933 3.104-6.8133 1.896-4.2 3.5173-7.8 4.836-10.733 2.556-5.7867 3.9413-8.9333 3.9413-8.9333s-2.26 2.5733-6.432 7.32c-2.1107 2.4533-4.7067 5.4533-7.7427 8.9733-1.5307 1.7867-3.1733 3.7067-4.9213 5.76-1.716 2.08-3.46 4.36-5.348 6.7467-3.7813 4.8667-7.9507 10.227-12.469 16.04-4.428 5.96-9.024 12.587-14.053 19.693-1.2533 1.7867-2.5253 3.6-3.8147 5.44-1.2867 1.8533-2.4813 3.8-3.7547 5.7467-2.5253 3.92-5.1187 7.96-7.7747 12.093-5.4667 8.28-10.572 17.373-16.117 26.88-1.3787 2.4-2.7707 4.8133-4.1747 7.2533-1.352 2.4667-2.66 4.9867-4.0107 7.5333-2.6907 5.1333-5.4267 10.36-8.2067 15.653-0.69467 1.3467-1.3933 2.68-2.0933 4.04-0.656 1.36-1.3147 2.7467-1.9747 4.12-1.3187 2.7867-2.6467 5.5867-3.984 8.4-2.6413 5.68-5.4613 11.427-8.056 17.373-2.5427 6.0133-5.116 12.107-7.7187 18.267-1.2747 3.1067-2.6653 6.2133-3.86 9.4-1.2053 3.2-2.4173 6.4267-3.6347 9.6533-1.2147 3.2667-2.436 6.5333-3.6627 9.8267-1.192 3.3067-2.532 6.6133-3.6027 10-2.2347 6.8267-4.4907 13.693-6.7667 20.627-0.56533 1.7467-1.132 3.5067-1.6987 5.2533-0.55066 1.76-1.032 3.5467-1.552 5.3333-1.0173 3.5733-2.0387 7.16-3.0653 10.773-2.032 7.2267-4.1707 14.533-5.876 22.027-1.7947 7.4667-3.628 15.027-5.3693 22.68-1.5267 7.72-3.0627 15.493-4.608 23.307-5.716 31.467-9.7613 64.44-11.587 98.347-1.6333 33.907-0.924 67.107 1.576 99 0.74133 7.9333 1.476 15.813 2.2067 23.653 1.0227 7.76 2.0387 15.453 3.048 23.107 0.92933 7.6267 2.3493 15.107 3.616 22.507 1.3373 7.4 2.4747 14.72 4.12 21.88 1.5547 7.1333 3.0973 14.2 4.6253 21.213 1.6267 6.9467 3.4893 13.747 5.216 20.453 0.88 3.3467 1.7573 6.6667 2.6293 9.9734 0.892 3.2933 1.936 6.5333 2.8907 9.7466 1.96 6.4 3.896 12.72 5.8093 18.96 2.0013 6.1734 4.196 12.187 6.248 18.093 1.0413 2.9466 2.076 5.8666 3.1027 8.76 0.52133 1.44 1.008 2.8933 1.5533 4.3066 0.55867 1.4134 1.1147 2.8267 1.6693 4.2267 2.22 5.56 4.4067 11.027 6.556 16.413 1.088 2.6667 2.1133 5.32 3.228 7.9067 1.1467 2.5733 2.2827 5.1067 3.408 7.6267 4.5307 10.04 8.6947 19.6 13.279 28.387 2.216 4.3867 4.3787 8.6667 6.4867 12.84 1.0707 2.0667 2.0493 4.12 3.152 6.0934 1.0933 1.96 2.172 3.8933 3.2333 5.8 4.272 7.5866 8.1547 14.653 11.953 21.04 3.8947 6.2533 7.488 12.013 10.747 17.24 1.6347 2.5733 3.1307 5.0133 4.6267 7.2533 1.5267 2.2267 2.9613 4.3067 4.2987 6.24 2.6573 3.8133 4.928 7.08 6.776 9.72 3.6573 5.16 5.64 7.9467 5.64 7.9467s-1.0533-3.2667-2.996-9.2934c-1.0093-3.04-2.2493-6.7866-3.7013-11.173"/>
  <path d="m1416.5 2462c-2.108-0.4266-3.8213-1.2933-5.464-2.3333-0.3827-0.2-0.8867-0.5867-1.384-0.92-0.5187-0.2933-0.9107-0.7333-1.388-1.0533-0.8573-0.7734-1.684-1.5067-2.44-2.4134-0.7907-0.8133-1.4947-1.8666-2.2533-2.8933-0.716-1.12-1.4707-2.2533-2.1747-3.64-1.4467-2.68-2.8373-5.9733-4.1067-9.7733-1.2813-3.76-2.4293-8.0534-3.4493-12.693-2.072-9.28-3.5973-19.907-5.22-31.52-0.4227-2.9866-0.8467-5.9733-1.2707-8.96-0.536-3.2533-1.072-6.52-1.6106-9.7866-0.5174-3.2934-1.2027-6.5734-1.8867-9.8534-0.6987-3.28-1.3213-6.5866-2.1693-9.8533-6.2267-26.253-15.404-51.027-26.535-73.68-1.4173-2.8133-2.8307-5.6267-4.2413-8.4133-1.4654-2.76-2.976-5.48-4.4627-8.2l-2.248-4.04-0.6973-1.1734c18.58 16.72 38.427 33.36 60.379 48.92 11.792 8.2934 24.148 16.24 37.119 23.613 0.564 1.0133 1.6133 2.9066 3.1027 5.6 2.2373 4.28 5.572 10.533 9.0853 18.747 3.492 8.2 7.1467 18.427 9.464 30.12 2.3253 11.653 2.876 24.88-0.2693 37.547-0.4427 1.56-0.8894 3.1333-1.34 4.7067-0.2614 0.68-0.524 1.3733-0.788 2.0666-0.3014 0.68-0.604 1.36-0.908 2.04-1.284 2.72-2.8614 5.3867-4.7134 7.96-3.6906 5.1334-8.52 9.8667-13.989 13.48-5.436 3.6267-11.559 6.08-16.933 6.6934-2.6814 0.3066-5.12 0.16-7.2067-0.2934zm-240.3-350.84c-1.6307-1.32-3.2773-2.6267-4.9387-3.92 2.3534 1.5733 4.7054 3.2 7.0534 4.84-0.7067-0.3067-1.416-0.6267-2.1147-0.92zm-483.79-1.92c-7.4867 1.64-15.46 2.7066-23.617 4.08-2.1813 0.32-4.3427 0.7866-6.588 1-2.2387 0.2533-4.4933 0.5066-6.764 0.7733-4.5507 0.5333-9.16 1.0667-13.824 1.6133-4.732 0.3467-9.5187 0.68-14.356 1.0134-2.4253 0.1866-4.864 0.3733-7.3133 0.56-2.4613 0.12-4.956 0.1333-7.4547 0.2133-3.48 0.1067-7.0107 0.2133-10.533 0.32 1.8493-0.3867 3.6973-0.7867 5.5453-1.2133 7.2933-1.7467 14.537-3.8267 21.691-6.28 7.1227-2.52 14.224-5.24 21.125-8.4667 16.772-7.68 32.805-17.36 47.733-28.827-6.104 12.547-7.172 25.08-5.644 35.213zm42.496 78.2c-3.2213 6.8934-5.9507 14-8.4653 21.12-2.4533 7.16-4.54 14.4-6.2853 21.693-0.41867 1.8533-0.824 3.6933-1.2107 5.5466 0.10667-3.52 0.21334-7.0533 0.32-10.533 0.0813-2.4933 0.088-4.9867 0.21734-7.4533 0.18533-2.4534 0.36933-4.8934 0.552-7.32 0.34133-4.8267 0.67866-9.6134 1.012-14.347 0.54933-4.6667 1.0907-9.28 1.6267-13.827 0.25467-2.2666 0.508-4.52 0.76-6.76 0.22-2.2533 0.68667-4.4133 1.008-6.6 1.376-8.1466 2.4333-16.12 4.0853-23.613 10.121 1.5333 22.66 0.4667 35.211-5.64-11.467 14.92-21.151 30.96-28.831 47.733zm-73.684 140.39c0.184 6.5733 1.008 13.147 1.7333 19.8 0.37867 3.3333 0.75867 6.68 1.1387 10.027l0.148 1.2666 0.0733 0.6267 0.0373 0.32c-1e-3 0.013-4e-3 0.013-5e-3 0.013l-0.048 0.1734-0.0933 0.2933c-0.0627 0.1867-0.12267 0.3467-0.18134 0.48-0.0613 0.1333-0.108 0.3067-0.184 0.2667-0.13866 0.027-0.268-0.013-0.376-0.08-0.24266-0.1467-0.28266-0.24-0.28266-0.24s7e-3 0.013-1e-3 0.053l-3e-3 0.013h-3e-3l-0.212-0.013-0.45067-0.04-3.6027-0.2933c-0.33867-0.027-0.676-0.053-1.0147-0.08-0.192-0.6534-0.4-1.3067-0.63467-1.96-1.5827-4.84-4.028-9.6534-7.1947-14.107-0.81467-1.12-1.6587-2.2133-2.524-3.28-0.91067-1.0533-1.8853-2.08-2.864-3.0933-0.49334-0.4934-0.988-0.9867-1.4947-1.48l-1.5907-1.3734c-1.0747-0.8933-2.1653-1.7866-3.2827-2.6-4.4973-3.1733-9.2987-5.5733-14.107-7.1466-4.7933-1.5334-9.6253-2.4667-14.339-2.6534-2.3733-0.1733-4.7067-0.027-7.0427 0.08-2.3293 0.2534-4.6373 0.48-6.9307 1-4.5733 0.8934-9.1 2.5334-13.447 4.6667-4.356 2.24-8.5467 5.08-12.311 8.6667-0.952 0.8533-1.8333 1.8666-2.716 2.8266l-1.2933 1.4667-0.62934 0.7467-0.52266 0.6933c-0.684 0.92-1.392 1.88-2.004 2.8-0.58667 0.9067-1.1587 1.8133-1.7133 2.7333-2.076 3.5734-3.4627 6.8134-4.5053 9.56-1.0347 2.7334-1.7507 5.04-2.2707 6.7734l-0.36533 1.2266-0.0867 0.2934c-0.0293 0.093-0.0653 0.2133-0.0587 0.2l-0.0133 0.1466c-9e-3 0.2267 7e-3 0.3334 4e-3 0.4934 3e-3 0.2933-0.02 0.6133-0.0747 0.92-0.0293 0.1866-0.0893 0.3733-0.13734 0.56-0.104 0.1466-0.124 0.3866-0.22933 0.5466-0.164 0.3734-0.37867 0.72-0.648 1.0534-0.26667 0.32-0.56667 0.6533-0.92267 0.9066-0.212 0.12-0.25466 0.3067-0.69333 0.48l-0.78933 0.3467-0.92 0.32c-2.4867 0.88-5.6467 1.64-9.2373 2.2667-1.836 0.32-3.6053 0.6-5.7387 0.8933-2.108 0.3067-4.2093 0.6-6.3027 0.8933-16.708 2.3734-32.619 4.8-47.617 7.2134-11.084 1.7866-21.667 3.5733-31.711 5.3333 1.752-10.053 3.536-20.627 5.324-31.72 2.4187-15 4.8467-30.907 7.22-47.613 0.29467-2.0934 0.58934-4.2 0.88667-6.3067 0.29467-2.1333 0.58133-3.8933 0.89733-5.7333 0.62134-3.5867 1.3893-6.7467 2.2693-9.24l0.32266-0.92 0.34667-0.7867c0.172-0.44 0.348-0.48 0.47067-0.6933 0.26266-0.36 0.592-0.6534 0.91466-0.92 0.324-0.28 0.68134-0.4934 1.0507-0.6534 0.15867-0.1066 0.396-0.12 0.54-0.2266 0.19467-0.053 0.372-0.1067 0.56533-0.1334 0.31334-0.067 0.62534-0.08 0.92534-0.08 0.16133 0 0.26666 0.013 0.488 0l0.14133-0.013c-8e-3 0.013 0.11333-0.027 0.21067-0.053l0.29466-0.093 1.2227-0.36c1.7253-0.52 4.0387-1.24 6.772-2.2666 2.74-1.0534 5.98-2.4267 9.5587-4.5067 0.92-0.56 1.8333-1.1333 2.7387-1.72 0.92-0.6133 1.8733-1.32 2.792-2l0.69067-0.52 0.74667-0.6267 1.4787-1.2933c0.95733-0.8933 1.9733-1.7733 2.816-2.72 3.588-3.76 6.4307-7.96 8.664-12.307 2.1347-4.3466 3.7747-8.88 4.6667-13.453 0.53333-2.2933 0.75333-4.6 1.0067-6.9333 0.11067-2.3334 0.25067-4.6667 0.0773-7.04-0.18267-4.7067-1.1147-9.5467-2.6467-14.333-1.5827-4.8133-3.972-9.6133-7.1547-14.107-0.808-1.12-1.704-2.2134-2.6-3.28l-1.3733-1.6c-0.48267-0.5067-0.98-1-1.48-1.4934-1.004-0.9733-2.032-1.9466-3.0907-2.8666-1.068-0.8667-2.1627-1.7067-3.2773-2.52-4.4573-3.1734-9.2707-5.6134-14.112-7.2-0.656-0.2267-1.3093-0.44-1.9627-0.6267-0.0267-0.3467-0.0533-0.68-0.08-1.0133l-0.292-3.6134-0.0373-0.44-0.0173-0.2133h0.01l0.012-0.013h0.0493s-0.084-0.04-0.24267-0.28c-0.0613-0.1067-0.10133-0.24-0.0787-0.3734-0.0307-0.08 0.14267-0.12 0.27067-0.1866 0.14-0.053 0.3-0.12 0.484-0.1867l0.29467-0.093 0.16266-0.04h0.0253l0.31466 0.027 0.63067 0.08 1.26 0.1467c3.3507 0.3733 6.692 0.76 10.025 1.1333 6.6547 0.7334 13.232 1.56 19.799 1.7334 26.179 1.8533 51.397 0.3466 74.956-2.52 5.84-0.8267 11.636-1.6534 17.384-2.48 5.62-1.1334 11.192-2.2667 16.713-3.3734 2.732-0.5866 5.4507-1.0933 8.1227-1.7333 2.652-0.7067 5.2893-1.4 7.9147-2.0933 5.2227-1.4134 10.345-2.7867 15.352-4.1867 4.912-1.64 9.7653-3.2533 14.557-4.8533 2.36-0.8 4.704-1.6 7.032-2.4 2.3227-0.76 4.5547-1.7734 6.7947-2.64 5.096-2.08 10.052-4.0534 14.845-6.0934-2.04 4.7867-4.0107 9.7467-6.096 14.84-0.86533 2.24-1.8787 4.48-2.6427 6.8-0.792 2.3334-1.5893 4.6667-2.392 7.0267-1.6 4.8-3.2213 9.6533-4.86 14.56-1.404 5.0133-2.7773 10.133-4.1773 15.347-0.696 2.6266-1.3947 5.2666-2.0973 7.92-0.64 2.68-1.1507 5.3866-1.7333 8.12-1.1147 5.52-2.2413 11.093-3.376 16.72-0.82134 5.7466-1.6493 11.547-2.484 17.387-2.8653 23.547-4.3693 48.773-2.52 74.947zm-57.759 45.853 7e-3 0.013h0.0107l0.0213 0.013 0.0413 0.04 0.0573 0.053c-0.72934-0.6133-1.104-0.92-0.13734-0.12zm4.3827-0.1066c-4e-3 0-8e-3 0-0.012 0.013 1e-3 0 1e-3 -0.013 3e-3 -0.013l0.148-0.1467zm5.6253 7.2-0.028-0.013h0.0107zm-149.51-146.61 0.052 0.053 0.0333 0.04 0.016 0.027 8e-3 0.013h4e-3c0.804 0.9733 0.49333 0.6-0.11334-0.1334zm0.22534-4.2533 0.14666-0.1333-0.15333 0.1466h-3e-3c4e-3 0 5e-3 0 9e-3 -0.013zm-7.208-5.6133 0.0213 0.013c4e-3 0-7e-3 0.013-5e-3 0.013zm269.62-562.73c-0.292-0.7067-0.612-1.4134-0.92133-2.12 1.6453 2.3466 3.264 4.7066 4.8427 7.0533-1.2933-1.6667-2.6013-3.3067-3.9213-4.9333zm-150.82-168-4.0413-2.2534c-2.7107-1.48-5.4293-2.9866-8.188-4.4533-2.7987-1.4133-5.6027-2.8267-8.4133-4.24-22.659-11.133-47.436-20.32-73.691-26.533-3.2627-0.8534-6.5733-1.48-9.852-2.1734-3.2827-0.6933-6.5533-1.3733-9.8507-1.8933-3.2693-0.5333-6.5307-1.0667-9.784-1.6-2.9933-0.4267-5.9787-0.8533-8.9573-1.28-11.62-1.6267-22.249-3.1467-31.528-5.2133-4.6427-1.0267-8.9253-2.1734-12.696-3.4534-3.7987-1.2666-7.0933-2.6666-9.7613-4.1066-1.3893-0.7067-2.524-1.4534-3.6533-2.1734-1.024-0.76-2.0693-1.4666-2.8907-2.2533-0.9-0.76-1.6413-1.5867-2.4107-2.44-0.31467-0.48-0.756-0.8667-1.0533-1.3867-0.332-0.4933-0.71467-1-0.92134-1.3866-1.0413-1.64-1.9-3.36-2.3293-5.4667-0.456-2.08-0.59467-4.52-0.29733-7.2 0.60933-5.3733 3.072-11.507 6.6947-16.933 3.6213-5.4667 8.3507-10.307 13.481-14 2.568-1.84 5.2413-3.4267 7.9587-4.7067 0.68534-0.3067 1.3667-0.6 2.0467-0.9067 0.688-0.2666 1.3747-0.5333 2.0587-0.7866 1.58-0.4534 3.148-0.9067 4.7027-1.3467 12.669-3.1467 25.897-2.5867 37.549-0.2667 11.695 2.32 21.92 5.9734 30.117 9.4667 8.2173 3.5067 14.473 6.84 18.756 9.08 2.6893 1.4933 4.584 2.5467 5.6027 3.1067 7.3733 12.973 15.32 25.333 23.613 37.12 15.553 21.947 32.189 41.8 48.913 60.373zm354.78 400.76c5.7787-7.3734 11.415-14.707 16.895-22.013 5.244-7.0533 10.46-14.08 15.664-21.093 9.9507-13.347 19.252-24.96 28.849-34.453 1.184-1.2267 2.412-2.2934 3.604-3.4667l3.5587-3.2133c2.4106-2.04 4.836-4.0534 7.3294-5.8534 4.9613-3.6533 10.051-6.8 15.153-9.36 9.976-5.04 19.947-7.7066 29.485-8.2133-0.4946 9.5467-3.1746 19.52-8.2066 29.493-2.568 5.0934-5.7134 10.187-9.368 15.147-1.7974 2.4933-3.8054 4.92-5.848 7.3333l-3.2094 3.56c-1.1693 1.1867-2.244 2.4134-3.476 3.6-9.4853 9.6-21.101 18.907-34.452 28.853-7.008 5.2-14.031 10.413-21.092 15.667-7.2973 5.48-14.641 11.107-22.013 16.893-33.5 26.307-63.933 52.907-90.413 77.533 24.628-26.48 51.229-56.907 77.54-90.413zm508.25 618.81c7.0587-2.5734 13.316-6.0134 18.9-9.8667 5.58-3.88 10.475-8.2133 14.773-12.827 8.5826-9.24 14.841-19.573 18.932-30.293 2.0346-5.3733 3.5146-10.84 4.4213-16.307 0.2-1.3866 0.4-2.7466 0.5733-4.1066 0.1067-1.3734 0.2267-2.7334 0.3334-4.0934 0.067-2.56 0.053-5.04 0.04-7.5066-0.3067-9.8134-2.0934-18.827-4.56-26.84-2.42-8.0534-5.7814-15.027-9.1454-21.227-6.9173-12.347-14.413-21.44-20.895-28.333-6.5147-6.88-12.061-11.56-15.799-14.693-1.2347-0.9866-2.26-1.7866-3.1133-2.4533 8.7706 4.9067 17.8 9.5733 27.151 13.88 18.34 12.867 43.015 27.947 74.375 41.867 2.4933 1.12 5.0133 2.2533 7.56 3.3866 2.6 1.0267 5.2133 2.0534 7.8667 3.1067 5.32 2.0533 10.76 4.2133 16.373 6.2933 11.32 3.7067 23.12 7.8534 35.667 10.96 24.973 6.6667 52.36 12.013 81.64 14.28 1.8266 0.1734 3.6666 0.3867 5.5066 0.5067 1.8534 0.093 3.6934 0.1867 5.5467 0.2667 3.7333 0.1733 7.4667 0.3466 11.227 0.52 7.5333 0.48 15.16 0.2933 22.88 0.2266 3.8666-0.067 7.7466-0.053 11.653-0.2 3.9067-0.2533 7.8267-0.4933 11.747-0.7466 3.96-0.2667 7.92-0.5467 11.893-0.8134 3.9467-0.3733 7.88-0.92 11.853-1.3733 0.5867-0.08 1.1734-0.1467 1.76-0.2267 22.56 0.4 46.707-0.5733 72.08-3.3866 33.773-3.6 69.6-11.027 106.4-22.347 4.5734-1.4667 9.16-3.04 13.787-4.5867 2.3067-0.7866 4.6267-1.56 6.9467-2.3466 2.3066-0.8667 4.6133-1.7334 6.92-2.6 4.6133-1.76 9.2933-3.44 13.92-5.32 4.6133-1.9334 9.2533-3.88 13.907-5.84l3.5067-1.48 3.4667-1.5867c2.3066-1.0667 4.6133-2.1467 6.9333-3.2133 4.64-2.16 9.32-4.2934 13.907-6.7067 4.6-2.36 9.24-4.6933 13.867-7.12 4.5734-2.56 9.16-5.12 13.76-7.6933 4.64-2.52 9.0934-5.4 13.667-8.1467 2.28-1.4 4.5467-2.7867 6.84-4.1867 2.28-1.4 4.48-2.9466 6.7333-4.4133 4.4667-3 9.0134-5.92 13.44-9.0533 4.4-3.1867 8.8267-6.3734 13.253-9.5867 17.493-13.147 34.507-27.533 50.76-43.16 3.9734-4 7.9467-7.9867 11.893-11.96 3.52-3.6267 7.04-7.2267 10.547-10.827 6.68-6.7466 13.173-12.747 19.32-17.44 6.1067-4.6533 11.893-7.8533 15.733-9.0133 1.9466-0.6533 3.32-0.8133 4.4533-0.88 0.3067-0.067 0.56 0.04 0.8533-0.013 0.2667 0.053 0.5467 0.027 0.84 0.08 0.28 0.08 0.5867 0.04 0.9067 0.1733 0.16 0.04 0.32 0.08 0.48 0.093 0.12 0.04 0.2 0.08 0.3067 0.093 0.2266 0.013 0.36 0.1466 0.5866 0.16 0.16 0.12 0.3867 0.12 0.5467 0.2533 0.4 0.1333 0.76 0.4267 1.2133 0.7333 0.44 0.32 0.8934 0.8 1.4 1.32 0.4667 0.6 1.0134 1.2134 1.48 2.04 1 1.5467 1.8667 3.6267 2.5734 5.88 0.6533 2.3067 1.12 4.8267 1.2933 7.4 0.1467 2.5734 0.08 5.1867-0.28 7.6267-0.1867 1.2267-0.4 2.4267-0.7067 3.5467-0.1066 0.6-0.32 1.1066-0.4533 1.6666l-0.28 0.7867c-0.093 0.28-0.1333 0.48-0.3067 0.8533-2.24 5.3867-5.4 10.72-9.7333 15.907-4.32 5.1867-9.6 10.213-15.493 15.013-5.9334 4.7867-12.44 9.3467-19.24 13.787-3.3734 2.2267-6.88 4.4267-10.44 6.5867-3.52 2.16-7.0267 4.32-10.507 6.4666-3.4933 2.1067-7.0133 4.1067-10.48 6.1467-3.48 2.0267-6.8933 4.1067-10.373 5.9867-27.613 15.533-54.267 28.627-79.173 39.573-24.907 10.947-48.067 19.72-68.693 26.8-20.64 7.0533-38.707 12.613-53.653 16.667-3.72 1.0133-7.24 2.08-10.573 2.9066-3.32 0.8534-6.44 1.6534-9.3334 2.4-2.8933 0.7467-5.5733 1.44-8.0266 2.0667-2.4534 0.5867-4.68 1.1067-6.68 1.5733-7.9334 1.9067-12.2 2.9334-12.2 2.9334s4.3866 0 12.547 0.013c2.0667-0.013 4.3734-0.013 6.92-0.027 2.5467-0.08 5.32-0.16 8.32-0.2533 3.0267-0.1067 6.28-0.2133 9.7467-0.3333s7.16-0.4134 11.067-0.64c15.693-0.8934 34.84-2.8134 57.04-6.08 22.173-3.2934 47.36-8.1467 74.84-15.413 27.467-7.2666 57.227-16.947 88.387-29.693 3.92-1.5333 7.7867-3.2667 11.72-4.96 3.92-1.72 7.9067-3.4133 11.867-5.2133 3.9466-1.8534 7.9333-3.7067 11.933-5.5867 4-1.8533 8.0533-3.8133 12.187-5.9333 8.2533-4.2267 16.76-8.92 25.36-14.547 8.5733-5.6533 17.253-12.293 25.493-20.453 8.2267-8.16 15.907-18.147 21.867-29.653 0.3733-0.6666 0.7733-1.56 1.1466-2.3466 0.3867-0.8134 0.7734-1.64 1.1334-2.4534 0.6666-1.6533 1.4-3.3066 1.9733-4.9733 1.2533-3.3467 2.2267-6.72 3.08-10.133 1.6533-6.8267 2.5067-13.773 2.6667-20.8 0.24-14.013-2.2534-28.533-9.2667-42.813-1.7333-3.56-3.88-7.08-6.2267-10.507-2.44-3.4134-5.1466-6.7467-8.2533-9.8534-6.2-6.2266-13.853-11.667-22.293-15.293-1.04-0.44-2.1067-0.9067-3.16-1.3067l-3.0667-1.08c-2.0267-0.7466-4.1867-1.28-6.32-1.84-2.1467-0.5333-4.3467-0.92-6.5467-1.3066-2.2133-0.2667-4.44-0.6134-6.6533-0.6934-8.9067-0.5466-17.707 0.4934-25.52 2.5867-7.8667 2.0533-14.933 4.9867-21.227 8.28-6.32 3.2933-12 6.9333-17.253 10.693-10.413 7.56-19.267 15.627-27.4 23.6-7.28 7.3067-14.587 14.653-21.947 22.04-14.267 13.693-29.04 26.52-44.187 38.52-3.84 2.9334-7.6533 5.8667-11.467 8.7867-3.84 2.88-7.7733 5.6-11.627 8.4-1.9467 1.3733-3.84 2.8267-5.8267 4.1333-1.9733 1.32-3.9467 2.64-5.9067 3.96-3.96 2.6-7.7866 5.36-11.813 7.7734-3.9733 2.4933-7.9467 4.9866-11.893 7.4666-4.0267 2.3467-8.0267 4.6934-12.013 7.04-3.96 2.4-8.0266 4.5467-12.053 6.7334-0.6667 0.36-1.32 0.72-1.9733 1.08 11.307-14.16 20.84-29.24 28.333-44.893 13.733-28.573 20.613-58.787 20.493-87.147-0.1066-14.093-1.8-27.533-4.6533-40.08-2.84-12.56-7.0133-24.2-11.933-34.773-0.6134-1.32-1.24-2.6267-1.8534-3.92-0.64-1.2934-1.3333-2.5467-1.9866-3.8134-0.68-1.24-1.3334-2.4933-2-3.72-0.72-1.2-1.4267-2.4-2.1334-3.6-0.72-1.1733-1.4266-2.3466-2.1333-3.5066-0.7467-1.1334-1.5067-2.2667-2.2533-3.3867-0.7467-1.1067-1.4667-2.2-2.24-3.3067-0.8134-1.12-1.6267-2.2266-2.4267-3.32-6.6133-8.6133-13.947-15.587-21.333-21.133-7.4-5.5467-14.813-9.7067-21.813-12.853-1.7466-0.8267-3.5066-1.4934-5.1866-2.2-0.8534-0.32-1.6934-0.64-2.5334-0.9467-0.4133-0.16-0.8266-0.3067-1.24-0.4667l-1.0533-0.36c-2.7067-0.9333-4.9867-1.9733-6.7333-3.2133-0.8667-0.6133-1.6667-1.3067-2.2534-1.9867-0.48-0.4666-0.88-1.12-1.1466-1.9333-0.5467-1.6133-0.4934-3.68-0.12-5.56 0.76-3.84 2.6266-7.0533 4.5066-9.1867 1.88-2.1866 3.9067-3.2533 5.3867-3.6266 0.7467-0.1867 1.3333-0.2267 1.7333-0.2267 0.4 0.013 0.6134 0.027 0.6134 0.027s-0.2-0.08-0.5734-0.2134c-0.3866-0.1333-1-0.2933-1.84-0.36-1.6533-0.1333-4.3066 0.32-7.2 2.0934-2.8666 1.7733-6.08 4.6266-8.5866 9.2266-1.2134 2.32-2.3067 5.12-2.3334 8.6934-0.013 1.7733 0.3067 3.76 1.1734 5.72 0.7333 1.7466 1.7066 3.3066 2.8666 4.8133 2.32 3 5.2667 5.4133 8.3067 7.52l1.1333 0.76 0.96 0.6933c0.64 0.4667 1.2934 0.92 1.9467 1.4 1.2667 1 2.6 1.9467 3.88 3.0267 5.2 4.2267 10.387 9.24 15.147 15.08s9.0266 12.56 12.413 19.987c0.4 0.9333 0.8 1.88 1.2 2.8266 0.4 1.0134 0.7867 2.0267 1.1867 3.0534 0.4 1.0133 0.8 2.0533 1.2 3.08 0.3466 1.0666 0.7066 2.12 1.0666 3.2 0.36 1.0666 0.72 2.1333 1.08 3.2133 0.3067 1.0933 0.6267 2.2 0.9334 3.3067 0.3066 1.1066 0.6533 2.2133 0.9333 3.3333 0.2667 1.1333 0.5467 2.28 0.8133 3.4267 2.12 9.16 3.5334 18.88 3.8934 28.987 0.3466 10.093-0.2267 20.56-1.9067 31.067-3.44 20.84-11.76 42.307-24.547 62.413-12.747 20.133-30.147 38.933-50.88 54.813-10.32 7.88-21.6 15.253-33.693 21.747-12.08 6.5333-24.893 12.373-38.32 17.52-13.44 5.1067-27.173 9.4-40.987 13.027-3.44 0.9466-6.9333 1.7066-10.373 2.5866-3.48 0.7867-6.96 1.56-10.427 2.3467-3.5466 0.6933-7.12 1.4933-10.627 2.12-3.5067 0.64-7.0134 1.2933-10.507 1.9333-3.48 0.64-6.96 1.36-10.413 1.9334-3.4534 0.4933-6.8934 0.9733-10.32 1.4533-3.4134 0.5067-6.8267 1.0133-10.227 1.5067-3.4 0.4133-6.8 0.6933-10.187 1.0533-6.7733 0.6667-13.467 1.52-20.133 1.7733-3.3333 0.2-6.64 0.4134-9.9467 0.6134-1.6533 0.1066-3.2933 0.2133-4.9333 0.3333-1.6533 0.067-3.28 0.067-4.92 0.1067-17.08 0.68-33.68 0.3866-49.693-0.5334 10.28-2.6266 20.453-5.6533 30.28-9.7733 5.4666-2.04 10.72-4.7067 16-7.1867 1.3333-0.6 2.6133-1.3333 3.8933-2.04l3.8533-2.1466c2.5467-1.4534 5.1467-2.76 7.6-4.4267 19.92-12.453 37.88-28.427 51.68-47.547 13.827-19.093 23.6-40.813 28.04-63.96 2.2534-11.533 3.0134-23.44 2.2667-35.267-0.12-2.9334-0.5333-5.9467-0.8667-8.9067-0.3866-2.9733-0.96-5.8933-1.48-8.8133-1.28-5.7734-2.7733-11.48-4.7733-16.973-3.9467-11-9.2-21.413-15.947-30.853-6.72-9.4266-14.773-17.947-24-25.067-2.2933-1.7867-4.7466-3.4-7.12-5.0667-2.52-1.5067-4.9466-3.0533-7.56-4.4267-5.2533-2.76-10.627-5.1466-16.12-6.9066-10.947-3.6134-22.16-5.3467-33.253-5.3734-2.7733 0.013-5.5467 0.1867-8.2933 0.3067-2.72 0.32-5.56 0.5733-8.1467 1l-3.7467 0.72-1.8666 0.36-0.44 0.093-0.093 0.04-0.1733 0.08c-0.4933 0.2134-1.0133 0.3867-1.52 0.6534-2.0667 0.9733-4.2267 2.3733-6.32 4.2666l-0.3467 0.32-0.1866 0.16c-0.013-0.04-0.013-0.1066-0.027-0.1466l-0.1333-0.64c-0.093-0.4267-0.1467-0.8667-0.28-1.32-0.28-0.88-0.5067-1.8267-0.9334-2.7734-0.3466-0.9733-0.8666-1.9333-1.3733-2.9466-0.1067-0.2534-0.2533-0.4934-0.4133-0.7467-0.1467-0.2533-0.2934-0.48-0.48-0.8667l-0.1467-0.2666-0.3333-0.7067-0.6934-1.44c-0.4266-0.9733-0.9466-1.9067-1.48-2.8133-8.1333-14.813-18.813-27.413-31.36-37.053-1.5733-1.1866-3.1333-2.3733-4.6933-3.56-1.6533-1.0666-3.2933-2.12-4.9333-3.1866l-2.4667-1.56c-0.8133-0.52-1.7067-0.9467-2.5467-1.4134-1.72-0.9066-3.4266-1.8133-5.12-2.7066-1.7066-0.9067-3.5333-1.5867-5.28-2.36-1.7733-0.72-3.48-1.56-5.3066-2.1467-1.8134-0.5867-3.6267-1.1733-5.4267-1.76-0.9067-0.28-1.8-0.5867-2.7067-0.84l-2.76-0.64c-14.707-3.5333-29.44-3.5467-42.84-1.1067-13.427 2.5334-25.64 7.4134-36.316 13.733-10.677 6.32-19.829 14.133-27.225 22.773-7.408 8.6267-13.008 18.24-16.803 27.747-3.5826 9.28-5.812 17.573-8.7373 24.627-1.44 3.52-2.9893 6.72-4.76 9.4934-1.7867 2.7333-3.7907 4.9866-6.04 6.7866-0.5853 0.4-1.1013 0.9467-1.732 1.2667-0.6133 0.36-1.2227 0.7333-1.8267 1.0933-0.6093 0.2934-1.2053 0.56-1.8213 0.84-0.6387 0.1867-1.2547 0.4667-1.9093 0.6267-2.5947 0.7067-5.3494 0.88-8.0067 0.6-5.344-0.5467-10.197-2.88-13.661-6.0533-3.4387-3.2-5.5427-7.2667-6.4307-11.253-0.96-3.9733-0.8427-7.7733-0.2587-10.96 0.5774-3.1866 1.6307-5.7866 2.656-7.7866 1.092-1.9734 2.1107-3.3867 2.864-4.2667 0.7667-0.88 1.1574-1.3333 1.1574-1.3333s-0.468 0.3733-1.3867 1.1066c-0.916 0.7467-2.196 1.9734-3.6933 3.8-1.4254 1.8667-3.028 4.4-4.2587 7.7467-1.2293 3.3467-2.1187 7.52-1.7987 12.36 0.1494 2.4133 0.584 5.0133 1.5374 7.6267 0.928 2.6266 2.3 5.32 4.2386 7.7866 3.8627 4.9334 9.7147 9.12 17.056 11.12 3.6627 0.9867 7.7094 1.4267 11.956 0.9733 1.0627-0.08 2.1254-0.3333 3.208-0.5066 1.0654-0.2534 2.156-0.56 3.2214-0.8934 1.0186-0.4 2.0453-0.8 3.08-1.2133 1.0573-0.3867 1.9946-1 3.012-1.52 3.9653-2.2267 7.5826-5.28 10.659-8.72 3.0507-3.4666 5.6094-7.2666 7.9187-11.16 4.616-7.8 8.1853-16.107 12.34-23.507 4.0893-7.08 9.2947-13.667 15.831-19.493 6.5-5.8 14.211-10.76 22.744-14.44 8.5333-3.6666 17.907-6.0666 27.493-6.68 9.5867-0.5333 19.253 0.7734 28.253 4.0934l1.7067 0.5733c0.56 0.24 1.1067 0.52 1.6667 0.7733 1.1066 0.4934 2.2133 1 3.32 1.5067 1.12 0.48 2.16 1.2133 3.24 1.7867 1.0666 0.64 2.1866 1.1466 3.2133 1.88 1.0267 0.7066 2.0667 1.4133 3.0933 2.1333 0.52 0.36 1.0534 0.6667 1.5467 1.0667l1.48 1.2133c0.9867 0.8 1.9733 1.6 2.96 2.4 0.9333 0.88 1.8533 1.7733 2.7867 2.6667 7.4666 7.08 13.44 16.08 17.547 25.72 0.28 0.6 0.5467 1.2 0.7334 1.8266l0.32 0.9334 0.16 0.4666 0.36 0.9334c0.52 1.16 0.9466 2.5866 1.3733 3.9733 0.2267 0.6933 0.4533 1.3867 0.6 2.1333 0.1333 0.7467 0.2 1.5867 0.32 2.3734 0.4 3.2133 0.8 6.44 1.2 9.68l0.2933 2.44 0.16 2.68c0.1067 1.8 0.2134 3.6133 0.32 5.4133 0.4667 7.24 0.76 14.6 1.0934 22.08 0.093 1.9333 0.1333 3.6133 0.1866 5.36l0.16 5.2533 0.16 5.2933 0.04 1.32 0.1867 0.96 0.36 1.9467 4.7333-3.3733c1.7467-1.2134 3.4934-2.44 5.24-3.6667 1.8-1.2533 3.6-2.5067 5.4-3.7733 1.8934-1.2934 3.7734-2.5867 5.6667-3.88 1.9067-1.3067 3.8133-2.6134 5.72-3.92 1.8933-1.2667 3.7733-2.5467 5.6667-3.8267l2.8533-1.92 1.4267-0.96 1.3466-0.8667c1.8-1.16 3.6-2.32 5.4134-3.48l2.72-1.7466 0.3333-0.2267 0.32-0.1067 0.6533-0.2266 1.2934-0.44 5.2133-1.8 1.32-0.44 0.6533-0.2267c0.1467-0.04 0.2134-0.027 0.32-0.053l1.1734-0.1334 2.3466-0.28c1.4934-0.1066 2.7867-0.053 4.1734-0.1333 1.4 0.093 2.7866 0.1067 4.1733 0.2267 5.5467 0.5066 11.067 1.8933 16.093 4.0533 2.5467 1.0267 4.8934 2.3867 7.1334 3.7867 1.1333 0.7066 2.2533 1.6133 3.4 2.3733 1.0666 0.9467 2.1866 1.76 3.24 2.7333 4.2 3.8267 7.9733 8.44 11.147 13.613 3.1867 5.16 5.6134 11 7.3334 17.013 0.9066 3 1.4533 6.1067 1.9733 9.1867 0.1467 1.56 0.3867 3.1066 0.48 4.6533 0.053 1.56 0.2267 3.0667 0.16 4.7067 0.013 6.4-0.7067 12.973-2.3867 19.547-3.2133 13.133-9.76 26.267-18.747 37.653-8.9867 11.48-20.693 21.24-34.053 29.147-1.6 1.08-3.4266 1.8667-5.1466 2.8l-2.6 1.3734c-0.8667 0.4666-1.72 0.9466-2.6534 1.32-3.6533 1.56-7.1866 3.36-11.027 4.6533-7.4534 3.0133-15.427 5.0667-23.44 6.9867-2.04 0.3866-4.0667 0.7733-6.1067 1.16-1.0267 0.1866-2.04 0.4133-3.0667 0.5733l-3.1066 0.4133c-2.0667 0.28-4.1467 0.56-6.2134 0.84-2.0933 0.16-4.1866 0.3334-6.2933 0.4934l-3.1467 0.2666-3.16 0.08c-2.1066 0.053-4.2133 0.12-6.3333 0.1867-2.1067-0.053-4.2267-0.12-6.3467-0.1733l-3.1733-0.067-3.16-0.2533c-5.8533-0.36-11.907-1.1334-17.88-2.0667l-4.4667-0.7733c-1.4933-0.2667-2.9866-0.48-4.48-0.84-2.96-0.68-5.9333-1.2534-8.8933-1.9734-11.84-2.8666-23.52-6.7333-34.973-11.32-22.929-9.1733-44.928-21.24-65.825-34.853-20.831-13.68-40.769-29.027-60.112-44.88-19.352-15.907-38.169-32.307-56.984-48.373-18.792-16.067-37.605-31.76-56.757-46.36-9.5973-7.2667-19.245-14.267-28.967-20.92-9.7746-6.6-19.579-12.88-29.485-18.707-19.855-11.613-39.983-21.573-60.245-29.12-10.08-3.88-20.228-7.04-30.255-9.7333-5.056-1.2-10.063-2.4-15.016-3.5733-4.9813-0.9867-9.9387-1.76-14.803-2.6134-1.2173-0.2-2.4293-0.4133-3.64-0.6133-1.216-0.1733-2.436-0.28-3.6466-0.4267-2.4214-0.2533-4.828-0.52-7.2214-0.7866-2.3853-0.2534-4.756-0.5067-7.1133-0.76-2.3653-0.1067-4.7173-0.2267-7.0547-0.3467-2.3293-0.1067-4.644-0.2133-6.9453-0.32-1.148-0.053-2.292-0.1067-3.432-0.16-1.14-0.04-2.2827 0.013-3.416 0.013-4.5213 0.067-8.9867 0.12-13.392 0.1867-1.0973-0.013-2.1907 0.053-3.28 0.1467-1.0333 0.067-2.0627 0.1466-3.088 0.2133 0.2667-0.053 0.5253-0.12 0.7933-0.1867 9.952-2.2666 20.473-3.96 31.4-5.16 2.7427-0.24 5.484-0.6 8.2787-0.7733 2.7907-0.1733 5.6013-0.36 8.432-0.5333 2.8387-0.08 5.6973-0.1467 8.576-0.2267 2.876-0.067 5.784 0.04 8.6987 0.04 23.329 0.4667 47.915 3.9867 72.003 11.733 12.036 3.8667 23.928 8.7867 35.399 14.813 11.389 5.8266 23.659 13.933 38.433 22.227 7.36 4.1334 15.439 8.3067 24.349 12.027 2.184 0.96 4.5533 1.8 6.836 2.6933l3.564 1.24c1.1906 0.4134 2.364 0.8134 3.6893 1.2 2.576 0.7734 5.164 1.5334 7.8 2.1334 2.616 0.68 5.292 1.1733 7.972 1.6666 10.733 1.9067 22.06 2.4134 33.899 1.1334 5.9493-0.7867 11.98-1.8534 18.112-3.8267 3.0426-0.8533 6.1213-2.12 9.16-3.3333 1.5213-0.64 3.0386-1.4134 4.548-2.1334 1.5106-0.7333 3.0133-1.48 4.488-2.3866 1.48-0.88 2.9506-1.76 4.4053-2.6667 1.44-0.96 2.844-2 4.2467-3.0267l2.0866-1.56c0.684-0.5333 1.336-1.1333 1.9987-1.6933 1.32-1.1467 2.624-2.32 3.9107-3.4933 1.2546-1.24 2.4586-2.56 3.6613-3.8534 1.1813-1.32 2.428-2.6 3.452-4.0266 2.1173-2.8 4.272-5.6 5.9587-8.6 0.8786-1.48 1.772-2.96 2.5813-4.4667 0.744-1.52 1.4707-3.04 2.1787-4.5733l1.0466-2.2934c0.3294-0.7733 0.5934-1.5466 0.8867-2.32 0.5707-1.5466 1.1227-3.0933 1.6587-4.6533 0.548-1.5467 0.8933-3.1067 1.3253-4.6533 0.388-1.56 0.8427-3.12 1.1307-4.6667l0.8173-4.64 0.3747-2.32 0.2293-2.2933c1.272-12.28 0.2573-24.16-2.5107-35.44-0.796-2.7867-1.528-5.6-2.4813-8.3334l-1.5013-4.08-0.776-2.0266-0.888-1.9867-1.8134-3.96c-0.5986-1.32-1.356-2.6-2.04-3.88-0.704-1.28-1.4106-2.5867-2.136-3.8l-2.2133-3.4533c-5.9733-9.1334-13.049-17.08-20.548-23.72-7.4987-6.6934-15.377-12.213-23.299-16.88-15.883-9.3334-31.853-15.267-47.349-19.667-15.62-4.3333-31.12-7-46.181-8.3467-15.087-1.2-29.708-0.9333-43.668 0.2267-6.9694 0.8533-13.797 1.4933-20.408 2.8267-1.6507 0.3066-3.296 0.6-4.9347 0.8933-1.636 0.2933-3.26 0.5867-4.86 1-3.1893 0.7733-6.3547 1.5333-9.496 2.2933l-2.3333 0.5734-2.3 0.68c-1.5214 0.4533-3.0374 0.92-4.5467 1.3733-1.5 0.4533-2.9947 0.9067-4.4827 1.36-1.4853 0.4533-2.96 0.9067-4.3973 1.4667-5.7653 2.16-11.431 4.0533-16.744 6.5333-2.6587 1.1733-5.292 2.3467-7.9 3.4933-2.524 1.2934-5.024 2.5734-7.4973 3.84-4.96 2.4134-9.548 5.2667-14.019 7.92-1.1133 0.6667-2.22 1.3334-3.3187 2-1.0613 0.72-2.1173 1.4267-3.1653 2.1467-2.0747 1.4133-4.1227 2.8267-6.1453 4.2-2.0294 1.36-3.9414 2.7867-5.7107 4.1333-1.7107 1.28-3.3973 2.5467-5.0587 3.7867-3.2213 2.3733-6.184 4.3333-9.04 5.8133-1.424 0.7067-2.8253 1.3734-4.204 1.8267-0.676 0.2533-1.412 0.4667-2.0293 0.64-0.5947 0.1467-1.2027 0.3067-1.8387 0.3867-2.532 0.44-5.22 0.1733-7.624-0.44-2.4066-0.64-4.4786-1.7467-6.08-3.1067-0.3986-0.3333-0.728-0.7067-1.1-1.08-0.272-0.4-0.6493-0.76-0.8853-1.1867-0.22-0.4266-0.5533-0.8266-0.6973-1.2933-0.18-0.44-0.4147-0.92-0.508-1.2667-0.4947-1.4933-0.272-3.3333 0.4866-5 0.7454-1.6666 1.928-3.1466 3.2147-4.2533 1.2893-1.1333 2.6907-1.92 4.024-2.4 2.6907-0.96 5.0573-0.4933 6.4267 0.2667 0.352 0.1733 0.6533 0.36 0.8933 0.5466 0.256 0.1734 0.4587 0.32 0.608 0.4667 0.3133 0.28 0.4733 0.4133 0.4733 0.4133s-0.1093-0.1866-0.3226-0.5466c-0.1027-0.1867-0.2507-0.4-0.4507-0.6534-0.1853-0.2666-0.4307-0.5466-0.74-0.8533-0.612-0.6-1.4973-1.3067-2.7493-1.8133-1.244-0.5067-2.8347-0.8134-4.6467-0.76-1.8013 0.093-3.8227 0.52-5.8867 1.4666-2.0626 0.9334-4.204 2.3467-6.1053 4.5334-1.8693 2.1333-3.568 5.2666-3.6707 9.1733-0.039 1.0133 0.077 1.8533 0.1707 2.76 0.057 0.92 0.3413 1.8133 0.5533 2.7467 0.228 0.9333 0.6307 1.8 0.9787 2.7333 0.4333 0.8667 0.8787 1.7733 1.4147 2.6267 2.1586 3.3866 5.2573 6.3333 8.9426 8.5333 3.7054 2.16 7.9667 3.8133 12.82 4.4 9.9187 1.1467 19.515-1.9333 28.132-5.56 4.3427-1.7867 8.3854-3.7867 12.432-5.3067 2.0334-0.8133 4.0947-1.6266 6.1827-2.4533 1.0413-0.4133 2.088-0.8267 3.1427-1.24 1.084-0.36 2.1746-0.72 3.2706-1.08 4.3894-1.44 8.8094-3.0533 13.528-4.2133 2.3294-0.64 4.684-1.28 7.0627-1.9334 2.4213-0.52 4.868-1.0533 7.3373-1.5866 4.8854-1.2134 10.047-1.8267 15.199-2.7334 1.2827-0.2533 2.6-0.3866 3.9227-0.52 1.3186-0.1466 2.6426-0.28 3.972-0.4266 1.328-0.1467 2.66-0.3067 3.9986-0.4534 0.668-0.067 1.3347-0.16 2.0094-0.2133l2.0373-0.12c2.7173-0.16 5.4547-0.32 8.212-0.48 1.372-0.12 2.764-0.12 4.16-0.12 1.3947 0 2.7933-0.013 4.1973-0.027 5.6014-0.1866 11.315 0.28 17.068 0.4534 11.52 0.92 23.28 2.4666 35.092 5.0666 11.781 2.7467 23.584 6.3867 35.173 11.067 11.624 4.7733 22.855 10.48 32.284 17.32 9.4493 6.8133 17.043 14.587 21.504 22.787l0.8573 1.5333 0.612 1.3867c0.1907 0.4666 0.4587 0.8666 0.6133 1.36 0.1667 0.4933 0.3427 0.9733 0.528 1.4533l0.2854 0.7067 0.212 0.76c0.1413 0.5066 0.292 1 0.452 1.5066 0.2946 1 0.444 2.0667 0.732 3.08 0.756 4.1867 0.8293 8.48 0.2786 12.2-0.492 3.7867-1.7733 6.76-3.1253 8.8534-0.2667 0.6-0.74 0.9466-1.0467 1.4533-0.1266 0.28-0.3986 0.4-0.58 0.6133-0.204 0.1867-0.356 0.4134-0.5546 0.6267-0.2547 0.1867-0.4934 0.3733-0.7174 0.5867-0.1173 0.093-0.208 0.2266-0.3373 0.32-0.1413 0.08-0.2773 0.1733-0.4107 0.2533-0.2746 0.1733-0.504 0.4-0.7786 0.5867-0.3147 0.16-0.6174 0.3333-0.9094 0.52-0.264 0.2133-0.628 0.36-0.9773 0.52-0.3573 0.1466-0.656 0.36-1.0373 0.52-0.8134 0.2533-1.5014 0.6666-2.4334 0.88-1.6773 0.6266-3.7546 0.9733-5.8773 1.3333-4.384 0.5333-9.4307 0.5867-14.577-0.16-1.284-0.2133-2.5747-0.3733-3.8547-0.6667-1.292-0.2266-2.5547-0.56-3.824-0.8666-0.608-0.1334-1.3267-0.36-2.032-0.5734l-2.1147-0.6133c-1.44-0.52-2.8506-0.9067-4.3253-1.48-5.8387-2.12-11.945-4.8-18.38-7.92-6.4307-3.1067-13.119-6.56-20.229-10.12-7.1187-3.5333-14.521-7.24-22.553-10.453-15.753-6.56-31.732-11.293-47.475-14.427-31.531-6.2667-61.969-6.2-89.441-2.3333-3.4333 0.5466-6.8386 0.9866-10.183 1.6266-3.3254 0.6534-6.6294 1.3067-9.9094 1.9467-3.2293 0.7733-6.436 1.5467-9.6186 2.3067-3.1654 0.76-6.2547 1.7333-9.3227 2.5866-12.225 3.64-23.675 7.84-34.235 12.587-21.111 9.52-38.823 20.547-53.049 31.68-6.0493 4.6933-11.491 9.36-16.384 13.907-2.104 0.1866-4.2067 0.3866-6.3027 0.6533-4.072 0.5733-8.1373 1.16-12.197 1.7333-2.032 0.2534-4.044 0.6934-6.0573 1.0934l-6.0333 1.2c-16.032 3.4-31.821 7.9466-46.889 14.24-1.8907 0.76-3.7893 1.4933-5.6653 2.28l-5.54 2.5866-5.52 2.6c-1.8347 0.8667-3.6733 1.7067-5.4773 2.7067-7.3013 3.7333-14.269 7.9467-21.063 12.333-6.7893 4.4-13.243 9.2134-19.507 14.16-3.8787 3.1067-7.6253 6.3467-11.285 9.6534 1.5893-4.0534 2.8253-8.36 3.564-12.853 1.0093-6.36 0.97734-12.667 0.15334-18.64 6.6733-3.0133 13.831-6.3333 21.424-10 45.395-21.88 106.06-55.88 165.95-102.92 7.488-5.8666 14.779-11.8 21.873-17.773 7.0707-5.9333 14.131-12.013 21.116-18.507 13.92-12.893 27.355-27.4 37.94-43.693 1.348-1.9867 2.5774-4.12 3.8334-6.1467 1.2266-2.1066 2.4333-4.2533 3.5773-6.3866 2.2387-4.3067 4.3053-8.6134 6.0587-13.013 3.5546-8.76 6.144-17.653 7.708-26.507 3.192-17.68 1.8733-35.28-3.0854-49.867-2.304-6.8667-5.4106-12.853-8.864-18.08-5.2186-3.4533-11.215-6.56-18.081-8.8533-14.58-4.96-32.183-6.28-49.857-3.0934-8.8494 1.56-17.749 4.16-26.505 7.7067-4.3987 1.76-8.708 3.8267-13.021 6.0667-2.128 1.1333-4.276 2.3466-6.3787 3.5733-2.036 1.2533-4.1613 2.48-6.1533 3.84-16.295 10.573-30.793 24.013-43.688 37.933-6.4907 6.9867-12.579 14.04-18.515 21.12-5.9653 7.0934-11.903 14.387-17.772 21.867-47.04 59.893-81.031 120.56-102.92 165.96-3.664 7.5867-6.9893 14.747-9.9987 21.413-5.9707-0.8133-12.288-0.8533-18.648 0.16-4.4907 0.7334-8.792 1.9734-12.845 3.56 3.3067-3.6533 6.5413-7.4 9.648-11.28 4.956-6.2666 9.7573-12.72 14.159-19.507 4.388-6.8 8.6093-13.76 12.345-21.067 0.99467-1.8 1.8307-3.64 2.704-5.48l2.5987-5.52 2.5867-5.5333c0.78534-1.88 1.52-3.7734 2.2787-5.6667 6.2947-15.067 10.841-30.853 14.233-46.893l1.2093-6.0267c0.396-2.0133 0.83333-4.0267 1.0853-6.0667 0.57867-4.0533 1.1587-8.12 1.7387-12.187 0.272-2.1067 0.46933-4.2 0.64933-6.3067 4.5427-4.8933 9.2147-10.333 13.911-16.387 11.137-14.227 22.16-31.933 31.681-53.053 4.7467-10.56 8.944-22 12.585-34.227 0.85067-3.0666 1.82-6.16 2.584-9.32 0.764-3.1866 1.5333-6.4 2.308-9.6266 0.64534-3.28 1.2947-6.5867 1.9493-9.9067 0.636-3.3467 1.0787-6.7467 1.6213-10.187 3.864-27.467 3.9387-57.907-2.3347-89.44-3.1333-15.733-7.86-31.72-14.427-47.467-3.2147-8.04-6.9213-15.44-10.443-22.56-3.5613-7.1067-7.0227-13.8-10.124-20.227-3.1253-6.44-5.8053-12.547-7.916-18.387-0.576-1.4666-0.96933-2.88-1.48-4.32l-0.624-2.12c-0.21067-0.6933-0.43867-1.4133-0.56533-2.0266-0.31467-1.2667-0.65067-2.5334-0.87067-3.8267-0.29867-1.28-0.456-2.5733-0.66133-3.8533-0.75867-5.1467-0.7-10.187-0.16667-14.573 0.368-2.12 0.71067-4.2 1.3333-5.88 0.21467-0.9333 0.62934-1.6266 0.884-2.4266 0.152-0.3867 0.36534-0.6934 0.51867-1.04 0.16-0.3467 0.3-0.72 0.516-0.9867 0.19067-0.2933 0.36267-0.5867 0.51867-0.9067 0.19066-0.2666 0.41066-0.5066 0.58666-0.7733 0.0907-0.1333 0.176-0.2667 0.25867-0.4133 0.092-0.1334 0.22-0.2267 0.32-0.3334 0.212-0.2266 0.40533-0.4666 0.584-0.72 0.21067-0.2 0.43733-0.3466 0.62933-0.56 0.21067-0.1733 0.33067-0.4533 0.612-0.5733 0.50267-0.3067 0.85067-0.7867 1.4587-1.0533 2.0827-1.3467 5.068-2.6267 8.848-3.12 3.7253-0.5467 8.016-0.48 12.197 0.28 1.016 0.28 2.08 0.44 3.0867 0.7333 0.49733 0.16 0.99867 0.3067 1.504 0.4533l0.75733 0.2 0.71334 0.2934c0.47733 0.1866 0.95866 0.36 1.4453 0.52 0.49733 0.16 0.90267 0.4266 1.3653 0.6133l1.38 0.6133 1.5333 0.8667c8.208 4.4533 15.977 12.053 22.789 21.507 6.8373 9.4266 12.553 20.653 17.323 32.28 4.68 11.587 8.316 23.387 11.06 35.173 2.604 11.813 4.1533 23.573 5.0693 35.093 0.18133 5.7467 0.64933 11.467 0.452 17.067-9e-3 1.4-0.0173 2.8-0.0267 4.2 3e-3 1.3867-1e-3 2.7867-0.11733 4.16-0.16267 2.7467-0.32267 5.4933-0.48267 8.2l-0.112 2.04c-0.0573 0.68-0.148 1.3467-0.21867 2.0133-0.15066 1.3334-0.29866 2.6667-0.44666 4-0.14534 1.3334-0.29067 2.6534-0.43467 3.9734-0.13467 1.32-0.26933 2.64-0.51333 3.92-0.90534 5.1466-1.5267 10.307-2.7373 15.2-0.53333 2.4666-1.0613 4.92-1.584 7.3333-0.65333 2.3867-1.3 4.7333-1.94 7.0667-1.1613 4.72-2.7667 9.1333-4.2067 13.52-0.36267 1.1066-0.72267 2.2-1.08 3.28-0.41867 1.0533-0.83467 2.0933-1.2493 3.1333-0.824 2.0933-1.6387 4.16-2.4427 6.1867-1.528 4.0533-3.528 8.0933-5.316 12.44-3.6173 8.6133-6.6973 18.213-5.5493 28.12 0.57466 4.8666 2.228 9.12 4.392 12.827 2.204 3.68 5.144 6.7867 8.5387 8.9467 0.84667 0.5333 1.7573 0.9733 2.624 1.4133 0.932 0.3467 1.8053 0.7467 2.736 0.9734 0.93467 0.2133 1.82 0.4933 2.74 0.56 0.916 0.093 1.7533 0.2 2.7627 0.1733 3.9093-0.1067 7.0347-1.8133 9.1787-3.68 2.1773-1.8933 3.5907-4.04 4.528-6.1067 0.94134-2.0666 1.372-4.08 1.4627-5.88 0.0627-1.8133-0.24533-3.4-0.75733-4.6533-0.50934-1.2533-1.2093-2.1333-1.8147-2.7467-0.304-0.3066-0.58667-0.5466-0.852-0.7333-0.24933-0.2-0.468-0.36-0.656-0.4533-0.36133-0.2134-0.54533-0.32-0.54533-0.32s0.14133 0.16 0.416 0.4666c0.14266 0.1467 0.30133 0.3467 0.46933 0.6134 0.184 0.24 0.36667 0.5333 0.544 0.8933 0.75867 1.36 1.232 3.7333 0.272 6.4267-0.48667 1.3333-1.264 2.7333-2.3987 4.0133-1.116 1.2933-2.5893 2.48-4.2627 3.2267-1.6667 0.76-3.5067 0.9733-4.9987 0.48-0.33867-0.093-0.82533-0.32-1.2693-0.5067-0.46-0.1467-0.86134-0.48-1.2867-0.6933-0.424-0.24-0.792-0.6134-1.1933-0.8934-0.36134-0.3733-0.73867-0.6933-1.08-1.0933-1.3573-1.6-2.464-3.68-3.1067-6.08-0.60667-2.4133-0.87067-5.0933-0.436-7.6267 0.076-0.64 0.236-1.24 0.39333-1.84 0.172-0.6133 0.384-1.3466 0.63067-2.0266 0.46-1.3734 1.1187-2.7867 1.8373-4.2 1.4733-2.8667 3.4387-5.8267 5.8053-9.04 1.244-1.6667 2.5067-3.3467 3.788-5.0667 1.344-1.7733 2.768-3.68 4.128-5.7067 1.3853-2.0266 2.788-4.0666 4.2093-6.1466 0.712-1.0534 1.428-2.1067 2.148-3.16 0.66-1.1067 1.3227-2.2134 1.9893-3.32 2.6587-4.48 5.512-9.0667 7.928-14.027 1.2653-2.4667 2.5453-4.9733 3.8373-7.4933 1.1507-2.6134 2.3147-5.24 3.4893-7.9067 2.484-5.3067 4.376-10.973 6.5413-16.733 0.56-1.44 1.008-2.92 1.4573-4.4 0.45333-1.4934 0.91066-2.9867 1.3693-4.48 0.456-1.52 0.91467-3.0267 1.3747-4.5467l0.68-2.3067 0.56933-2.3333c0.75733-3.1333 1.52-6.3067 2.288-9.4933 0.412-1.6 0.71067-3.2267 1-4.8534 0.296-1.64 0.59467-3.2933 0.89333-4.9466 1.3413-6.6 1.9747-13.44 2.8307-20.4 1.156-13.96 1.428-28.587 0.22533-43.667-1.3467-15.067-4.0107-30.56-8.34-46.187-4.404-15.493-10.335-31.467-19.671-47.347-4.6653-7.92-10.191-15.8-16.876-23.307-6.6507-7.4933-14.589-14.573-23.723-20.547l-3.4507-2.2133c-1.2227-0.72-2.528-1.4267-3.8013-2.1333-1.2867-0.68-2.5613-1.44-3.8787-2.04l-3.96-1.8134-1.9947-0.88-2.0253-0.7866-4.0813-1.4934c-2.736-0.96-5.5387-1.6933-8.336-2.48-11.275-2.7733-23.153-3.7866-35.429-2.52l-2.2973 0.24-2.32 0.3734-4.64 0.8133c-1.5453 0.2933-3.1107 0.7467-4.664 1.1333-1.556 0.4267-3.104 0.7734-4.6587 1.32-1.5547 0.5334-3.1067 1.0934-4.6533 1.6667-0.77334 0.2933-1.5467 0.5467-2.3147 0.88l-2.3013 1.0533c-1.5307 0.7067-3.056 1.4267-4.572 2.1734-1.5027 0.8133-2.988 1.7066-4.4693 2.5866-2.992 1.68-5.7973 3.84-8.596 5.9467-1.4213 1.0267-2.6987 2.28-4.0187 3.4533-1.3 1.2134-2.62 2.4134-3.8573 3.6667-1.18 1.28-2.3467 2.5867-3.4947 3.9067-0.568 0.6666-1.1587 1.32-1.6947 2l-1.56 2.0933c-1.0227 1.4-2.0667 2.8-3.0227 4.24-0.90534 1.4533-1.7947 2.9333-2.6653 4.4133-0.90933 1.4667-1.6547 2.9734-2.3907 4.48-0.72667 1.5067-1.5013 3.0267-2.1387 4.5467-1.2067 3.04-2.48 6.12-3.3347 9.16-1.9707 6.1333-3.04 12.16-3.816 18.12-1.292 11.84-0.78133 23.16 1.128 33.893 0.49734 2.68 0.99334 5.36 1.668 7.9734 0.59867 2.64 1.3573 5.2266 2.1347 7.8 0.37867 1.32 0.78933 2.4933 1.1987 3.6933l1.24 3.56c0.892 2.28 1.7387 4.6533 2.6933 6.84 3.7213 8.9067 7.8933 16.987 12.031 24.347 8.2933 14.773 16.392 27.04 22.217 38.427 6.0347 11.48 10.949 23.373 14.817 35.4 7.7507 24.093 11.272 48.68 11.735 72.013-1e-3 2.9066 0.11066 5.8133 0.0387 8.6933-0.076 2.88-0.15066 5.7333-0.22666 8.5733-0.18 2.8267-0.35867 5.64-0.536 8.4267-0.16534 2.8-0.53067 5.5467-0.77334 8.28-1.204 10.933-2.8947 21.453-5.1573 31.4-0.0613 0.28-0.12933 0.5333-0.192 0.8 0.0733-1.0267 0.148-2.0533 0.22133-3.0933 0.0907-1.08 0.15467-2.1734 0.14934-3.28 0.06-4.4 0.12-8.8667 0.18-13.387 1e-3 -1.1333 0.0547-2.28 0.0107-3.4133-0.052-1.1467-0.104-2.2934-0.156-3.44-0.10666-2.2934-0.21466-4.6134-0.32266-6.9467-0.116-2.3333-0.232-4.68-0.348-7.0533-0.252-2.3467-0.50667-4.72-0.76134-7.1067-0.26133-2.4-0.524-4.8-0.788-7.2267-0.14-1.2133-0.25333-2.4266-0.41733-3.64-0.20533-1.2133-0.412-2.4266-0.61867-3.64-0.85333-4.8666-1.6267-9.8266-2.612-14.8-1.1773-4.96-2.368-9.96-3.5707-15.027-2.6947-10.027-5.8587-20.173-9.7293-30.253-7.5573-20.267-17.515-40.387-29.12-60.24-5.8333-9.9066-12.117-19.72-18.719-29.493-6.648-9.72-13.643-19.36-20.915-28.96-14.593-19.147-30.291-37.973-46.357-56.76-16.073-18.813-32.463-37.627-48.368-56.987-15.856-19.333-31.211-39.28-44.884-60.107-13.623-20.893-25.684-42.893-34.863-65.827-4.5787-11.453-8.4493-23.133-11.308-34.973-0.724-2.9467-1.3027-5.9334-1.9813-8.8934-0.36266-1.4933-0.576-2.9866-0.83866-4.48l-0.77867-4.4666c-0.93067-5.9734-1.704-12.027-2.0573-17.88l-0.256-3.16-0.0707-3.1734c-0.0547-2.12-0.10933-4.24-0.164-6.3466 0.0613-2.12 0.124-4.2267 0.18667-6.3334l0.0787-3.16 0.25867-3.1466c0.168-2.1067 0.33467-4.2 0.50133-6.2934 0.28134-2.0666 0.56134-4.1466 0.84134-6.2133l0.40933-3.1067c0.15467-1.0266 0.388-2.04 0.57467-3.0666 0.38666-2.04 0.77333-4.0667 1.1587-6.1067 1.924-8.0133 3.976-15.987 6.9867-23.44 1.2907-3.84 3.088-7.3733 4.6507-11.027 0.372-0.9333 0.85733-1.7866 1.316-2.6533l1.3733-2.6c0.94-1.72 1.728-3.5467 2.8107-5.1467 7.9-13.36 17.657-25.067 29.137-34.053 11.392-8.9867 24.527-15.533 37.664-18.747 6.5707-1.68 13.14-2.4 19.544-2.3866 1.6307-0.067 3.1387 0.1066 4.6987 0.16 1.5507 0.093 3.0987 0.3333 4.6533 0.48 3.0853 0.52 6.1867 1.0666 9.1907 1.9733 6.0187 1.72 11.852 4.1467 17.013 7.3333 5.1787 3.1734 9.78 6.9467 13.613 11.147 0.96933 1.0533 1.7933 2.1733 2.7333 3.24 0.756 1.1467 1.668 2.2667 2.376 3.4 1.3933 2.24 2.7507 4.5867 3.7773 7.1333 2.1613 5.0267 3.548 10.547 4.064 16.093 0.11333 1.3866 0.12533 2.7733 0.22666 4.16-0.0813 1.4-0.0267 2.6933-0.144 4.1866l-0.27866 2.3467-0.132 1.1733c-0.016 0.1067-8e-3 0.1734-0.0453 0.32l-0.22533 0.6534-0.452 1.32-1.792 5.2133-0.44533 1.2933-0.22267 0.6534-0.11067 0.32-0.21866 0.3333-1.7547 2.72c-1.1613 1.8133-2.3213 3.6133-3.48 5.4133l-0.864 1.3467-0.96 1.4267-1.9253 2.8533c-1.2733 1.8933-2.5467 3.7733-3.8173 5.6667-1.308 1.9066-2.6147 3.8133-3.92 5.72-1.2973 1.8933-2.5933 3.7733-3.888 5.6666-1.26 1.8-2.5173 3.6-3.772 5.4-1.224 1.7467-2.4467 3.4934-3.668 5.24l-3.3627 4.7334 1.9427 0.36 0.964 0.1866 1.3187 0.04 5.2893 0.16 5.252 0.16c1.7533 0.053 3.4293 0.093 5.3587 0.1867 7.476 0.3333 14.843 0.6267 22.081 1.0933 1.8053 0.1067 3.608 0.2134 5.4093 0.32l2.6827 0.16 2.444 0.2934c3.2333 0.4 6.46 0.8 9.6787 1.2 0.79067 0.1066 1.6213 0.1733 2.3747 0.32 0.74666 0.1466 1.4413 0.3733 2.1307 0.6 1.3893 0.4266 2.8107 0.8533 3.9787 1.3733l0.92267 0.36 0.47866 0.16 0.92934 0.32c0.62933 0.1867 1.2267 0.4533 1.8213 0.7333 9.6453 4.1067 18.641 10.08 25.723 17.547 0.892 0.9333 1.7827 1.8533 2.6693 2.7867 0.8 0.9866 1.5973 1.9733 2.3933 2.96l1.2133 1.4666c0.39867 0.4934 0.71067 1.04 1.0747 1.5467 0.71333 1.04 1.424 2.08 2.1333 3.1067 0.732 1.0266 1.2347 2.1466 1.876 3.2133 0.57867 1.08 1.3053 2.12 1.784 3.24 0.508 1.1067 1.012 2.2133 1.516 3.32 0.24934 0.56 0.53334 1.1067 0.76134 1.6667l0.584 1.7066c3.3227 9 4.6173 18.667 4.088 28.253-0.616 9.5866-3.008 18.96-6.68 27.493-3.6747 8.5333-8.64 16.24-14.441 22.747-5.8187 6.5333-12.405 11.733-19.495 15.827-7.3933 4.16-15.708 7.72-23.497 12.347-3.8973 2.3067-7.7013 4.8667-11.164 7.9067-3.448 3.08-6.496 6.7066-8.7187 10.667-0.51733 1.0134-1.1413 1.96-1.5253 3.0134-0.40934 1.0266-0.81334 2.0533-1.216 3.08-0.332 1.0666-0.63334 2.1466-0.888 3.2133-0.18 1.0933-0.42134 2.1467-0.50934 3.2133-0.44533 4.2534-0.0107 8.2934 0.98 11.96 1.9987 7.3334 6.1867 13.187 11.112 17.053 2.4667 1.9333 5.1693 3.3066 7.7867 4.24 2.6213 0.9466 5.212 1.3866 7.6267 1.5333 4.848 0.32 9.0227-0.5733 12.359-1.8 3.352-1.2267 5.8787-2.8267 7.7507-4.2533 1.8333-1.4934 3.0573-2.7867 3.8013-3.6934 0.728-0.92 1.1-1.3866 1.1-1.3866s-0.44933 0.3866-1.3293 1.16c-0.88267 0.7466-2.2973 1.76-4.2613 2.8533-2.0027 1.0267-4.5987 2.08-7.7947 2.6667-3.1773 0.5733-6.9747 0.6933-10.956-0.2667-3.9827-0.88-8.0573-2.9867-11.256-6.4267-3.172-3.4666-5.5053-8.32-6.0547-13.667-0.276-2.6534-0.1-5.4134 0.60934-8 0.15333-0.6534 0.43333-1.28 0.628-1.9067 0.26933-0.6267 0.54533-1.2133 0.84-1.8267 0.36133-0.6 0.724-1.2133 1.092-1.8266 0.31866-0.6267 0.85866-1.1467 1.264-1.7334 1.7933-2.2533 4.056-4.2533 6.788-6.04 2.764-1.7733 5.972-3.32 9.492-4.76 7.0547-2.92 15.339-5.16 24.624-8.7333 9.5133-3.8 19.125-9.4 27.743-16.8 8.652-7.4 16.455-16.56 22.781-27.227 6.316-10.68 11.2-22.893 13.733-36.32 2.4413-13.4 2.4293-28.133-1.1133-42.84l-0.63866-2.76c-0.24934-0.9066-0.556-1.8-0.83734-2.7066-0.58666-1.8-1.176-3.6134-1.7653-5.4267-0.58533-1.8267-1.4227-3.5333-2.1427-5.3067-0.77733-1.7466-1.4493-3.5733-2.352-5.2666-0.90133-1.7067-1.8053-3.4134-2.712-5.1334-0.46933-0.84-0.89733-1.7333-1.4093-2.5466l-1.5653-2.4667c-1.06-1.64-2.124-3.28-3.1907-4.9333-1.184-1.56-2.372-3.12-3.5627-4.6934-9.6307-12.547-22.236-23.227-37.045-31.36-0.91333-0.5333-1.836-1.0533-2.8093-1.48l-1.4427-0.6933-0.708-0.3333-0.264-0.1467c-0.39733-0.1867-0.62266-0.3333-0.87066-0.48-0.24667-0.16-0.49467-0.3067-0.75067-0.4133-1.012-0.5067-1.9747-1.0267-2.9413-1.3734-0.94934-0.4133-1.888-0.6666-2.7787-0.9333-0.444-0.1467-0.888-0.1867-1.3147-0.28l-0.636-0.1333c-0.0493-0.013-0.112-0.013-0.148-0.027l0.15867-0.1867 0.31733-0.36c1.896-2.08 3.2933-4.2533 4.2693-6.2933 0.26933-0.52 0.44266-1.04 0.65733-1.5333l0.076-0.1734 0.0387-0.093 0.088-0.44 0.36533-1.8667 0.71733-3.7466c0.42267-2.5867 0.68534-5.4267 0.99467-8.1467 0.13333-2.7467 0.30133-5.52 0.31467-8.2933-0.024-11.093-1.7573-22.307-5.376-33.253-1.7547-5.4933-4.1413-10.867-6.9-16.12-1.3733-2.6133-2.9293-5.04-4.4373-7.56-1.656-2.3733-3.2733-4.8266-5.06-7.12-7.1173-9.2266-15.639-17.28-25.073-24-9.432-6.7466-19.853-12-30.855-15.947-5.492-2-11.188-3.4934-16.972-4.7734-2.9173-0.52-5.836-1.0933-8.804-1.48-2.9667-0.3333-5.98-0.7466-8.9147-0.8666-11.82-0.7467-23.732 0.013-35.268 2.2666-23.139 4.44-44.863 14.213-63.953 28.04-19.124 13.8-35.101 31.76-47.544 51.68-1.6653 2.44-2.972 5.0534-4.436 7.6l-2.1347 3.8534c-0.70933 1.28-1.4427 2.56-2.0413 3.8933-2.488 5.28-5.1573 10.533-7.192 16-4.1253 9.8267-7.144 20-9.772 30.28-0.916-16.013-1.2187-32.613-0.53067-49.693 0.0413-1.64 0.0347-3.2667 0.10934-4.92 0.108-1.64 0.21466-3.28 0.32266-4.9334 0.20534-3.3066 0.412-6.6133 0.61734-9.9466 0.25066-6.6667 1.104-13.373 1.776-20.133 0.36266-3.3866 0.63733-6.7866 1.0507-10.187 0.49867-3.4 1-6.8134 1.5013-10.227 0.48533-3.4267 0.97066-6.8667 1.4587-10.32 0.576-3.4533 1.3-6.9333 1.9333-10.413 0.644-3.4934 1.2907-7 1.9387-10.507 0.62267-3.5067 1.4253-7.08 2.12-10.64 0.77734-3.4533 1.5573-6.9333 2.3387-10.413 0.88-3.44 1.64-6.9334 2.5947-10.373 3.628-13.813 7.9133-27.547 13.016-40.987 5.1573-13.427 10.989-26.24 17.519-38.32 6.4947-12.093 13.871-23.373 21.757-33.693 15.877-20.733 34.68-38.133 54.815-50.88 20.097-12.787 41.568-21.107 62.411-24.547 10.509-1.68 20.965-2.2533 31.067-1.9067 10.109 0.34666 19.831 1.7733 28.987 3.8933 1.1453 0.26667 2.284 0.54667 3.4187 0.81333 1.1293 0.28 2.2267 0.62667 3.3373 0.93334 1.1093 0.30666 2.2133 0.62666 3.312 0.93333 1.076 0.36 2.148 0.72 3.2133 1.08 1.0693 0.36 2.1333 0.72 3.1907 1.0667 1.036 0.4 2.0667 0.8 3.0907 1.2s2.0413 0.78666 3.0533 1.1867c0.94666 0.4 1.888 0.8 2.824 1.2 7.424 3.3867 14.139 7.6533 19.98 12.413 5.8493 4.76 10.861 9.9333 15.077 15.147 1.084 1.28 2.0387 2.6133 3.0373 3.88 0.46933 0.65333 0.93467 1.3067 1.3947 1.9467l0.69066 0.96 0.76934 1.1333c2.096 3.04 4.5133 5.9867 7.508 8.3067 1.5093 1.16 3.072 2.1333 4.82 2.8667 1.956 0.86667 3.944 1.1867 5.7187 1.1733 3.5787-0.0267 6.3813-1.12 8.696-2.3333 4.604-2.5067 7.4533-5.72 9.22-8.5867 1.7773-2.8933 2.2267-5.5467 2.0947-7.2-0.0613-0.84-0.21733-1.44-0.35333-1.84-0.13867-0.37334-0.20934-0.57334-0.20934-0.57334s4e-3 0.21334 0.0133 0.61334c7e-3 0.38666-0.0387 0.98666-0.224 1.7333-0.364 1.4667-1.4413 3.5067-3.6227 5.3867-2.1333 1.88-5.3413 3.7467-9.1813 4.5067-1.884 0.37334-3.9533 0.42667-5.5707-0.12-0.804-0.26666-1.4573-0.66666-1.9253-1.1467-0.68-0.58667-1.3813-1.3867-1.992-2.2533-1.24-1.7467-2.2827-4.0267-3.2173-6.7467l-0.35733-1.04c-0.152-0.41334-0.30667-0.82667-0.46133-1.24-0.31334-0.84-0.62934-1.68-0.948-2.5333-0.70667-1.68-1.3773-3.44-2.1933-5.1867-3.148-7-7.312-14.413-12.861-21.813-5.5413-7.3867-12.523-14.72-21.133-21.333-1.0987-0.8-2.2027-1.6133-3.3133-2.4267-1.1053-0.77334-2.1987-1.4933-3.316-2.24-1.12-0.74667-2.2467-1.5067-3.38-2.2533-1.1653-0.70666-2.3373-1.4133-3.516-2.1333-1.1907-0.70667-2.388-1.4133-3.5907-2.1333-1.236-0.66667-2.4773-1.32-3.7253-2-1.2573-0.65334-2.5133-1.36-3.804-1.9867-1.3027-0.61333-2.6107-1.24-3.9253-1.8667-10.576-4.9067-22.215-9.08-34.769-11.92-12.551-2.8533-25.995-4.5467-40.089-4.6533-28.36-0.13333-58.571 6.76-87.137 20.493-15.652 7.4933-30.744 17.027-44.895 28.333 0.35733-0.65334 0.71467-1.3067 1.0733-1.9733 2.1893-4.0267 4.3413-8.0933 6.7413-12.053 2.336-3.9867 4.6813-7.9867 7.036-12.013 2.4787-3.9467 4.9653-7.92 7.4627-11.893 2.4187-4.0267 5.18-7.8533 7.7813-11.813 1.3147-1.9733 2.6333-3.9333 3.9533-5.9067 1.3107-1.9867 2.76-3.88 4.1333-5.8267 2.8053-3.8533 5.5173-7.7867 8.4-11.627 2.92-3.8133 5.8493-7.6267 8.7893-11.467 11.993-15.147 24.825-29.92 38.52-44.187 7.3893-7.36 14.733-14.68 22.035-21.947 7.9773-8.1333 16.04-16.987 23.597-27.413 3.7667-5.24 7.404-10.92 10.699-17.24 3.292-6.2933 6.2267-13.36 8.2867-21.227 2.0853-7.8133 3.1293-16.613 2.5773-25.52-0.0813-2.2133-0.42667-4.44-0.692-6.6533-0.37733-2.2-0.76533-4.4-1.3-6.5467-0.56133-2.1333-1.1013-4.2933-1.84-6.32l-1.0813-3.0667c-0.40667-1.0533-0.86667-2.12-1.316-3.1733-3.616-8.4267-9.0627-16.08-15.281-22.28-3.1173-3.1067-6.448-5.8133-9.8627-8.2533-3.4293-2.36-6.9427-4.4933-10.501-6.2267-14.281-7.0133-28.797-9.5067-42.815-9.28-7.0253 0.17333-13.969 1.0267-20.796 2.68-3.4133 0.85333-6.7947 1.8267-10.133 3.08-1.6707 0.57333-3.3253 1.3067-4.972 1.9733-0.82134 0.36-1.64 0.74667-2.4547 1.1333-0.796 0.37334-1.6813 0.77334-2.3467 1.1467-11.508 5.96-21.497 13.64-29.652 21.867-8.172 8.24-14.801 16.92-20.465 25.493-5.6147 8.6-10.315 17.107-14.535 25.36-2.1227 4.1333-4.08 8.1867-5.9387 12.187-1.8747 4-3.7387 7.9867-5.5893 11.933-1.804 3.96-3.4893 7.9467-5.2067 11.867-1.6947 3.9333-3.4347 7.8-4.964 11.72-12.752 31.16-22.429 60.92-29.691 88.387-7.2693 27.48-12.123 52.667-15.42 74.84-3.26 22.2-5.1827 41.347-6.0693 57.04-0.22933 3.9067-0.532 7.6-0.644 11.067-0.12 3.4667-0.232 6.72-0.33733 9.7467-0.092 3-0.17734 5.7733-0.25467 8.32-9e-3 2.5467-0.0173 4.8533-0.0253 6.92 0.0133 8.16 0.02 12.547 0.02 12.547s1.0227-4.2667 2.9253-12.2c0.47067-2 0.996-4.2267 1.572-6.68 0.63467-2.4533 1.3253-5.1333 2.072-8.0267 0.74533-2.8933 1.544-6.0133 2.396-9.3333 0.836-3.3333 1.896-6.8533 2.9147-10.587 4.0427-14.933 9.6107-33 16.657-53.64 7.0827-20.627 15.861-43.787 26.808-68.693 10.939-24.907 24.043-51.56 39.576-79.173 1.8773-3.48 3.9547-6.8933 5.9747-10.373 2.0453-3.4667 4.0467-6.9867 6.1547-10.48 2.1427-3.48 4.2987-6.9867 6.468-10.507 2.1587-3.56 4.3493-7.0667 6.576-10.44 4.4427-6.8 9.0107-13.307 13.796-19.24 4.796-5.8933 9.8293-11.173 15.008-15.493 5.1867-4.3333 10.521-7.4933 15.911-9.7333 0.36533-0.17333 0.57866-0.21333 0.85333-0.30666l0.78267-0.28c0.564-0.13334 1.0733-0.34667 1.6627-0.45334 1.1213-0.30666 2.332-0.52 3.548-0.70666 2.452-0.36 5.0613-0.42667 7.628-0.28 2.572 0.16 5.096 0.64 7.3987 1.2933 2.2613 0.70667 4.3387 1.5733 5.892 2.5733 0.82533 0.46667 1.432 1.0133 2.0333 1.48 0.52134 0.50667 0.99334 0.96 1.3173 1.4 0.30266 0.44 0.6 0.81334 0.74 1.2133 0.13466 0.16 0.12533 0.38666 0.24933 0.54666 8e-3 0.22667 0.15067 0.36 0.156 0.58667 0.0187 0.10667 0.056 0.18667 0.0933 0.30667 0.024 0.16 0.056 0.32 0.0987 0.48 0.12533 0.32 0.0907 0.61333 0.172 0.90666 0.052 0.29334 0.0267 0.57334 0.084 0.84-0.056 0.29334 0.0493 0.54667-0.0187 0.85334-0.068 1.1467-0.22533 2.5067-0.88266 4.4533-1.1533 3.84-4.352 9.6267-9.008 15.72-4.7013 6.16-10.696 12.653-17.437 19.333-3.5987 3.5067-7.2093 7.0133-10.831 10.547-3.9733 3.9467-7.9587 7.9067-11.957 11.893-15.625 16.253-30.013 33.267-43.168 50.76-3.2053 4.44-6.4013 8.8533-9.5867 13.253-3.124 4.4267-6.0493 8.9733-9.0493 13.44-1.4707 2.2533-3.0133 4.4533-4.4067 6.7467-1.3987 2.28-2.7947 4.5467-4.188 6.8267-2.7453 4.5733-5.6333 9.0267-8.148 13.667-2.5733 4.6-5.136 9.1867-7.6907 13.76-2.4253 4.6267-4.7707 9.2667-7.1267 13.867-2.4093 4.5733-4.5453 9.2667-6.7013 13.907-1.0747 2.32-2.1467 4.6267-3.2173 6.9333l-1.5907 3.4667-1.4787 3.5067c-1.9533 4.6533-3.8987 9.2933-5.836 13.907-1.8787 4.6267-3.564 9.3067-5.3253 13.92-0.86666 2.3067-1.7307 4.6133-2.5933 6.92-0.78533 2.32-1.5693 4.64-2.3507 6.9467-1.5427 4.6267-3.1173 9.2133-4.5813 13.787-11.324 36.8-18.745 72.627-22.355 106.4-2.8093 25.373-3.784 49.52-3.3853 72.08-0.072 0.5867-0.14533 1.1734-0.21867 1.76-0.46533 3.9734-1 7.9067-1.376 11.853-0.27333 3.9733-0.544 7.9333-0.81333 11.893-0.25067 3.92-0.5 7.84-0.74933 11.747-0.14534 3.9066-0.13467 7.7866-0.19467 11.653-0.068 7.72-0.25333 15.347 0.22267 22.88 0.172 3.76 0.34266 7.4933 0.51333 11.213 0.0907 1.8667 0.18133 3.7067 0.272 5.56 0.12667 1.84 0.33867 3.68 0.50533 5.5067 2.2733 29.28 7.62 56.667 14.279 81.64 3.1147 12.533 7.2573 24.333 10.969 35.667 2.068 5.6133 4.232 11.053 6.2933 16.373 1.0413 2.64 2.0747 5.2667 3.0973 7.8667 1.1427 2.5466 2.2733 5.0666 3.3947 7.56 13.916 31.36 28.993 56.04 41.864 74.373 4.304 9.3467 8.9693 18.387 13.881 27.147-0.66667-0.8534-1.4733-1.88-2.456-3.1067-3.1413-3.7333-7.8187-9.28-14.696-15.8-6.8933-6.48-15.988-13.973-28.329-20.893-6.2053-3.36-13.18-6.7334-21.232-9.1467-8.0107-2.4667-17.019-4.2533-26.844-4.5733-2.456 0-4.9347-0.013-7.5053 0.053-1.3573 0.1067-2.7213 0.2267-4.0893 0.3333-1.36 0.1734-2.72 0.3734-4.0987 0.5734-5.4707 0.9066-10.941 2.3866-16.308 4.4266-10.729 4.08-21.065 10.347-30.3 18.933-4.6107 4.2933-8.944 9.1866-12.819 14.76-3.8613 5.5866-7.3 11.853-9.8707 18.907-2.5613 7.04-4.2773 14.893-4.592 23.24-0.364 8.32 0.91334 17.133 3.6933 25.48 0.67466 2.1467 1.4627 4.0667 2.2693 6.0134 0.77067 1.9466 1.788 3.8533 2.724 5.7733 2.024 3.7733 4.3173 7.4933 6.9493 10.933 2.5827 3.52 5.5013 6.68 8.5253 9.6934 3.0547 2.92 6.2547 5.6933 9.54 8.08 6.5787 4.8933 13.411 8.7066 20.165 11.827 6.7747 3.1467 13.489 5.6 20.083 7.6534 13.2 4.1066 25.975 6.6533 38.096 8.88 2.9693 0.5333 5.944 1.08 8.9267 1.6133 2.7187 0.52 5.4427 1.0533 8.1747 1.5733 2.724 0.48 5.432 1.1067 8.1533 1.7067 2.7173 0.6133 5.4653 1.12 8.18 1.84 19.664 4.6667 38.64 10.573 56.757 17.427-4.6787-0.8-9.3493-1.48-14.007-2.04-12.524-1.56-25.083-2.3334-37.611-2.1467-25.004 0.3733-49.975 4.8533-72.189 15.08-11.023 5.0533-21.245 11.347-30.341 18.787-4.568 3.6933-8.7773 7.7733-12.725 11.987-3.9267 4.2534-7.4493 8.8267-10.673 13.493-3.096 4.7333-5.9973 9.7066-8.2773 14.8-2.28 5.0933-4.2053 10.227-5.5707 15.44-2.8813 10.387-3.912 20.92-3.3787 31.08 0.0267 1.2666 0.15467 2.5333 0.29467 3.8 0.13467 1.2533 0.26933 2.5066 0.404 3.7466 0.21333 1.24 0.42667 2.48 0.63867 3.72 0.20933 1.2267 0.42266 2.4534 0.74533 3.6534 0.29733 1.2 0.59467 2.4 0.89067 3.6 0.28533 1.2 0.724 2.36 1.0813 3.52 0.39333 1.1733 0.71867 2.3333 1.1747 3.4666 0.45733 1.12 0.91333 2.2534 1.368 3.3734l0.692 1.6533 0.79733 1.6133c0.536 1.08 1.0693 2.1334 1.6 3.2 1.164 2.08 2.4187 4.1334 3.688 6.1067 2.6893 3.8533 5.548 7.44 8.716 10.573 12.575 12.627 28.017 19.653 42.761 21.507 7.3773 0.9333 14.585 0.5333 21.152-0.9733 6.5707-1.5067 12.628-4.0934 17.511-7.4534 1.296-0.7333 2.3893-1.72 3.5453-2.56 0.56533-0.44 1.1267-0.88 1.684-1.3066 0.55067-0.44 1.0373-0.9334 1.5507-1.4 1.0013-0.9467 2.016-1.8534 2.944-2.8 0.88-1 1.7453-1.9734 2.5987-2.9334 0.88134-0.9333 1.5827-1.9866 2.32-2.9866 0.708-1 1.484-1.9334 2.0867-2.96 1.2-2.0534 2.4693-3.9467 3.34-5.9734 3.8467-7.88 5.2427-15.213 5.42-21.04 0.028-0.72 0.056-1.4266 0.0827-2.12-0.0133-0.68-0.0853-1.3466-0.124-1.9866-0.108-1.28-0.15067-2.4534-0.296-3.5467-0.20934-1.0667-0.40134-2.0533-0.57734-2.96-0.19466-0.8933-0.284-1.7067-0.55733-2.4-0.912-2.76-1.3827-4.1867-1.3827-4.1867s0.21067 1.4667 0.62 4.3334c0.14667 0.6933 0.0947 1.52 0.13067 2.4 0.02 0.8933 0.04 1.8533 0.0627 2.9066-0.04 1.0534-0.19467 2.1867-0.29734 3.4-0.0653 0.6-0.0987 1.2267-0.19466 1.8667-0.13467 0.6267-0.272 1.28-0.41467 1.96-1.0667 5.3467-3.4693 11.773-7.9693 18.147-4.408 6.3866-11.16 12.68-19.881 16.76-1.1 0.4666-2.2133 0.9333-3.3427 1.4133-1.16 0.3467-2.3347 0.7067-3.5253 1.0667-0.58 0.2266-1.2 0.3066-1.812 0.4133-0.60933 0.12-1.2213 0.24-1.8387 0.36-1.204 0.2933-2.5147 0.3333-3.8027 0.44-5.1667 0.4-10.615-0.1067-16.048-1.6133-10.841-2.96-21.707-10.04-29.363-20.227-1.9453-2.52-3.556-5.28-5.0347-8.1067-0.66133-1.4666-1.3-2.9066-1.9027-4.4-0.264-0.7866-0.52933-1.56-0.796-2.3466l-0.40666-1.16-0.312-1.2134c-0.21067-0.8-0.42134-1.6-0.63334-2.4133-0.21866-0.8-0.31466-1.6533-0.484-2.48-0.13466-0.84-0.352-1.6533-0.42933-2.5067-0.0947-0.8533-0.18933-1.6933-0.284-2.5466-0.12667-0.8534-0.15467-1.72-0.184-2.5867-0.04-0.8667-0.08-1.7333-0.12-2.6 0.0213-0.88 0.044-1.76 0.0653-2.64 9e-3 -0.88 0.024-1.76 0.13067-2.6533 0.53467-7.0934 2.1533-14.347 5.0387-21.267 1.364-3.4933 3.136-6.8533 5.0733-10.093 1.948-3.2667 4.2347-6.24 6.7333-9.28 10.175-11.88 24.7-21.28 41.435-26.907 4.188-1.3867 8.484-2.5867 12.88-3.52 4.4493-0.9067 9.016-1.6133 13.675-2.1067 9.3387-0.9066 19.056-1.0133 29.073-0.2266 10.004 0.7466 20.308 2.28 30.759 4.4933 10.424 2.1467 20.867 5 31.249 8.4933 20.767 6.9734 41.312 16.547 60.92 28.667 19.603 12.12 38.269 26.773 55.188 43.747 16.915 16.973 32.08 36.267 44.58 57.427 6.2493 10.587 11.831 21.627 16.629 33.067l1.792 4.2933c0.588 1.4267 1.08 2.9067 1.6293 4.36 1.056 2.92 2.1907 5.8267 3.212 8.7734 0.93733 2.9733 1.8773 5.96 2.82 8.9466l0.71466 2.24c0.224 0.7467 0.40267 1.52 0.60667 2.28l1.1987 4.5467c0.80533 3.04 1.6667 6.08 2.2507 9.1733 0.65734 3.0934 1.316 6.1867 1.9747 9.28 0.98267 6.24 2.1813 12.48 2.76 18.813 0.368 3.16 0.79467 6.32 0.92533 9.5066 0.192 3.1734 0.45467 6.3467 0.61734 9.5334 0.0547 3.1866 0.108 6.3733 0.16133 9.5733l0.0507 2.3867-0.084 2.4-0.16134 4.7866-0.144 4.7867c-0.072 1.5867-0.26 3.16-0.38 4.7467-0.304 3.16-0.452 6.3333-0.85066 9.4666-0.428 3.12-0.856 6.24-1.2813 9.36-0.16666 1.56-0.50666 3.0934-0.80133 4.6267l-0.88533 4.6c-2.4787 12.213-5.704 24.187-10.228 35.48l-1.6 4.2667-1.8613 4.1333-1.8387 4.1467c-0.612 1.3733-1.192 2.7866-1.8893 4.08-2.568 5.36-5.5493 10.507-8.6213 15.587-3.0867 5.0667-6.5107 9.92-10.027 14.68-3.556 4.7334-7.36 9.2667-11.271 13.667-15.811 17.493-34.525 31.907-54.567 42.333-20.039 10.48-41.448 16.813-62.628 18.68l-3.9707 0.3334-3.9093 0.16c-2.6 0.1733-5.2107 0.053-7.8147 0.093-5.208-0.1867-10.42-0.4533-15.581-1.1733-10.343-1.2534-20.507-3.6667-30.292-6.92-9.8067-3.2267-19.181-7.44-28.016-12.333-4.4453-2.4133-8.668-5.12-12.831-7.8666-4.0707-2.8534-8.084-5.76-11.833-8.9067-7.548-6.2533-14.441-13.04-20.465-20.32-6.0093-7.28-11.211-14.987-15.525-22.96-8.7253-15.973-13.453-33.013-15.111-49.92-0.708-8.4533-0.60666-16.787 0.144-24.893 0.24667-2.0134 0.49334-4.0134 0.73734-6.0134 0.28-1.9866 0.72266-3.92 1.064-5.88 0.192-0.9733 0.34133-1.9466 0.56133-2.9066 0.24667-0.9467 0.492-1.8934 0.736-2.84 0.24267-0.9467 0.484-1.8934 0.724-2.84 0.236-0.9467 0.46267-1.8934 0.79467-2.7867 0.60266-1.8267 1.2013-3.6533 1.7973-5.4533 0.58267-1.8267 1.4013-3.5067 2.0787-5.2667 0.35333-0.8667 0.70533-1.7333 1.056-2.6 0.35466-0.8667 0.812-1.6533 1.208-2.4933 0.82-1.6534 1.6333-3.3067 2.44-4.9334 0.928-1.56 1.8507-3.12 2.764-4.6533 0.46266-0.7733 0.89866-1.56 1.376-2.3067 0.51333-0.72 1.0227-1.44 1.532-2.16 1.0187-1.4533 2.0307-2.88 3.0347-4.3066 1.1133-1.3334 2.216-2.6667 3.312-3.9734 8.6747-10.48 19.528-17.973 30.401-23.267 10.92-5.2534 21.959-8.16 32.071-9.3734 10.131-1.2133 19.376-0.8266 27.249 0.5067 7.8907 1.3067 14.447 3.4133 19.557 5.6 5.1507 2.1333 8.8067 4.3867 11.308 5.84 2.4147 1.5867 3.66 2.4 3.66 2.4s-1.0867-1.0267-3.196-3.0267c-2.2213-1.8666-5.5027-4.7733-10.389-7.84-4.8493-3.1066-11.267-6.44-19.389-9.16-8.1067-2.7333-17.953-4.7333-29.251-5.1066-11.279-0.3467-24.036 1.0133-37.435 5.24-6.6907 2.12-13.532 4.96-20.328 8.6933-6.7733 3.7067-13.581 8.4-19.777 14.107-1.5467 1.4266-3.1053 2.8666-4.6773 4.32-1.476 1.5466-2.924 3.1466-4.4067 4.7466-0.73734 0.8-1.4787 1.6134-2.2227 2.4267-0.70667 0.84-1.3693 1.7067-2.0613 2.5733-1.368 1.76-2.7467 3.52-4.136 5.2934-1.2547 1.88-2.5173 3.76-3.7893 5.6666-0.62133 0.96-1.3053 1.8934-1.88 2.8934-0.57066 1-1.1413 2.0133-1.7147 3.0133-1.1133 2.04-2.3733 4.04-3.3813 6.1733-1.0147 2.1334-2.0347 4.28-3.0627 6.4534-0.54 1.0666-0.97067 2.1866-1.4107 3.3066-0.44133 1.1334-0.88533 2.2534-1.3293 3.3867-0.44267 1.1333-0.888 2.2667-1.3333 3.4133-0.416 1.1467-0.75866 2.32-1.1427 3.4934-0.72534 2.36-1.5467 4.7066-2.1947 7.12-0.6 2.4266-1.204 4.88-1.812 7.3333-2.1427 9.9067-3.4853 20.28-3.7973 31-0.18267 10.707 0.61733 21.747 2.636 32.933 1.9853 11.227 5.344 22.4 9.8653 33.387 4.536 10.96 10.303 21.693 17.199 31.907 6.908 10.213 14.997 19.88 24.047 28.867 4.5013 4.52 9.3373 8.76 14.316 12.933 5.0613 4.0533 10.269 8.04 15.776 11.68 8.6987 5.84 17.948 11.133 27.711 15.733-5.092-1.2933-10.188-2.5733-15.3-3.8533-6.192-1.5734-12.396-3.0267-18.735-4.8534-12.712-3.48-25.484-6.9733-38.325-10.48 1.6533 20 3.448 40.627 5.324 61.413 0.89333 9.7067 1.784 19.387 2.672 29.013 0.32533 3.4 0.652 6.7733 0.97733 10.147 0.244 2.4 0.488 4.7867 0.73067 7.1734 0.98933 9.52 2.0293 18.947 3.1133 28.267l37.361 7.3867-1.4493 0.64c-1.568 0.68-3.2227 1.4667-4.7947 2.2667-3.1827 1.5866-6.1373 3.4933-8.9627 5.5466-6.7187 5.0534-12.021 11.627-15.805 18.84-0.97467 1.7734-1.7573 3.6667-2.576 5.5067-0.71334 1.8933-1.4453 3.7733-2.0173 5.7067-0.56133 1.8933-1.1627 3.9333-1.5 5.64l-0.50266 2.4133-0.37867 2.3067c-0.956 6.1066-1.2213 11.6-1.2573 16.587-0.0133 2.4534 0.0173 4.9467 0.084 7.0667 0.0653 2.12 0.132 4.24 0.19733 6.36 0.54533 16.867 1.232 32.947 2.0093 48.12 1.2507 24.413 2.7347 46.467 4.2373 65.693 19.221 1.4934 41.28 2.9867 65.693 4.24 15.173 0.7734 31.252 1.4534 48.119 2 2.1133 0.067 4.2347 0.1334 6.3627 0.2 2.1133 0.067 4.612 0.093 7.0653 0.08 4.9813-0.027 10.479-0.2933 16.588-1.2533l2.3053-0.3733 2.408-0.5067c1.7133-0.3333 3.748-0.9467 5.6467-1.5067 1.9253-0.56 3.8053-1.2933 5.7-2.0133 1.844-0.8133 3.7293-1.6 5.5133-2.5733 7.204-3.7867 13.781-9.0934 18.837-15.813 2.044-2.8133 3.964-5.7733 5.548-8.96 0.80133-1.5733 1.5773-3.2266 2.2653-4.7866l0.63334-1.4534 7.392 37.36c9.312 1.08 18.741 2.12 28.269 3.12 2.384 0.24 4.7733 0.48 7.1667 0.72 3.3733 0.3334 6.7547 0.6534 10.143 0.9867 9.636 0.88 19.311 1.7733 29.025 2.6667 20.78 1.88 41.409 3.6666 61.409 5.32-3.512-12.84-7.0053-25.613-10.483-38.32-1.824-6.3334-3.276-12.547-4.848-18.733-1.288-5.12-2.5707-10.213-3.852-15.307 4.5947 9.7733 9.8947 19.013 15.732 27.72 3.6427 5.5066 7.6253 10.707 11.675 15.773 4.168 4.9733 8.4107 9.8133 12.936 14.32 8.9907 9.04 18.648 17.133 28.863 24.04 10.223 6.8933 20.944 12.667 31.915 17.2 10.984 4.52 22.152 7.88 33.375 9.8667 11.191 2.0133 22.231 2.8133 32.944 2.64 10.721-0.32 21.093-1.6534 30.995-3.8 2.4587-0.6134 4.9013-1.2134 7.3293-1.8134 2.412-0.6533 4.7707-1.4666 7.1213-2.2 1.1707-0.3733 2.3453-0.72 3.4973-1.1333 1.1413-0.4533 2.28-0.8933 3.4147-1.3333 1.1307-0.4534 2.2573-0.8934 3.38-1.3334 1.1213-0.44 2.2387-0.8666 3.316-1.4133 2.164-1.0267 4.3133-2.0533 6.448-3.0667 2.128-1 4.1347-2.2666 6.1707-3.3733 1.0093-0.5733 2.0147-1.1467 3.016-1.72 0.99733-0.5733 1.9373-1.2533 2.8987-1.88 1.9-1.2667 3.7867-2.5333 5.66-3.7867 1.7773-1.3866 3.5413-2.7733 5.2907-4.1333 0.86667-0.6933 1.744-1.36 2.584-2.0667 0.81067-0.7466 1.62-1.48 2.4253-2.2266 1.6013-1.48 3.1987-2.92 4.74-4.4 1.4507-1.5734 2.8907-3.1334 4.3187-4.68 5.7107-6.1867 10.404-13 14.109-19.773 3.728-6.8 6.5707-13.64 8.6907-20.333 4.2307-13.4 5.5867-26.147 5.2387-37.427-0.3694-11.307-2.3654-21.147-5.104-29.253-2.724-8.12-6.052-14.547-9.1587-19.387-3.064-4.8933-5.972-8.1733-7.844-10.4-1.9973-2.1066-3.0267-3.1866-3.0267-3.1866s0.8187 1.24 2.4067 3.6533c1.4507 2.5067 3.7053 6.16 5.8387 11.307 2.1813 5.12 4.2973 11.667 5.6026 19.56 1.328 7.88 1.712 17.12 0.5067 27.253-1.216 10.107-4.1173 21.147-9.3813 32.067-5.2934 10.88-12.788 21.733-23.255 30.4-1.316 1.0933-2.6413 2.2-3.9773 3.32-1.424 1-2.8587 2.0133-4.3053 3.0266-0.71867 0.5067-1.44 1.0267-2.164 1.5334-0.752 0.48-1.5387 0.92-2.3067 1.3733-1.5387 0.92-3.0893 1.84-4.6507 2.7733-1.6333 0.8-3.28 1.6134-4.9373 2.44-0.83333 0.3867-1.632 0.8534-2.4947 1.2-0.86533 0.36-1.732 0.7067-2.6027 1.0667-1.752 0.6667-3.44 1.4933-5.2587 2.0667-1.8053 0.6-3.624 1.2-5.4547 1.8-0.9 0.3333-1.8467 0.56-2.7907 0.8-0.94267 0.24-1.8867 0.48-2.8347 0.72-0.94267 0.24-1.8907 0.4933-2.84 0.7333-0.95867 0.2267-1.9427 0.3733-2.9147 0.56-1.956 0.3467-3.892 0.7867-5.88 1.0667-1.992 0.2533-3.996 0.4933-6.0133 0.7466-8.096 0.7467-16.435 0.84-24.884 0.1334-16.911-1.6534-33.948-6.3867-49.92-15.107-7.9827-4.32-15.688-9.52-22.968-15.52-7.272-6.0267-14.065-12.92-20.311-20.467-3.1507-3.76-6.056-7.7733-8.9147-11.84-2.744-4.16-5.4533-8.3866-7.8653-12.827-4.8933-8.84-9.1107-18.213-12.329-28.013-3.2573-9.7866-5.6693-19.947-6.924-30.293-0.71733-5.16-0.98666-10.373-1.1667-15.587 0.0373-2.6-0.084-5.2133 0.088-7.8133l0.16266-3.9067 0.32534-3.9733c1.8787-21.173 8.2-42.587 18.683-62.627 10.427-20.04 24.843-38.76 42.331-54.573 4.408-3.9067 8.9347-7.7067 13.671-11.267 4.76-3.52 9.6133-6.9333 14.685-10.027 5.0733-3.0667 10.225-6.0533 15.579-8.6133 1.3027-0.7067 2.7067-1.28 4.0853-1.8934l4.1413-1.84 4.1373-1.8666 4.2733-1.6c11.292-4.52 23.256-7.7467 35.472-10.227l4.6013-0.88c1.5347-0.2933 3.0613-0.64 4.6293-0.8 3.1147-0.4267 6.2347-0.8533 9.3587-1.28 3.1293-0.4 6.308-0.5467 9.4653-0.8533 1.584-0.12 3.16-0.3067 4.752-0.3867l4.7867-0.1333 4.7853-0.16 2.3907-0.093 2.396 0.053c3.1947 0.053 6.384 0.1066 9.568 0.16 3.1853 0.16 6.364 0.4266 9.54 0.6133 3.1813 0.1333 6.3387 0.56 9.4961 0.9333 6.3346 0.5734 12.573 1.7734 18.823 2.76 3.0947 0.6534 6.184 1.32 9.2694 1.9734 3.104 0.5866 6.1346 1.44 9.1746 2.2533l4.5574 1.2c0.7586 0.2 1.524 0.3733 2.2746 0.6l2.2387 0.72c2.9893 0.9333 5.972 1.88 8.9493 2.8133 2.948 1.0267 5.8467 2.16 8.772 3.2134 1.4534 0.5466 2.928 1.04 4.364 1.6266l4.2934 1.8c11.429 4.8 22.476 10.373 33.059 16.627 21.169 12.493 40.459 27.667 57.425 44.573 16.976 16.92 31.636 35.587 43.749 55.2 12.12 19.6 21.692 40.147 28.667 60.907 3.4946 10.387 6.3466 20.827 8.4893 31.253 2.2227 10.453 3.748 20.76 4.4987 30.76 0.788 10.013 0.6866 19.733-0.2307 29.08-0.4907 4.6533-1.1947 9.2133-2.1067 13.667-0.924 4.4-2.1266 8.6933-3.5106 12.88-5.628 16.733-15.035 31.267-26.913 41.44-3.0386 2.4933-6.016 4.7866-9.276 6.7333-3.2466 1.9333-6.6026 3.7067-10.088 5.0667-6.9253 2.8933-14.184 4.5066-21.273 5.04-0.8907 0.1066-1.7707 0.12-2.6493 0.1333-0.884 0.027-1.764 0.04-2.64 0.067-0.8707-0.04-1.7387-0.08-2.6027-0.12-0.8693-0.027-1.7387-0.053-2.5827-0.1867-0.8533-0.093-1.7053-0.1867-2.5533-0.28-0.856-0.08-1.6667-0.2933-2.5027-0.4267-0.824-0.1733-1.676-0.2666-2.48-0.4933-0.8093-0.2133-1.616-0.4133-2.4186-0.6267l-1.2094-0.32-1.1666-0.4c-0.7814-0.2666-1.56-0.5333-2.336-0.8-1.5-0.6-2.944-1.24-4.4-1.9066-2.8254-1.4667-5.5974-3.08-8.1094-5.0267-10.193-7.6533-17.273-18.52-20.236-29.36-1.5026-5.44-2.0053-10.88-1.6133-16.053 0.116-1.2934 0.152-2.6 0.452-3.8 0.1173-0.6134 0.2333-1.2267 0.348-1.84 0.1173-0.6134 0.1987-1.2267 0.4147-1.8134 0.3626-1.1866 0.7213-2.36 1.076-3.52 0.4773-1.1333 0.948-2.2533 1.412-3.3466 4.072-8.72 10.371-15.48 16.751-19.88 6.3827-4.5067 12.807-6.9067 18.159-7.9734 0.672-0.1333 1.3253-0.28 1.96-0.4133 0.6373-0.093 1.26-0.1333 1.8627-0.2 1.2053-0.093 2.3413-0.2533 3.392-0.2933 1.0546 0.027 2.0253 0.04 2.9093 0.067 0.888 0.04 1.708-0.013 2.4093 0.1334 2.856 0.4 4.3294 0.6133 4.3294 0.6133s-1.424-0.4667-4.1867-1.3733c-0.692-0.28-1.5067-0.3734-2.4-0.56-0.9027-0.1734-1.892-0.3734-2.9667-0.5867-1.084-0.1467-2.268-0.1867-3.5453-0.2933-0.6373-0.04-1.3027-0.1067-1.988-0.12-0.684 0.027-1.3893 0.053-2.116 0.08-5.8227 0.1733-13.159 1.5733-21.041 5.4266-2.0254 0.8667-3.9134 2.1334-5.9707 3.3334-1.028 0.6-1.9533 1.3733-2.9667 2.0933-0.988 0.7333-2.0453 1.44-2.9733 2.32-0.964 0.8533-1.9427 1.72-2.936 2.6-0.9507 0.92-1.8507 1.9333-2.8027 2.9333-0.4626 0.52-0.9666 1-1.404 1.56-0.4306 0.5467-0.864 1.12-1.3013 1.68-0.844 1.16-1.832 2.2534-2.564 3.5467-3.3627 4.88-5.9453 10.933-7.4547 17.507-1.504 6.5733-1.908 13.773-0.976 21.16 1.86 14.733 8.8854 30.187 21.516 42.76 3.132 3.16 6.7174 6.0266 10.568 8.7066 1.9694 1.2667 4.024 2.5334 6.108 3.6934 1.0614 0.5333 2.1254 1.0666 3.1934 1.6l1.616 0.8 1.664 0.6933c1.1173 0.4533 2.24 0.9067 3.3666 1.36 1.1307 0.4533 2.3 0.7867 3.4614 1.1733 1.1666 0.36 2.3306 0.8 3.5253 1.08 1.196 0.3067 2.396 0.6 3.6 0.8934 1.2067 0.32 2.428 0.5333 3.6573 0.7466 1.232 0.2134 2.4694 0.4267 3.7107 0.64 1.248 0.1334 2.5 0.2667 3.756 0.4 1.26 0.1467 2.5267 0.2667 3.796 0.2934 10.167 0.5333 20.692-0.4934 31.073-3.3734 5.2174-1.36 10.359-3.2933 15.449-5.5733 5.092-2.28 10.061-5.1733 14.797-8.28 4.672-3.2133 9.2333-6.7467 13.488-10.667 4.2173-3.9466 8.2973-8.16 11.987-12.72 7.44-9.1066 13.74-19.32 18.795-30.347 10.227-22.213 14.699-47.187 15.073-72.187 0.1973-12.533-0.5787-25.093-2.1494-37.613-0.5573-4.6534-1.2346-9.3334-2.028-14.013 6.8414 18.12 12.752 37.093 17.42 56.76 0.7187 2.72 1.232 5.4667 1.8454 8.1867 0.6 2.72 1.224 5.4267 1.7013 8.1467 0.5267 2.7333 1.0533 5.4533 1.5773 8.1733 0.536 2.9867 1.072 5.96 1.6054 8.9333 2.236 12.12 4.7826 24.893 8.888 38.093 2.0493 6.5866 4.4973 13.307 7.6466 20.08 3.1254 6.76 6.936 13.587 11.832 20.173 2.3907 3.28 5.16 6.48 8.076 9.5333 3.0227 3.0267 6.176 5.9467 9.6894 8.52 3.4413 2.64 7.16 4.9334 10.941 6.96 1.9253 0.9334 3.82 1.9467 5.7773 2.72 1.944 0.8134 3.8574 1.6 6.0054 2.2667 8.344 2.7867 17.159 4.0533 25.489 3.6933 8.3467-0.3066 16.189-2.0266 23.233-4.5866"/>
  <path d="m2517.1 2388.6c-1.0133 0.52-2.0133 1.1066-3.0133 1.6-0.9867 0.4-1.96 0.96-2.92 1.28l-1.4267 0.5333-0.36 0.1467c-0.12 0.053-0.24 0.093-0.2667 0.08-0.12 0-0.2266 0.013-0.3333 0.027-0.4267 0.053-0.96 0.08-1.4933 0.12-0.2667 0.027-0.56 0.027-0.84 0.027 1.4133-0.68 2.96-1.4 4.6-2.16 3.6533-1.72 7.8-3.56 12.36-5.8267-2.1334 1.5734-4.24 2.9867-6.3067 4.1734zm-22.653-0.4267c-0.013 0.013 0.053-0.067 0 0.013zm-50.76-138.59c-13.547 5.0667-24.88 10.933-35.2 16.12-41.907 21.173-79.107 41.547-110.07 59.293-61.933 35.48-98.96 60.467-98.96 60.467s43.733-9.08 112.37-28.653c34.32-9.8 74.867-22.213 119.28-37.44 11.267-3.8533 21.947-7.68 31.76-10.12 9.8-2.4933 18.627-3.4533 25.293-2.5333 0.8533 0.08 1.6266 0.3066 2.44 0.4 0.8 0.1466 1.52 0.4 2.2933 0.5466l0.2667 0.067 0.12 0.053c0.093 0.04 0.1733 0.08 0.2533 0.1067 0.16 0.04 0.3467 0.1733 0.5333 0.2267 0.3734 0.1733 0.7734 0.3733 1.2 0.6133 1.7067 0.9333 3.72 2.5067 5.28 4.2667 0.7734 0.88 1.44 1.8 1.9334 2.6266 0.093 0.2 0.2 0.4 0.3333 0.5867 0.027 0.093 0.067 0.1867 0.12 0.28 0.013 0.053 0.08 0.1333 0.067 0.1333-0.04 0.027-0.053 0.04-0.04 0.04-0.067 0.04-0.093 0.027-0.1067 0.027-0.013 0 0 0 0 0l0.027 0.013 0.013 0.013 0.013 0.027h0.013v0.013c0.027-0.027 0.053-0.067 0.08-0.093 0.027-0.027 0.067-0.053 0.093-0.067l-0.1467 0.16c-0.08 0.1066-0.28 0.24-0.4133 0.36-0.2933 0.24-0.5467 0.5066-0.9733 0.8-0.3734 0.2933-0.72 0.5866-1.2134 0.9066-0.4666 0.3334-0.88 0.6534-1.4533 1-4.1867 2.8134-10.467 6.0134-17.96 9.9334-3.7467 1.9866-7.8267 4.1866-12.253 6.92-4.4134 2.7466-9.2134 6-14.253 10.52-4.9866 4.4933-10.307 10.48-14.333 18.16-0.9867 1.92-1.8667 3.9466-2.6933 5.9333-0.7467 2.0667-1.44 4.1467-2 6.24-0.4934 2.08-0.9467 4.2-1.2667 6.2667-0.24 2.04-0.44 4.0533-0.56 6.1333-0.3467 8.5333 1.3867 18.053 5.3867 26.04 1.92 4.0667 4.3466 7.6 6.9333 10.853 2.6133 3.0934 5.4267 5.9334 8.3067 8.2 5.7733 4.6934 11.707 7.7867 17.52 10.067 5.8266 2.2533 11.587 3.64 17.267 4.3733 11.373 1.4134 22.613 0.56 33.76-3.1333 2.7734-0.96 5.5334-2.0533 8.2534-3.4l2.0266-1.04c0.36-0.1733 0.6267-0.3333 0.88-0.4933l0.7734-0.4667 3.1066-1.88c2.0667-1.2667 3.8934-2.6667 5.8-4.0133 1.84-1.3734 3.5467-2.8 5.28-4.2134 6.64-5.7333 11.92-11.64 16.493-17.2 4.56-5.5733 8.4133-10.853 12.013-15.667 3.5733-4.8134 6.88-9.1867 10.12-13.027 0.7733-0.9067 1.5333-1.8 2.3067-2.7067 0.6533-0.7733 1.3733-1.52 2.0933-2.2666 1.4667-1.48 3.0533-2.8934 4.7067-4.2 3.3066-2.6 6.88-4.84 10.44-6.52 1.7866-0.84 3.56-1.5467 5.3066-2.1334 0.8667-0.28 1.7334-0.5466 2.5867-0.76 0.4133-0.1333 0.8667-0.1866 1.2267-0.2933s0.7066-0.1733 1.0666-0.24c2.84-0.6267 5.88-0.6933 8.8134-0.08 2.9066 0.6133 5.6666 1.9333 7.9866 3.7733 1.48 1.1467 2.7734 2.4934 3.96 3.9334l0.8667 1.0933c0.3067 0.4533 0.6133 0.9067 0.92 1.36 0.6267 0.9333 1.2267 1.8933 1.8267 2.8933 2.3866 4 4.5866 8.24 7.2133 12.333 2.6667 4.12 5.7733 7.8266 9.5467 10.493 1.8666 1.3333 3.92 2.36 5.9733 2.9867 0.52 0.1333 1.0267 0.2666 1.5333 0.3866 0.52 0.08 1.0267 0.16 1.52 0.24 1.08 0.1067 2.2 0.1467 3.1734 0 4.0133-0.5733 6.6666-2.5733 8.44-4.5333 1.8-1.9733 2.6533-4.1333 2.8266-5.88 0.2267-1.76-0.2933-3.0133-0.5866-3.7467-0.4134-0.6933-0.6267-1.0533-0.6267-1.0533s0.067 0.4 0.1867 1.1733c0 0.76 0.013 1.92-0.68 3.1467-0.6267 1.2267-1.8267 2.5067-3.5734 3.4-1.68 0.9067-4.0133 1.4133-5.9866 0.8933-0.4934-0.1066-0.8934-0.3333-1.3467-0.5466-0.2533-0.1467-0.5067-0.2934-0.7733-0.44-0.24-0.1734-0.48-0.3334-0.7334-0.52-0.96-0.7334-1.8266-1.6667-2.6266-2.8134-1.5867-2.28-2.84-5.3733-3.8-8.9866-0.96-3.68-1.7467-8.1334-2.9734-13.213-0.32-1.28-0.6666-2.6-1.0666-3.9733-0.2267-0.6933-0.44-1.4-0.6667-2.1067-0.28-0.7866-0.5733-1.56-0.8667-2.3466-1.2266-3.16-2.8133-6.32-4.8533-9.36-3.24-4.7734-7.6933-9.16-13.28-12.427-5.56-3.2667-12.173-5.4667-19.36-6.2533-0.8933-0.1067-1.8133-0.2-2.7067-0.24-0.9066-0.053-1.72-0.1334-2.5733-0.1334-1.6933-0.067-3.3867-0.04-5.08 0.027-3.3733 0.1467-6.7467 0.5467-10.107 1.1467-6.72 1.2133-13.32 3.32-19.853 6.2266-3.2533 1.4667-6.48 3.16-9.68 5.1067-1.6 0.9733-3.1867 2.0133-4.76 3.1333l-0.4667 0.3334c0.8-1.32 1.5867-2.64 2.3467-3.9867 2.0667-4.2667 3.9733-8.7067 5.1067-13.4 3.4-12.973 2.3333-26.84-2.2134-39.333-1.1333-3.1334-2.48-6.1734-4-9.12-0.3733-0.7467-0.7466-1.3867-1.12-2.0667l-1.08-1.8933c-0.76-1.2267-1.52-2.44-2.3066-3.6267-3.1734-4.7067-6.72-8.92-10.56-12.733-7.6934-7.5867-16.56-13.653-26.72-17.96-2.5334-1.0667-5.16-2.0134-7.8534-2.8267-1.3733-0.3867-2.6933-0.8133-4.1066-1.12l-2.1067-0.48-1.04-0.2267-0.92-0.16c-2.4-0.3733-4.8133-0.8-7.1867-1.04-2.3733-0.2-4.7733-0.4533-7.0933-0.5066-9.3733-0.32-18.213 0.68-26.267 2.3466-8.0666 1.6534-15.4 3.96-22.187 6.48"/>
  <path d="m1975.3 2533.6c33.907-1.8134 66.867-5.8667 98.333-11.573 7.8267-1.5466 15.6-3.0933 23.32-4.6133 7.6533-1.7467 15.213-3.5733 22.68-5.3733 7.4933-1.7067 14.8-3.84 22.027-5.88 3.6133-1.0134 7.2-2.04 10.773-3.0534 1.7867-0.52 3.5733-1.0133 5.3333-1.56 1.7467-0.56 3.5067-1.1333 5.2534-1.6933 6.9333-2.28 13.8-4.5333 20.613-6.7733 3.4-1.0667 6.7066-2.4134 10.013-3.6 3.2933-1.2267 6.56-2.44 9.8267-3.6667 3.2266-1.2133 6.4533-2.4267 9.6533-3.6267 3.1867-1.2 6.2933-2.5866 9.4-3.8666 6.16-2.6 12.253-5.1734 18.267-7.72 5.9466-2.5867 11.693-5.4134 17.373-8.0534 2.8133-1.3333 5.6133-2.6666 8.4-3.9866 1.3733-0.6534 2.7467-1.3067 4.12-1.9734 1.36-0.6933 2.6933-1.4 4.04-2.0933 5.2933-2.7733 10.52-5.5067 15.653-8.2 2.5467-1.36 5.0667-2.6667 7.5334-4.0133 2.44-1.4 4.8533-2.8 7.2533-4.1734 9.5067-5.5466 18.6-10.653 26.88-16.12 4.1333-2.6533 8.16-5.2533 12.093-7.7733 1.9467-1.28 3.8934-2.4667 5.7334-3.76 1.84-1.28 3.6666-2.56 5.4533-3.8133 7.1067-5.0267 13.733-9.6267 19.693-14.053 5.8134-4.52 11.173-8.68 16.04-12.467 2.3867-1.8934 4.6667-3.6267 6.7467-5.3467 2.0533-1.7467 3.9733-3.3867 5.76-4.92 3.52-3.04 6.52-5.6267 8.9733-7.7467 4.7467-4.1733 7.32-6.4266 7.32-6.4266s-3.1466 1.3866-8.9333 3.9333c-2.9333 1.32-6.5333 2.9467-10.747 4.84-2.1066 0.9733-4.3866 2-6.8 3.1067-2.4533 1.0666-5.0933 2.1333-7.8666 3.3066-5.5734 2.3734-11.733 4.9734-18.4 7.8-6.7467 2.7467-14.173 5.5334-22.027 8.68-1.9733 0.7734-3.9733 1.5734-6 2.3734s-4.1467 1.5066-6.2667 2.2933c-4.2666 1.5467-8.64 3.12-13.12 4.7467-8.92 3.4133-18.587 6.4133-28.587 9.8133-2.5067 0.84-5.04 1.6933-7.5867 2.56-2.6 0.7867-5.2133 1.5867-7.8533 2.3867-5.2934 1.6133-10.68 3.2666-16.147 4.9466-1.3733 0.4134-2.7467 0.84-4.1333 1.2667-1.4 0.3867-2.8134 0.7733-4.2134 1.16-2.84 0.7867-5.68 1.5733-8.5466 2.36-5.76 1.56-11.547 3.3067-17.52 4.84-6 1.4933-12.08 3.0133-18.227 4.56-3.08 0.7467-6.16 1.6267-9.32 2.3067-3.1467 0.7066-6.32 1.4133-9.5067 2.12-3.2 0.72-6.4133 1.44-9.64 2.1733-3.24 0.7067-6.4533 1.56-9.76 2.1467-6.6133 1.32-13.28 2.6533-20 3.9866-1.6934 0.3467-3.3867 0.6934-5.0667 1.04-1.7067 0.3334-3.4267 0.6-5.1333 0.8934-3.44 0.6-6.88 1.2-10.347 1.8-6.9333 1.2133-13.907 2.56-21.027 3.52-7.12 1.08-14.293 2.1733-21.507 3.2666-7.28 0.9334-14.613 1.8667-21.987 2.8-29.6 3.52-60.28 6.24-91.787 7.9467-31.52 1.5067-62.32 1.8933-92.12 1.3867-7.44-0.1867-14.813-0.36-22.16-0.5467-7.2933-0.36-14.533-0.72-21.72-1.08-7.2-0.2267-14.267-0.8933-21.293-1.3733-7.0133-0.5334-13.987-0.8534-20.813-1.6267-6.8267-0.64-13.6-1.2933-20.307-1.92-6.68-0.6933-13.24-1.6-19.733-2.3467-3.2534-0.3733-6.48-0.7466-9.6934-1.1333-3.2-0.3867-6.3466-0.92-9.4933-1.36-6.28-0.8933-12.48-1.7867-18.6-2.6667-6.0933-0.9333-12.04-2.0533-17.92-3.0266-2.9333-0.4934-5.8533-0.9867-8.7467-1.4667-1.44-0.2533-2.8933-0.4667-4.3066-0.7333-1.4267-0.2934-2.84-0.5734-4.24-0.8534-5.6134-1.1066-11.147-2.1866-16.587-3.2666-2.7067-0.5334-5.4-1.0134-8.04-1.5734-2.6267-0.6-5.24-1.1866-7.8133-1.7733-10.293-2.3467-20.227-4.3467-29.44-6.8267-4.6267-1.1466-9.1467-2.28-13.547-3.3733-2.1867-0.56-4.3733-1.04-6.48-1.64-2.0933-0.6-4.16-1.1733-6.2-1.7467-8.1467-2.32-15.813-4.3333-22.813-6.3733-6.92-2.12-13.307-4.08-19.093-5.8533-2.88-0.88-5.6266-1.6667-8.1733-2.48-2.52-0.8534-4.88-1.6534-7.0933-2.3867-4.3867-1.4533-8.1334-2.6933-11.173-3.7067-6.0266-1.9466-9.2933-3-9.2933-3s2.7867 1.9867 7.9467 5.64c2.64 1.8534 5.9066 4.12 9.72 6.7867 1.9333 1.3333 4.0133 2.76 6.24 4.2933 2.24 1.4934 4.68 2.9867 7.2533 4.6267 5.2267 3.2533 10.987 6.8533 17.24 10.747 6.3867 3.8 13.453 7.68 21.04 11.947 1.9067 1.0667 3.84 2.1467 5.8 3.24 1.9733 1.1067 4.0267 2.08 6.0933 3.1467 4.1734 2.1067 8.4534 4.28 12.84 6.4933 8.7867 4.5867 18.347 8.7467 28.387 13.28 2.52 1.12 5.0533 2.2534 7.6267 3.4 2.5866 1.12 5.24 2.1467 7.9066 3.2267 5.3734 2.16 10.853 4.3467 16.413 6.56 1.4 0.56 2.8133 1.12 4.2266 1.6667 1.4134 0.5466 2.8667 1.04 4.3067 1.56 2.8933 1.0266 5.8133 2.0533 8.76 3.1066 5.9067 2.0534 11.92 4.24 18.093 6.24 6.24 1.92 12.56 3.8534 18.96 5.8134 3.2134 0.96 6.4534 2 9.7467 2.8933 3.3067 0.8667 6.6267 1.7467 9.9733 2.6267 6.7067 1.72 13.507 3.5866 20.453 5.2133 7.0133 1.5333 14.08 3.0667 21.213 4.6267 7.16 1.64 14.48 2.7866 21.88 4.12 7.4 1.2666 14.88 2.6933 22.507 3.6133 7.6533 1.0133 15.347 2.0267 23.107 3.0533 7.84 0.7334 15.72 1.4667 23.653 2.2 31.893 2.5067 65.093 3.2134 99 1.5734"/>
 </g>
</svg>
